<?xml version="1.0" encoding="UTF-8" standalone="no"?>
<svg
   width="221.795pt"
   height="252.57437pt"
   viewBox="0 0 221.795 252.57437"
   version="1.2"
   id="svg149"
   sodipodi:docname="combined-logo-white.svg"
   inkscape:version="1.1.2 (b8e25be833, 2022-02-05)"
   inkscape:export-filename="C:\Users\laura\OneDrive\Desktop\MCM\New\combined-logo-white.png"
   inkscape:export-xdpi="259.69928"
   inkscape:export-ydpi="259.69928"
   xmlns:inkscape="http://www.inkscape.org/namespaces/inkscape"
   xmlns:sodipodi="http://sodipodi.sourceforge.net/DTD/sodipodi-0.dtd"
   xmlns="http://www.w3.org/2000/svg"
   xmlns:svg="http://www.w3.org/2000/svg">
  <sodipodi:namedview
     id="namedview89"
     pagecolor="#505050"
     bordercolor="#eeeeee"
     borderopacity="1"
     inkscape:pageshadow="0"
     inkscape:pageopacity="0"
     inkscape:pagecheckerboard="0"
     inkscape:document-units="pt"
     showgrid="false"
     lock-margins="false"
     fit-margin-top="0"
     fit-margin-left="0"
     fit-margin-right="0"
     fit-margin-bottom="0"
     inkscape:zoom="2.171451"
     inkscape:cx="136.08412"
     inkscape:cy="116.97248"
     inkscape:window-width="1920"
     inkscape:window-height="1009"
     inkscape:window-x="-8"
     inkscape:window-y="-8"
     inkscape:window-maximized="1"
     inkscape:current-layer="svg149" />
  <defs
     id="defs153" />
  <g
     id="surface1861"
     transform="translate(-0.65301493,189.78531)">
    <path
       style="fill:#ffffff;fill-opacity:1;fill-rule:nonzero;stroke:none"
       d="m 82.664062,60.894531 h 1.375 V 62.5 h -1.375 v -1.605469"
       id="path2" />
    <path
       style="fill:#ffffff;fill-opacity:1;fill-rule:nonzero;stroke:none"
       d="m 111.89453,60.894531 h 1.375 V 62.5 h -1.375 v -1.605469"
       id="path4" />
    <path
       style="fill:#ffffff;fill-opacity:1;fill-rule:nonzero;stroke:none"
       d="m 127.96875,60.894531 h 1.375 V 62.5 h -1.375 v -1.605469"
       id="path6" />
    <path
       style="fill:#ffffff;fill-opacity:1;fill-rule:nonzero;stroke:none"
       d="m 60.605469,62.6875 h -1.375 l -1.53125,-6.175781 h -0.03125 L 56.265625,62.6875 h -1.375 l -1.933594,-7.308594 h 1.261719 l 1.386719,6.105469 h 0.03125 l 1.390625,-6.105469 h 1.433594 l 1.445312,6.105469 h 0.02734 l 1.375,-6.105469 h 1.207031 L 60.605469,62.6875"
       id="path8" />
    <path
       style="fill:#ffffff;fill-opacity:1;fill-rule:nonzero;stroke:none"
       d="m 70.566406,62.6875 h -1.375 L 67.65625,56.511719 H 67.62891 L 66.22266,62.6875 h -1.375 l -1.933594,-7.308594 h 1.261719 l 1.390625,6.105469 h 0.02734 l 1.390625,-6.105469 h 1.429687 l 1.449219,6.105469 h 0.03125 l 1.375,-6.105469 H 72.46875 L 70.566406,62.6875"
       id="path10" />
    <path
       style="fill:#ffffff;fill-opacity:1;fill-rule:nonzero;stroke:none"
       d="m 80.523438,62.6875 h -1.375 l -1.535157,-6.175781 h -0.02734 L 76.183594,62.6875 h -1.375 L 72.875,55.378906 h 1.257812 l 1.390626,6.105469 h 0.02734 l 1.390625,-6.105469 H 78.375 l 1.449219,6.105469 h 0.02734 l 1.375,-6.105469 h 1.203126 l -1.90625,7.308594"
       id="path12" />
    <path
       style="fill:#ffffff;fill-opacity:1;fill-rule:nonzero;stroke:none"
       d="m 86.214844,55.378906 h 1.199218 V 62.6875 h -1.199218 z m 1.257812,-3.007812 v 1.433594 H 86.15625 v -1.433594 h 1.316406"
       id="path14" />
    <path
       style="fill:#ffffff;fill-opacity:1;fill-rule:nonzero;stroke:none"
       d="m 89.535156,55.378906 h 1.203125 V 62.6875 h -1.203125 z m 1.261719,-3.007812 v 1.433594 h -1.320313 v -1.433594 h 1.320313"
       id="path16" />
    <path
       style="fill:#ffffff;fill-opacity:1;fill-rule:nonzero;stroke:none"
       d="m 96.53125,59.105469 c -0.214844,-0.02734 -0.519531,-0.02734 -0.847656,-0.02734 -1.417969,0 -2.089844,0.671875 -2.089844,1.515625 0,0.773438 0.398438,1.277344 1.230469,1.277344 1.046875,0 1.707031,-0.847656 1.707031,-1.847656 z m -3.5,-3.222657 c 0.605469,-0.386718 1.347656,-0.601562 2.0625,-0.601562 1.074219,0 1.722656,0.457031 1.949219,0.6875 0.316406,0.3125 0.632812,0.757812 0.632812,1.789062 v 3.8125 c 0,0.429688 0.02734,0.859376 0.05469,1.117188 h -1.085938 l -0.07031,-0.988281 h -0.03125 c -0.328125,0.558593 -0.933594,1.089843 -2.046875,1.089843 -1.207032,0 -2.109375,-0.703124 -2.109375,-2.109374 0,-1.417969 0.933593,-2.464844 3.441406,-2.464844 h 0.703125 v -0.328125 c 0,-0.542969 -0.04687,-0.859375 -0.273438,-1.175781 -0.246093,-0.328126 -0.71875,-0.457032 -1.21875,-0.457032 -0.746093,0 -1.460937,0.300782 -1.878906,0.757813 l -0.12891,-1.128907"
       id="path18" />
    <path
       style="fill:#ffffff;fill-opacity:1;fill-rule:nonzero;stroke:none"
       d="m 99.207031,61.269531 c 0.546875,0.328125 1.117189,0.542969 1.722659,0.542969 0.91406,0 1.38672,-0.472656 1.38672,-1.03125 0,-0.5 -0.25782,-0.84375 -0.92969,-1.144531 l -0.80469,-0.359375 c -1.046874,-0.472656 -1.429686,-0.945313 -1.429686,-1.878906 0,-1.203126 0.929686,-2.117188 2.347656,-2.117188 0.60156,0 1.13281,0.09766 1.55078,0.257812 l -0.0625,1.03125 c -0.37109,-0.171874 -0.88672,-0.316406 -1.42969,-0.316406 -0.78906,0 -1.20703,0.429688 -1.20703,1.003906 0,0.585938 0.42969,0.914063 1.23438,1.230469 l 0.42969,0.171875 c 0.88671,0.359375 1.44921,0.960938 1.44921,1.863282 0,1.261718 -0.67578,2.265624 -2.35156,2.265624 -0.76172,0 -1.449218,-0.160156 -1.976561,-0.429687 l 0.07031,-1.089844"
       id="path20" />
    <path
       style="fill:#ffffff;fill-opacity:1;fill-rule:nonzero;stroke:none"
       d="m 108.75,59.105469 c -0.21484,-0.02734 -0.51562,-0.02734 -0.84766,-0.02734 -1.41796,0 -2.08984,0.671875 -2.08984,1.515625 0,0.773438 0.40234,1.277344 1.23438,1.277344 1.04687,0 1.70312,-0.847656 1.70312,-1.847656 z m -3.49609,-3.222657 c 0.60156,-0.386718 1.34765,-0.601562 2.0625,-0.601562 1.07812,0 1.71875,0.457031 1.94922,0.6875 0.3164,0.3125 0.6289,0.757812 0.6289,1.789062 v 3.8125 c 0,0.429688 0.0312,0.859376 0.0586,1.117188 h -1.08985 l -0.0703,-0.988281 h -0.0273 c -0.32813,0.558593 -0.92969,1.089843 -2.05079,1.089843 -1.20312,0 -2.10546,-0.703124 -2.10546,-2.109374 0,-1.417969 0.92968,-2.464844 3.4414,-2.464844 H 108.75 v -0.328125 c 0,-0.542969 -0.043,-0.859375 -0.27344,-1.175781 -0.24218,-0.328126 -0.71484,-0.457032 -1.21484,-0.457032 -0.74609,0 -1.46094,0.300782 -1.87891,0.757813 l -0.1289,-1.128907"
       id="path22" />
    <path
       style="fill:#ffffff;fill-opacity:1;fill-rule:nonzero;stroke:none"
       d="m 119.10938,59.105469 c -0.21485,-0.02734 -0.51563,-0.02734 -0.84375,-0.02734 -1.42188,0 -2.09375,0.671875 -2.09375,1.515625 0,0.773438 0.40234,1.277344 1.23046,1.277344 1.04688,0 1.70704,-0.847656 1.70704,-1.847656 z m -3.4961,-3.222657 c 0.60156,-0.386718 1.34766,-0.601562 2.0625,-0.601562 1.07422,0 1.71875,0.457031 1.94922,0.6875 0.31641,0.3125 0.62891,0.757812 0.62891,1.789062 v 3.8125 c 0,0.429688 0.0273,0.859376 0.0586,1.117188 h -1.08984 l -0.0703,-0.988281 h -0.0273 c -0.33203,0.558593 -0.93359,1.089843 -2.05078,1.089843 -1.20313,0 -2.10547,-0.703124 -2.10547,-2.109374 0,-1.417969 0.92969,-2.464844 3.4375,-2.464844 h 0.70313 v -0.328125 c 0,-0.542969 -0.043,-0.859375 -0.27344,-1.175781 -0.24219,-0.328126 -0.71485,-0.457032 -1.21485,-0.457032 -0.74609,0 -1.46484,0.300782 -1.8789,0.757813 l -0.12891,-1.128907"
       id="path24" />
    <path
       style="fill:#ffffff;fill-opacity:1;fill-rule:nonzero;stroke:none"
       d="m 126.40234,56.65625 c -0.41796,-0.230469 -0.83203,-0.34375 -1.39062,-0.34375 -1.17188,0 -2.00391,0.816406 -2.00391,2.792969 0,1.691406 0.80078,2.648437 1.97657,2.648437 0.57421,0 1.0625,-0.171875 1.47656,-0.386718 l 0.0547,1.105468 c -0.35938,0.15625 -1,0.316406 -1.53125,0.316406 -2.17969,0 -3.23829,-1.621093 -3.23829,-3.683593 0,-2.363281 1.23047,-3.824219 3.26563,-3.824219 0.50391,0 1.0625,0.09766 1.44922,0.285156 l -0.0586,1.089844"
       id="path26" />
    <path
       style="fill:#ffffff;fill-opacity:1;fill-rule:nonzero;stroke:none"
       d="m 135.1875,59.105469 c -0.21875,-0.02734 -0.51563,-0.02734 -0.84766,-0.02734 -1.41797,0 -2.08984,0.671875 -2.08984,1.515625 0,0.773438 0.39844,1.277344 1.23047,1.277344 1.04297,0 1.70703,-0.847656 1.70703,-1.847656 z m -3.49609,-3.222657 c 0.59765,-0.386718 1.34375,-0.601562 2.0625,-0.601562 1.07421,0 1.71875,0.457031 1.94921,0.6875 0.3125,0.3125 0.62891,0.757812 0.62891,1.789062 v 3.8125 c 0,0.429688 0.0273,0.859376 0.0586,1.117188 h -1.08984 l -0.0742,-0.988281 h -0.0273 c -0.32813,0.558593 -0.92969,1.089843 -2.05078,1.089843 -1.19922,0 -2.10157,-0.703124 -2.10157,-2.109374 0,-1.417969 0.92969,-2.464844 3.4336,-2.464844 h 0.70703 v -0.328125 c 0,-0.542969 -0.043,-0.859375 -0.27734,-1.175781 -0.23829,-0.328126 -0.71485,-0.457032 -1.21485,-0.457032 -0.74609,0 -1.46094,0.300782 -1.875,0.757813 l -0.1289,-1.128907"
       id="path28" />
    <path
       style="fill:#ffffff;fill-opacity:1;fill-rule:nonzero;stroke:none"
       d="m 141.40234,62.601562 c -0.28515,0.101563 -0.6875,0.1875 -1.01562,0.1875 -1.10547,0 -1.69141,-0.445312 -1.69141,-1.734374 v -4.699219 h -1.16015 v -0.976563 h 1.16015 v -1.488281 l 1.20313,-0.359375 v 1.847656 h 1.5039 v 0.976563 h -1.5039 v 4.3125 c 0,0.828125 0.21484,1.144531 0.75781,1.144531 0.30469,0 0.51953,-0.08594 0.74609,-0.1875 v 0.976562"
       id="path30" />
    <path
       style="fill:#ffffff;fill-opacity:1;fill-rule:nonzero;stroke:none"
       d="m 53.957031,10.292969 h 1.527344 V 22.40625 H 53.957031 V 10.292969"
       id="path32" />
    <path
       style="fill:#ffffff;fill-opacity:1;fill-rule:nonzero;stroke:none"
       d="m 58.050781,15.464844 c 0,-0.640625 -0.05469,-1.285156 -0.07031,-1.910156 h 1.40625 L 59.4375,14.875 h 0.03516 c 0.46875,-1.007812 1.214844,-1.441406 2.238282,-1.441406 1.546874,0 2.585937,0.886718 2.585937,2.828125 v 6.144531 h -1.457031 v -5.710938 c 0,-1.402343 -0.519532,-2.011718 -1.457032,-2.011718 -1.148437,0 -1.875,0.796875 -1.875,2.394531 v 5.328125 h -1.457031 v -6.941406"
       id="path34" />
    <path
       style="fill:#ffffff;fill-opacity:1;fill-rule:nonzero;stroke:none"
       d="m 70.488281,22.300781 c -0.347656,0.121094 -0.832031,0.226563 -1.230469,0.226563 -1.335937,0 -2.046874,-0.539063 -2.046874,-2.101563 v -5.691406 h -1.40625 v -1.179687 h 1.40625 V 11.75 l 1.457031,-0.433594 v 2.238282 h 1.820312 v 1.179687 h -1.820312 v 5.222656 c 0,1.007813 0.257812,1.390625 0.917969,1.390625 0.367187,0 0.625,-0.105468 0.902343,-0.226562 v 1.179687"
       id="path36" />
    <path
       style="fill:#ffffff;fill-opacity:1;fill-rule:nonzero;stroke:none"
       d="m 76.523438,17.304688 c 0,-1.839844 -0.570313,-2.757813 -1.734376,-2.757813 -0.9375,0 -1.769531,0.691406 -1.804687,2.757813 z m -3.539063,1.109374 c 0,2.046876 0.800781,3.003907 2.414063,3.003907 0.726562,0 1.527343,-0.367188 2.027343,-0.730469 l 0.07031,1.320312 c -0.695313,0.328126 -1.59375,0.519532 -2.480469,0.519532 -2.34375,0 -3.554687,-1.769532 -3.554687,-4.546875 0,-2.777344 1.210937,-4.546875 3.414062,-4.546875 1.996094,0 3.105469,1.597656 3.105469,4.199218 v 0.78125 h -4.996094"
       id="path38" />
    <path
       style="fill:#ffffff;fill-opacity:1;fill-rule:nonzero;stroke:none"
       d="m 79.765625,15.464844 c 0,-0.640625 -0.05078,-1.285156 -0.06641,-1.910156 h 1.402343 l 0.05469,1.390624 h 0.03125 c 0.46875,-1.078124 1.21875,-1.511718 2.519531,-1.511718 V 14.875 c -0.175781,-0.03516 -0.367187,-0.05078 -0.554687,-0.05078 -1.128906,0 -1.929688,0.96875 -1.929688,2.898437 v 4.683594 h -1.457031 v -6.941406"
       id="path40" />
    <path
       style="fill:#ffffff;fill-opacity:1;fill-rule:nonzero;stroke:none"
       d="m 85.074219,15.464844 c 0,-0.640625 -0.05078,-1.285156 -0.07031,-1.910156 h 1.40625 l 0.05469,1.320312 h 0.03125 c 0.46875,-1.007812 1.214844,-1.441406 2.238281,-1.441406 1.546875,0 2.585937,0.886718 2.585937,2.828125 v 6.144531 h -1.457031 v -5.710938 c 0,-1.402343 -0.519531,-2.011718 -1.457031,-2.011718 -1.144531,0 -1.875,0.796875 -1.875,2.394531 v 5.328125 h -1.457031 v -6.941406"
       id="path42" />
    <path
       style="fill:#ffffff;fill-opacity:1;fill-rule:nonzero;stroke:none"
       d="m 98.1875,18.066406 c -0.257812,-0.03125 -0.625,-0.03125 -1.023438,-0.03125 -1.714843,0 -2.53125,0.8125 -2.53125,1.835938 0,0.9375 0.484376,1.546875 1.492188,1.546875 1.265625,0 2.0625,-1.023438 2.0625,-2.238281 z m -4.230469,-3.902344 c 0.726563,-0.46875 1.628907,-0.730468 2.496094,-0.730468 1.304687,0 2.082031,0.554687 2.359375,0.832031 0.382812,0.382813 0.765625,0.921875 0.765625,2.171875 v 4.613281 c 0,0.519531 0.03125,1.042969 0.07031,1.355469 h -1.320313 l -0.08594,-1.199219 h -0.03516 c -0.398437,0.675781 -1.128906,1.320313 -2.484375,1.320313 -1.453125,0 -2.546875,-0.851563 -2.546875,-2.550782 0,-1.71875 1.125,-2.984374 4.164063,-2.984374 H 98.1875 V 16.59375 c 0,-0.660156 -0.05078,-1.042969 -0.328125,-1.425781 -0.296875,-0.398438 -0.867187,-0.554688 -1.472656,-0.554688 -0.90625,0 -1.773438,0.367188 -2.277344,0.921875 l -0.152344,-1.371094"
       id="path44" />
    <path
       style="fill:#ffffff;fill-opacity:1;fill-rule:nonzero;stroke:none"
       d="m 105.71875,22.300781 c -0.35156,0.121094 -0.83594,0.226563 -1.23437,0.226563 -1.33594,0 -2.04688,-0.539063 -2.04688,-2.101563 v -5.691406 h -1.40625 v -1.179687 h 1.40625 V 11.75 l 1.45703,-0.433594 v 2.238282 h 1.82422 v 1.179687 h -1.82422 v 5.222656 c 0,1.007813 0.26172,1.390625 0.91797,1.390625 0.36719,0 0.625,-0.105468 0.90625,-0.226562 v 1.179687"
       id="path46" />
    <path
       style="fill:#ffffff;fill-opacity:1;fill-rule:nonzero;stroke:none"
       d="m 107.25781,13.554688 h 1.46094 v 8.851562 h -1.46094 z m 1.52735,-3.640626 v 1.734376 H 107.1875 V 9.914062 h 1.59766"
       id="path48" />
    <path
       style="fill:#ffffff;fill-opacity:1;fill-rule:nonzero;stroke:none"
       d="m 114.26563,21.347656 c 1.39062,0 2.03125,-1.144531 2.03125,-3.367187 0,-2.21875 -0.64063,-3.367188 -2.03125,-3.367188 -1.38672,0 -2.02735,1.148438 -2.02735,3.367188 0,2.222656 0.64063,3.367187 2.02735,3.367187 z m 0,-7.914062 c 2.34375,0 3.55859,1.769531 3.55859,4.546875 0,2.777343 -1.21484,4.546875 -3.55859,4.546875 -2.33985,0 -3.55469,-1.769532 -3.55469,-4.546875 0,-2.777344 1.21484,-4.546875 3.55469,-4.546875"
       id="path50" />
    <path
       style="fill:#ffffff;fill-opacity:1;fill-rule:nonzero;stroke:none"
       d="m 119.67969,15.464844 c 0,-0.640625 -0.0547,-1.285156 -0.0742,-1.910156 h 1.40625 l 0.0547,1.320312 h 0.0352 c 0.46875,-1.007812 1.21485,-1.441406 2.23828,-1.441406 1.54297,0 2.58594,0.886718 2.58594,2.828125 v 6.144531 h -1.45703 v -5.710938 c 0,-1.402343 -0.52344,-2.011718 -1.46094,-2.011718 -1.14453,0 -1.87109,0.796875 -1.87109,2.394531 v 5.328125 h -1.45703 v -6.941406"
       id="path52" />
    <path
       style="fill:#ffffff;fill-opacity:1;fill-rule:nonzero;stroke:none"
       d="m 132.79297,18.066406 c -0.26172,-0.03125 -0.625,-0.03125 -1.02344,-0.03125 -1.71875,0 -2.53516,0.8125 -2.53516,1.835938 0,0.9375 0.48438,1.546875 1.49219,1.546875 1.26563,0 2.06641,-1.023438 2.06641,-2.238281 z m -4.23438,-3.902344 c 0.73047,-0.46875 1.63282,-0.730468 2.4961,-0.730468 1.30468,0 2.08593,0.554687 2.36328,0.832031 0.38281,0.382813 0.76172,0.921875 0.76172,2.171875 v 4.613281 c 0,0.519531 0.0352,1.042969 0.0703,1.355469 h -1.32031 l -0.0859,-1.199219 h -0.0352 c -0.39843,0.675781 -1.1289,1.320313 -2.48047,1.320313 -1.45703,0 -2.55078,-0.851563 -2.55078,-2.550782 0,-1.71875 1.12891,-2.984374 4.16407,-2.984374 h 0.85156 V 16.59375 c 0,-0.660156 -0.0508,-1.042969 -0.32813,-1.425781 -0.29687,-0.398438 -0.87109,-0.554688 -1.47656,-0.554688 -0.90234,0 -1.76953,0.367188 -2.27344,0.921875 l -0.15625,-1.371094"
       id="path54" />
    <path
       style="fill:#ffffff;fill-opacity:1;fill-rule:nonzero;stroke:none"
       d="m 136.55469,9.390625 h 1.45703 V 22.40625 h -1.45703 V 9.390625"
       id="path56" />
    <path
       style="fill:#ffffff;fill-opacity:1;fill-rule:nonzero;stroke:none"
       d="m 145.05469,10.292969 h 1.52734 V 22.40625 h -1.52734 V 10.292969"
       id="path58" />
    <path
       style="fill:#ffffff;fill-opacity:1;fill-rule:nonzero;stroke:none"
       d="m 149.14453,15.464844 c 0,-0.640625 -0.0508,-1.285156 -0.0664,-1.910156 h 1.40625 l 0.0508,1.320312 h 0.0352 c 0.46485,-1.007812 1.21485,-1.441406 2.23828,-1.441406 1.54297,0 2.58203,0.886718 2.58203,2.828125 v 6.144531 h -1.45703 v -5.710938 c 0,-1.402343 -0.51953,-2.011718 -1.45703,-2.011718 -1.14453,0 -1.875,0.796875 -1.875,2.394531 v 5.328125 h -1.45703 v -6.941406"
       id="path60" />
    <path
       style="fill:#ffffff;fill-opacity:1;fill-rule:nonzero;stroke:none"
       d="m 157.30078,20.6875 c 0.65625,0.398438 1.35156,0.660156 2.08203,0.660156 1.10938,0 1.67969,-0.574218 1.67969,-1.25 0,-0.605468 -0.3125,-1.023437 -1.125,-1.386718 l -0.97266,-0.433594 c -1.26562,-0.574219 -1.73437,-1.148438 -1.73437,-2.273438 0,-1.457031 1.125,-2.570312 2.84375,-2.570312 0.73047,0 1.37109,0.121094 1.875,0.3125 l -0.0703,1.25 c -0.44922,-0.207032 -1.07422,-0.382813 -1.73438,-0.382813 -0.95703,0 -1.45703,0.523438 -1.45703,1.214844 0,0.710937 0.51953,1.109375 1.49219,1.492187 l 0.51953,0.210938 c 1.07422,0.433594 1.7539,1.160156 1.7539,2.253906 0,1.527344 -0.8164,2.742188 -2.84765,2.742188 -0.91797,0 -1.75391,-0.191406 -2.39063,-0.519532 l 0.0859,-1.320312"
       id="path62" />
    <path
       style="fill:#ffffff;fill-opacity:1;fill-rule:nonzero;stroke:none"
       d="m 168.17578,22.300781 c -0.34766,0.121094 -0.83203,0.226563 -1.23437,0.226563 -1.33594,0 -2.04688,-0.539063 -2.04688,-2.101563 v -5.691406 h -1.40625 v -1.179687 h 1.40625 V 11.75 l 1.45703,-0.433594 v 2.238282 h 1.82422 v 1.179687 h -1.82422 v 5.222656 c 0,1.007813 0.26172,1.390625 0.92188,1.390625 0.36328,0 0.625,-0.105468 0.90234,-0.226562 v 1.179687"
       id="path64" />
    <path
       style="fill:#ffffff;fill-opacity:1;fill-rule:nonzero;stroke:none"
       d="m 169.71875,13.554688 h 1.45703 v 8.851562 h -1.45703 z m 1.52734,-3.640626 v 1.734376 h -1.59765 V 9.914062 h 1.59765"
       id="path66" />
    <path
       style="fill:#ffffff;fill-opacity:1;fill-rule:nonzero;stroke:none"
       d="m 177.50781,22.300781 c -0.34765,0.121094 -0.83203,0.226563 -1.23437,0.226563 -1.33594,0 -2.04688,-0.539063 -2.04688,-2.101563 v -5.691406 h -1.40625 v -1.179687 h 1.40625 V 11.75 l 1.45703,-0.433594 v 2.238282 h 1.82422 v 1.179687 h -1.82422 v 5.222656 c 0,1.007813 0.26172,1.390625 0.92188,1.390625 0.36328,0 0.62109,-0.105468 0.90234,-0.226562 v 1.179687"
       id="path68" />
    <path
       style="fill:#ffffff;fill-opacity:1;fill-rule:nonzero;stroke:none"
       d="m 185.15625,20.496094 c 0,0.644531 0.0547,1.285156 0.0703,1.910156 h -1.40625 l -0.0508,-1.320312 h -0.0352 c -0.46875,1.007812 -1.21484,1.441406 -2.23828,1.441406 -1.54297,0 -2.58593,-0.886719 -2.58593,-2.828125 v -6.144531 h 1.45703 v 5.710937 c 0,1.40625 0.51953,2.011719 1.45703,2.011719 1.14453,0 1.875,-0.796875 1.875,-2.394532 v -5.328124 h 1.45703 v 6.941406"
       id="path70" />
    <path
       style="fill:#ffffff;fill-opacity:1;fill-rule:nonzero;stroke:none"
       d="m 191.34766,22.300781 c -0.34375,0.121094 -0.83204,0.226563 -1.23047,0.226563 -1.33594,0 -2.04688,-0.539063 -2.04688,-2.101563 v -5.691406 h -1.40625 v -1.179687 h 1.40625 V 11.75 l 1.45703,-0.433594 v 2.238282 h 1.82032 v 1.179687 h -1.82032 v 5.222656 c 0,1.007813 0.25782,1.390625 0.91797,1.390625 0.36328,0 0.625,-0.105468 0.90235,-0.226562 v 1.179687"
       id="path72" />
    <path
       style="fill:#ffffff;fill-opacity:1;fill-rule:nonzero;stroke:none"
       d="m 197.38672,17.304688 c 0,-1.839844 -0.57422,-2.757813 -1.73828,-2.757813 -0.9336,0 -1.76953,0.691406 -1.80469,2.757813 z m -3.54297,1.109374 c 0,2.046876 0.80078,3.003907 2.41406,3.003907 0.72656,0 1.52735,-0.367188 2.02735,-0.730469 l 0.0703,1.320312 c -0.69531,0.328126 -1.59375,0.519532 -2.48047,0.519532 -2.34375,0 -3.55859,-1.769532 -3.55859,-4.546875 0,-2.777344 1.21484,-4.546875 3.42187,-4.546875 1.99219,0 3.10547,1.597656 3.10547,4.199218 v 0.78125 h -5"
       id="path74" />
    <path
       style="fill:#ffffff;fill-opacity:1;fill-rule:nonzero;stroke:none"
       d="m 205.58984,14.734375 h -1.40625 v -1.179687 h 1.40625 v -1.976563 c 0,-1.441406 0.65625,-2.394531 2.19922,-2.394531 0.40235,0 0.81641,0.050781 1.14844,0.136718 v 1.25 c -0.17578,-0.136718 -0.48828,-0.207031 -0.83594,-0.207031 -0.8125,0 -1.05469,0.453125 -1.05469,1.335938 v 1.855469 h 1.59375 v 1.179687 h -1.59375 v 7.671875 h -1.45703 v -7.671875"
       id="path76" />
    <path
       style="fill:#ffffff;fill-opacity:1;fill-rule:nonzero;stroke:none"
       d="m 213.08203,21.347656 c 1.38672,0 2.03125,-1.144531 2.03125,-3.367187 0,-2.21875 -0.64453,-3.367188 -2.03125,-3.367188 -1.39062,0 -2.03125,1.148438 -2.03125,3.367188 0,2.222656 0.64063,3.367187 2.03125,3.367187 z m 0,-7.914062 c 2.34375,0 3.55469,1.769531 3.55469,4.546875 0,2.777343 -1.21094,4.546875 -3.55469,4.546875 -2.34375,0 -3.55859,-1.769532 -3.55859,-4.546875 0,-2.777344 1.21484,-4.546875 3.55859,-4.546875"
       id="path78" />
    <path
       style="fill:#ffffff;fill-opacity:1;fill-rule:nonzero;stroke:none"
       d="m 218.49219,15.464844 c 0,-0.640625 -0.0547,-1.285156 -0.0703,-1.910156 h 1.40625 l 0.0547,1.390624 h 0.0312 c 0.46875,-1.078124 1.21875,-1.511718 2.51563,-1.511718 V 14.875 c -0.17188,-0.03516 -0.36328,-0.05078 -0.55469,-0.05078 -1.12891,0 -1.92578,0.96875 -1.92578,2.898437 v 4.683594 h -1.45703 v -6.941406"
       id="path80" />
    <path
       style="fill:#ffffff;fill-opacity:1;fill-rule:nonzero;stroke:none"
       d="m 59.671875,36.605469 -1.855469,-6.039063 h -0.03516 l -1.910156,6.039063 z m -0.988281,-7.636719 3.957031,12.113281 h -1.597656 l -0.972657,-3.160156 h -4.613281 l -0.972656,3.160156 h -1.527344 l 4.0625,-12.113281 h 1.664063"
       id="path82" />
    <path
       style="fill:#ffffff;fill-opacity:1;fill-rule:nonzero;stroke:none"
       d="m 67.269531,40.023438 c 1.335938,0 1.941407,-1.144532 1.941407,-3.367188 0,-2.21875 -0.605469,-3.367188 -1.941407,-3.367188 -1.335937,0 -1.945312,1.148438 -1.945312,3.367188 0,2.222656 0.609375,3.367188 1.945312,3.367188 z m -3.402343,-6.160157 c 0,-0.539062 -0.05078,-1.09375 -0.07031,-1.632812 h 1.40625 l 0.05469,1.304687 h 0.03125 c 0.382813,-0.695312 1.042969,-1.425781 2.324219,-1.425781 1.824219,0 3.054688,1.492187 3.054688,4.546875 0,3.054688 -1.230469,4.546875 -3.054688,4.546875 -1.003906,0 -1.664062,-0.398437 -2.253906,-1.335937 h -0.03516 v 4.960937 H 63.867188 V 33.863281"
       id="path84" />
    <path
       style="fill:#ffffff;fill-opacity:1;fill-rule:nonzero;stroke:none"
       d="m 75.785156,40.023438 c 1.335938,0 1.941406,-1.144532 1.941406,-3.367188 0,-2.21875 -0.605468,-3.367188 -1.941406,-3.367188 -1.335937,0 -1.945312,1.148438 -1.945312,3.367188 0,2.222656 0.609375,3.367188 1.945312,3.367188 z m -3.402344,-6.160157 c 0,-0.539062 -0.05078,-1.09375 -0.07031,-1.632812 h 1.40625 l 0.05469,1.304687 h 0.03125 c 0.382812,-0.695312 1.042968,-1.425781 2.328124,-1.425781 1.820313,0 3.050782,1.492187 3.050782,4.546875 0,3.054688 -1.230469,4.546875 -3.050782,4.546875 -1.007812,0 -1.664062,-0.398437 -2.257812,-1.335937 h -0.03516 v 4.960937 H 72.382812 V 33.863281"
       id="path86" />
    <path
       style="fill:#ffffff;fill-opacity:1;fill-rule:nonzero;stroke:none"
       d="m 81.175781,28.066406 h 1.460938 V 41.082031 H 81.175781 V 28.066406"
       id="path88" />
    <path
       style="fill:#ffffff;fill-opacity:1;fill-rule:nonzero;stroke:none"
       d="m 85.203125,32.230469 h 1.457031 v 8.851562 h -1.457031 z m 1.523437,-3.644531 v 1.738281 h -1.59375 v -1.738281 h 1.59375"
       id="path90" />
    <path
       style="fill:#ffffff;fill-opacity:1;fill-rule:nonzero;stroke:none"
       d="m 93.71875,35.980469 c 0,-1.839844 -0.574219,-2.757813 -1.734375,-2.757813 -0.9375,0 -1.769531,0.691406 -1.804687,2.757813 z m -3.539062,1.109375 c 0,2.046875 0.796874,3.003906 2.414062,3.003906 0.726562,0 1.523438,-0.367188 2.027344,-0.730469 l 0.07031,1.320313 c -0.695312,0.328125 -1.597656,0.519531 -2.480468,0.519531 -2.34375,0 -3.558594,-1.769531 -3.558594,-4.546875 0,-2.777344 1.214844,-4.546875 3.417968,-4.546875 1.996094,0 3.105469,1.597656 3.105469,4.199219 v 0.78125 h -4.996093"
       id="path92" />
    <path
       style="fill:#ffffff;fill-opacity:1;fill-rule:nonzero;stroke:none"
       d="m 99.925781,33.289062 c -1.332031,0 -1.941406,1.148438 -1.941406,3.367188 0,2.222656 0.609375,3.367188 1.941406,3.367188 1.335939,0 1.945309,-1.144532 1.945309,-3.367188 0,-2.21875 -0.60937,-3.367188 -1.945309,-3.367188 z m 3.402349,6.160157 c 0,0.539062 0.0547,1.09375 0.0703,1.632812 h -1.40625 l -0.0508,-1.300781 h -0.0352 c -0.38281,0.691406 -1.04297,1.421875 -2.324219,1.421875 -1.824219,0 -3.054687,-1.492187 -3.054687,-4.546875 0,-3.054688 1.230468,-4.546875 3.054687,-4.546875 1.003909,0 1.664059,0.398437 2.253909,1.335937 h 0.0352 v -5.378906 h 1.45704 v 11.382813"
       id="path94" />
    <path
       style="fill:#ffffff;fill-opacity:1;fill-rule:nonzero;stroke:none"
       d="m 115.08984,30.722656 c -0.57421,-0.347656 -1.32031,-0.554687 -2.0664,-0.554687 -1.14453,0 -1.89063,0.78125 -1.89063,1.804687 0,0.78125 0.3086,1.265625 2.04688,2.269532 1.875,1.078124 2.5,2.136718 2.5,3.523437 0,1.925781 -1.19922,3.4375 -3.52344,3.4375 -0.97266,0 -1.89062,-0.207031 -2.53516,-0.519531 v -1.582032 c 0.69532,0.417969 1.59766,0.78125 2.3086,0.78125 1.37109,0 2.15234,-0.917968 2.15234,-1.90625 0,-0.9375 -0.24219,-1.476562 -1.875,-2.464843 -2.1875,-1.320313 -2.67187,-2.066407 -2.67187,-3.628907 0,-1.992187 1.52734,-3.035156 3.36718,-3.035156 0.79688,0 1.64844,0.175782 2.1875,0.398438 v 1.476562"
       id="path96" />
    <path
       style="fill:#ffffff;fill-opacity:1;fill-rule:nonzero;stroke:none"
       d="m 120.46484,42.886719 c -0.43359,1.507812 -1.05859,2.046875 -2.16796,2.046875 -0.35157,0 -0.73047,-0.03516 -0.99219,-0.105469 l 0.0703,-1.316406 c 0.22656,0.101562 0.48438,0.171875 0.80078,0.171875 0.41406,0 0.72656,-0.191406 0.96875,-1.109375 l 0.34766,-1.355469 -2.79297,-8.988281 h 1.52734 l 1.97657,7.21875 h 0.0352 l 1.83985,-7.21875 h 1.45703 l -3.07032,10.65625"
       id="path98" />
    <path
       style="fill:#ffffff;fill-opacity:1;fill-rule:nonzero;stroke:none"
       d="m 124.53906,39.363281 c 0.66016,0.398438 1.35157,0.660157 2.08203,0.660157 1.10938,0 1.6836,-0.574219 1.6836,-1.25 0,-0.605469 -0.3125,-1.023438 -1.12891,-1.386719 l -0.97265,-0.433594 c -1.26563,-0.574219 -1.73438,-1.144531 -1.73438,-2.273437 0,-1.457032 1.12891,-2.570313 2.84375,-2.570313 0.73047,0 1.37109,0.121094 1.875,0.3125 l -0.0703,1.25 c -0.44922,-0.207031 -1.07422,-0.382813 -1.73438,-0.382813 -0.95312,0 -1.45703,0.523438 -1.45703,1.214844 0,0.710938 0.52344,1.109375 1.49219,1.492188 l 0.51953,0.210937 c 1.07812,0.433594 1.75391,1.160157 1.75391,2.253907 0,1.527343 -0.81641,2.742187 -2.84375,2.742187 -0.92188,0 -1.75391,-0.191406 -2.39453,-0.519531 l 0.0859,-1.320313"
       id="path100" />
    <path
       style="fill:#ffffff;fill-opacity:1;fill-rule:nonzero;stroke:none"
       d="m 135.41406,40.976562 c -0.34765,0.121094 -0.83203,0.226563 -1.23047,0.226563 -1.33593,0 -2.04687,-0.539063 -2.04687,-2.101563 v -5.691406 h -1.40625 v -1.179687 h 1.40625 v -1.804688 l 1.45703,-0.433593 v 2.238281 h 1.82031 v 1.179687 h -1.82031 v 5.222656 c 0,1.007813 0.25781,1.390626 0.91797,1.390626 0.36719,0 0.625,-0.105469 0.90234,-0.226563 v 1.179687"
       id="path102" />
    <path
       style="fill:#ffffff;fill-opacity:1;fill-rule:nonzero;stroke:none"
       d="m 141.45312,35.980469 c 0,-1.839844 -0.57421,-2.757813 -1.73437,-2.757813 -0.94141,0 -1.77344,0.691406 -1.80859,2.757813 z m -3.54296,1.109375 c 0,2.046875 0.80078,3.003906 2.41406,3.003906 0.73047,0 1.52734,-0.367188 2.03125,-0.730469 l 0.0664,1.320313 c -0.6914,0.328125 -1.59375,0.519531 -2.48046,0.519531 -2.34375,0 -3.55469,-1.769531 -3.55469,-4.546875 0,-2.777344 1.21094,-4.546875 3.41797,-4.546875 1.99609,0 3.10547,1.597656 3.10547,4.199219 v 0.78125 h -5"
       id="path104" />
    <path
       style="fill:#ffffff;fill-opacity:1;fill-rule:nonzero;stroke:none"
       d="m 144.69141,34.140625 c 0,-0.640625 -0.0508,-1.285156 -0.0664,-1.910156 h 1.40234 l 0.0547,1.320312 h 0.0352 c 0.46875,-1.007812 1.21484,-1.441406 2.1875,-1.441406 0.93359,0 1.6289,0.488281 2.08203,1.390625 0.46484,-0.871094 1.14453,-1.390625 2.14844,-1.390625 1.52734,0 2.57031,0.886719 2.57031,2.828125 v 6.144531 h -1.46094 v -6.074219 c 0,-1.128906 -0.48437,-1.648437 -1.35156,-1.648437 -1.07422,0 -1.66406,0.660156 -1.66406,2.253906 v 5.46875 h -1.45704 v -6.074219 c 0,-1.128906 -0.48828,-1.648437 -1.35546,-1.648437 -1.07422,0 -1.66407,0.660156 -1.66407,2.253906 v 5.46875 h -1.46093 v -6.941406"
       id="path106" />
    <path
       style="fill:#ffffff;fill-opacity:1;fill-rule:nonzero;stroke:none"
       d="m 157.00781,39.363281 c 0.66016,0.398438 1.35547,0.660157 2.08203,0.660157 1.10938,0 1.6836,-0.574219 1.6836,-1.25 0,-0.605469 -0.3125,-1.023438 -1.12891,-1.386719 l -0.96875,-0.433594 c -1.26953,-0.574219 -1.73828,-1.144531 -1.73828,-2.273437 0,-1.457032 1.12891,-2.570313 2.84766,-2.570313 0.72656,0 1.37109,0.121094 1.875,0.3125 l -0.0703,1.25 c -0.45312,-0.207031 -1.07812,-0.382813 -1.73437,-0.382813 -0.95703,0 -1.46094,0.523438 -1.46094,1.214844 0,0.710938 0.52344,1.109375 1.49219,1.492188 l 0.51953,0.210937 c 1.07812,0.433594 1.75391,1.160157 1.75391,2.253907 0,1.527343 -0.8125,2.742187 -2.84375,2.742187 -0.92188,0 -1.75391,-0.191406 -2.39454,-0.519531 l 0.0859,-1.320313"
       id="path108" />
    <path
       style="fill:#ffffff;fill-opacity:1;fill-rule:nonzero;stroke:none"
       d="m 173.15625,36.605469 -1.85156,-6.039063 h -0.0391 l -1.90625,6.039063 z m -0.98438,-7.636719 3.95704,12.113281 h -1.59766 l -0.97266,-3.160156 h -4.61718 l -0.96875,3.160156 h -1.52735 l 4.0586,-12.113281 h 1.66796"
       id="path110" />
    <path
       style="fill:#ffffff;fill-opacity:1;fill-rule:nonzero;stroke:none"
       d="m 177.49219,34.140625 c 0,-0.640625 -0.0508,-1.285156 -0.0664,-1.910156 h 1.40234 l 0.0547,1.320312 h 0.0312 c 0.47266,-1.007812 1.21875,-1.441406 2.23828,-1.441406 1.54688,0 2.58594,0.886719 2.58594,2.828125 v 6.144531 h -1.45703 v -5.710937 c 0,-1.402344 -0.51953,-2.011719 -1.45703,-2.011719 -1.14453,0 -1.875,0.796875 -1.875,2.394531 v 5.328125 h -1.45703 v -6.941406"
       id="path112" />
    <path
       style="fill:#ffffff;fill-opacity:1;fill-rule:nonzero;stroke:none"
       d="m 190.60547,36.742188 c -0.25781,-0.03516 -0.625,-0.03516 -1.01953,-0.03516 -1.71875,0 -2.53516,0.816407 -2.53516,1.839844 0,0.9375 0.48438,1.546875 1.49219,1.546875 1.26562,0 2.0625,-1.023438 2.0625,-2.238281 z M 186.375,32.839844 c 0.72656,-0.46875 1.63281,-0.730469 2.49609,-0.730469 1.30469,0 2.08594,0.554687 2.35938,0.832031 0.38281,0.382813 0.76562,0.921875 0.76562,2.171875 v 4.613281 c 0,0.523438 0.0352,1.042969 0.0703,1.355469 h -1.32032 l -0.0859,-1.199219 h -0.0352 c -0.39844,0.675782 -1.12891,1.320313 -2.48047,1.320313 -1.45703,0 -2.55078,-0.851563 -2.55078,-2.550781 0,-1.71875 1.12891,-2.984375 4.16406,-2.984375 h 0.84766 v -0.398438 c 0,-0.660156 -0.0508,-1.042969 -0.32813,-1.425781 -0.29687,-0.398438 -0.86718,-0.554688 -1.47265,-0.554688 -0.90235,0 -1.77344,0.367188 -2.27344,0.921876 L 186.375,32.839844"
       id="path114" />
    <path
       style="fill:#ffffff;fill-opacity:1;fill-rule:nonzero;stroke:none"
       d="m 194.37109,28.066406 h 1.45703 v 13.015625 h -1.45703 V 28.066406"
       id="path116" />
    <path
       style="fill:#ffffff;fill-opacity:1;fill-rule:nonzero;stroke:none"
       d="m 201.03125,42.886719 c -0.43359,1.507812 -1.05859,2.046875 -2.16797,2.046875 -0.34766,0 -0.73047,-0.03516 -0.98828,-0.105469 l 0.0664,-1.316406 c 0.22656,0.101562 0.48828,0.171875 0.79687,0.171875 0.41797,0 0.73047,-0.191406 0.97656,-1.109375 l 0.34375,-1.355469 -2.79297,-8.988281 h 1.52735 l 1.97656,7.21875 h 0.0352 l 1.83984,-7.21875 h 1.45703 l -3.07031,10.65625"
       id="path118" />
    <path
       style="fill:#ffffff;fill-opacity:1;fill-rule:nonzero;stroke:none"
       d="m 205.10547,39.363281 c 0.66015,0.398438 1.35547,0.660157 2.08203,0.660157 1.11328,0 1.68359,-0.574219 1.68359,-1.25 0,-0.605469 -0.3125,-1.023438 -1.1289,-1.386719 l -0.97266,-0.433594 c -1.26172,-0.574219 -1.73437,-1.144531 -1.73437,-2.273437 0,-1.457032 1.1289,-2.570313 2.84765,-2.570313 0.72656,0 1.3711,0.121094 1.875,0.3125 l -0.0703,1.25 c -0.45313,-0.207031 -1.07813,-0.382813 -1.73828,-0.382813 -0.95313,0 -1.45703,0.523438 -1.45703,1.214844 0,0.710938 0.52343,1.109375 1.49218,1.492188 l 0.52344,0.210937 c 1.07422,0.433594 1.75391,1.160157 1.75391,2.253907 0,1.527343 -0.81641,2.742187 -2.84766,2.742187 -0.92187,0 -1.7539,-0.191406 -2.39453,-0.519531 l 0.0859,-1.320313"
       id="path120" />
    <path
       style="fill:#ffffff;fill-opacity:1;fill-rule:nonzero;stroke:none"
       d="m 212.21875,32.230469 h 1.45703 v 8.851562 h -1.45703 z m 1.52734,-3.644531 v 1.738281 h -1.59765 v -1.738281 h 1.59765"
       id="path122" />
    <path
       style="fill:#ffffff;fill-opacity:1;fill-rule:nonzero;stroke:none"
       d="m 215.71875,39.363281 c 0.66016,0.398438 1.35547,0.660157 2.08594,0.660157 1.10937,0 1.67968,-0.574219 1.67968,-1.25 0,-0.605469 -0.3125,-1.023438 -1.125,-1.386719 l -0.97265,-0.433594 c -1.26563,-0.574219 -1.73438,-1.144531 -1.73438,-2.273437 0,-1.457032 1.125,-2.570313 2.84375,-2.570313 0.73047,0 1.3711,0.121094 1.875,0.3125 l -0.0703,1.25 c -0.44922,-0.207031 -1.07422,-0.382813 -1.73437,-0.382813 -0.95313,0 -1.45704,0.523438 -1.45704,1.214844 0,0.710938 0.52344,1.109375 1.49219,1.492188 l 0.51953,0.210937 c 1.07422,0.433594 1.75391,1.160157 1.75391,2.253907 0,1.527343 -0.81641,2.742187 -2.84766,2.742187 -0.91797,0 -1.75,-0.191406 -2.39062,-0.519531 l 0.082,-1.320313"
       id="path124" />
    <path
       style="fill:#ffffff;fill-opacity:1;fill-rule:nonzero;stroke:none"
       d="m 25.816406,8.214844 c -6.761718,0 -12.632812,3.816406 -15.589844,9.410156 L 41.398438,17.6172 C 38.445312,12.03125 32.578125,8.21875 25.816406,8.214844"
       id="path126" />
    <path
       style="fill:#ffffff;fill-opacity:1;fill-rule:nonzero;stroke:none"
       d="M 43.421875,25.140625 C 43.371094,23.839844 43.1875,22.585938 42.875,21.375 l -32.636719,-3.75 c -1.296875,2.453125 -2.035156,5.253906 -2.035156,8.222656 0,1.53125 0.195313,3.019532 0.5625,4.441406 l 16.351563,1.894532 0.0039,-7.042969 h 18.300781"
       id="path128" />
    <path
       style="fill:#ffffff;fill-opacity:1;fill-rule:nonzero;stroke:none"
       d="m 10.226562,34.066406 c 2.855469,5.390625 8.421876,9.121094 14.878907,9.371094 v -9.375 l -14.878907,0.0039"
       id="path130" />
    <path
       style="fill:#ffffff;fill-opacity:1;fill-rule:nonzero;stroke:none"
       d="m 41.410156,34.058594 c 1.1875,-2.257813 1.902344,-4.804688 2.011719,-7.511719 H 26.527344 v 5.792969 l 14.882812,1.71875"
       id="path132" />
    <path
       style="fill:#ffffff;fill-opacity:1;fill-rule:nonzero;stroke:none"
       d="m 41.410156,34.058594 -14.882812,0.0039 v 9.375 c 6.460937,-0.25 12.027344,-3.980469 14.882812,-9.378906"
       id="path134" />
    <path
       style="fill:#ffffff;fill-opacity:1;fill-rule:nonzero;stroke:none"
       d="M 2.015625,44.4375 H 0.777344 V 0.789062 H 43.421875 V 2.03125 H 2.015625 V 44.4375"
       id="path136" />
    <path
       style="fill:#ffffff;fill-opacity:1;fill-rule:nonzero;stroke:none"
       d="M 0.828125,50.453125 H 2.066406 V 62.621094 H 0.828125 V 50.453125"
       id="path138" />
    <path
       style="fill:#ffffff;fill-opacity:1;fill-rule:nonzero;stroke:none"
       d="m 10.878906,50.453125 h 1.242188 V 62.621094 H 10.878906 V 50.453125"
       id="path140" />
    <path
       style="fill:#ffffff;fill-opacity:1;fill-rule:nonzero;stroke:none"
       d="m 22.246094,58.46875 -0.675782,-5.101562 h -0.02734 l -0.679688,5.101562 z m -1.324219,-8.085938 h 1.28125 l 1.804687,12.238282 H 22.8125 l -0.347656,-2.695313 h -1.789063 l -0.375,2.695313 h -1.199219 l 1.820313,-12.238282"
       id="path142" />
    <path
       style="fill:#ffffff;fill-opacity:1;fill-rule:nonzero;stroke:none"
       d="m 30.03125,60.691406 c 0.34375,0.421875 0.71875,0.675782 1.082031,0.675782 0.519531,0 0.9375,-0.53125 0.9375,-1.1875 0,-1.875 -2.078125,-4.605469 -2.078125,-7.101563 0,-1.644531 0.808594,-2.789063 1.960938,-2.789063 0.347656,0 0.636718,0.09375 1.039062,0.328126 v 1.472656 c -0.375,-0.269532 -0.578125,-0.378906 -0.863281,-0.378906 -0.605469,0 -0.941406,0.378906 -0.941406,1.164062 0,1.929688 2.078125,4.554688 2.078125,7.105469 0,1.65625 -0.804688,2.808593 -1.988282,2.808593 -0.433593,0 -0.808593,-0.148437 -1.226562,-0.476562 v -1.621094"
       id="path144" />
    <path
       style="fill:#ffffff;fill-opacity:1;fill-rule:nonzero;stroke:none"
       d="m 42.355469,58.46875 -0.679688,-5.101562 h -0.02344 L 40.96875,58.46875 Z M 41.027344,50.382812 H 42.3125 l 1.804688,12.238282 h -1.199219 l -0.34375,-2.695313 H 40.78125 l -0.375,2.695313 h -1.195312 l 1.816406,-12.238282"
       id="path146" />
  </g>
  <path
     d="m 28.023185,150.04208 c 0.252605,0 0.504428,0.25261 0.504428,0.5045 v 24.23547 c 0,0.25384 -0.251823,0.50594 -0.504428,0.50594 h -2.693113 c -0.252575,0 -0.504432,-0.2521 -0.504432,-0.50594 V 156.5642 h -0.126289 c 0,0 -0.547563,1.43022 -1.473246,2.73474 L 14.264183,172.0901 5.3015052,159.29894 C 4.3758328,157.99442 3.8290524,156.5642 3.8290524,156.5642 H 3.702744 v 18.21785 c 0,0.25384 -0.252583,0.50594 -0.5044031,0.50594 H 0.50521573 C 0.25260594,175.28799 0,175.03589 0,174.78205 v -24.23547 c 0,-0.25189 0.25260594,-0.5045 0.50521573,-0.5045 H 2.2302784 c 0.2941836,0 0.5891565,0.12551 0.7994015,0.42047 l 11.1921481,15.90513 h 0.0842 l 11.192069,-15.90513 c 0.210998,-0.29485 0.505215,-0.42047 0.799389,-0.42047 z"
     style="fill:#ffffff;fill-opacity:1;fill-rule:nonzero;stroke:none;stroke-width:0.784484"
     id="path73" />
  <path
     d="m 39.473384,163.84258 v 8.24703 h 15.988473 c 0.252587,0 0.589925,0.33598 0.589925,0.58845 v 2.02019 c 0,0.25246 -0.337338,0.58968 -0.589925,0.58968 H 36.275856 c -0.253412,0 -0.505209,-0.2523 -0.505209,-0.50502 v -24.23653 c 0,-0.25191 0.251797,-0.50444 0.505209,-0.50444 h 18.765533 c 0.252568,0 0.589107,0.33575 0.589107,0.58915 v 2.01833 c 0,0.25265 -0.336539,0.59016 -0.589107,0.59016 H 39.473384 v 7.40535 h 14.305757 c 0.252606,0 0.589129,0.33713 0.589129,0.58926 v 2.0199 c 0,0.25113 -0.336523,0.58849 -0.589129,0.58849 z"
     style="fill:#ffffff;fill-opacity:1;fill-rule:nonzero;stroke:none;stroke-width:0.784484"
     id="path77" />
  <path
     d="m 62.955771,166.78839 c 0.46285,0 0.589183,0.21022 0.589183,0.58866 0,3.11438 2.187868,5.13348 7.909876,5.13348 5.218331,0 7.069734,-2.1879 7.069734,-4.83871 0,-1.51476 -0.884113,-3.11348 -4.291907,-3.3669 l -7.026588,-0.50275 c -5.092054,-0.42136 -7.363876,-2.69393 -7.363876,-6.22888 0,-3.82829 3.323812,-7.95219 10.68776,-7.95219 7.825903,0 10.645328,3.57638 10.645328,7.91132 0,0.20956 -0.168515,0.42053 -0.631459,0.42053 h -2.482113 c -0.421258,0 -0.589135,-0.12623 -0.631512,-0.71616 -0.210143,-2.18795 -1.977655,-4.41817 -6.900244,-4.41817 -4.334281,0 -6.984999,2.06236 -6.984999,4.75467 0,1.5149 1.010371,2.81966 3.996892,3.03052 l 6.901048,0.50443 c 5.764362,0.4629 7.783634,3.28142 7.783634,6.56358 0,3.40866 -2.861009,8.03707 -10.771698,8.03707 -7.698917,0 -11.612637,-3.61863 -11.612637,-8.03707 v -0.41946 c 0,-0.29484 0.126287,-0.46397 0.505186,-0.46397 z"
     style="fill:#ffffff;fill-opacity:1;fill-rule:nonzero;stroke:none;stroke-width:0.784484"
     id="path81" />
  <path
     d="m 89.551779,166.78839 c 0.462852,0 0.589171,0.21022 0.589171,0.58866 0,3.11438 2.187872,5.13348 7.909906,5.13348 5.218374,0 7.069694,-2.1879 7.069694,-4.83871 0,-1.51476 -0.88398,-3.11348 -4.29191,-3.3669 l -7.026522,-0.50275 c -5.092053,-0.42136 -7.363914,-2.69393 -7.363914,-6.22888 0,-3.82829 3.323832,-7.95219 10.687745,-7.95219 7.826131,0 10.645381,3.57638 10.645381,7.91132 0,0.20956 -0.16873,0.42053 -0.63141,0.42053 h -2.4821 c -0.42125,0 -0.58936,-0.12623 -0.63161,-0.71616 -0.21011,-2.18795 -1.97755,-4.41817 -6.900261,-4.41817 -4.334268,0 -6.984999,2.06236 -6.984999,4.75467 0,1.5149 1.010381,2.81966 3.996906,3.03052 l 6.901084,0.50443 c 5.76431,0.4629 7.78365,3.28142 7.78365,6.56358 0,3.40866 -2.86091,8.03707 -10.771734,8.03707 -7.698893,0 -11.612652,-3.61863 -11.612652,-8.03707 v -0.41946 c 0,-0.29484 0.126315,-0.46397 0.505175,-0.46397 z"
     style="fill:#ffffff;fill-opacity:1;fill-rule:nonzero;stroke:none;stroke-width:0.784484"
     id="path85" />
  <path
     d="m 119.26161,166.87243 h 10.81387 l -3.36609,-6.73242 c -0.63155,-1.26225 -1.8938,-4.62767 -1.8938,-4.62767 h -0.25179 c 0,0 -1.2632,3.36542 -1.89378,4.62767 z m 12.41277,3.19834 h -14.01163 l -2.31422,4.66999 c -0.29414,0.5473 -0.37885,0.5473 -0.88343,0.5473 h -2.73516 c -0.25217,0 -0.37842,-0.1684 -0.37842,-0.29483 0,-0.12647 0.12625,-0.33737 0.21006,-0.50431 l 12.37059,-24.44675 h 1.51472 l 12.37058,24.44675 c 0.0826,0.16682 0.21015,0.37784 0.21015,0.50431 0,0.12655 -0.12631,0.29483 -0.3791,0.29483 h -2.73448 c -0.50533,0 -0.5891,0 -0.88335,-0.5473 z"
     style="fill:#ffffff;fill-opacity:1;fill-rule:nonzero;stroke:none;stroke-width:0.784484"
     id="path89" />
  <path
     d="m 174.68441,163.84258 v 8.24703 h 15.98845 c 0.2535,0 0.58981,0.33598 0.58981,0.58845 v 2.02019 c 0,0.25246 -0.33631,0.58968 -0.58981,0.58968 h -19.18585 c -0.25268,0 -0.50518,-0.2523 -0.50518,-0.50502 v -24.23653 c 0,-0.25191 0.2525,-0.50444 0.50518,-0.50444 h 18.76659 c 0.25165,0 0.58801,0.33575 0.58801,0.58915 v 2.01833 c 0,0.25265 -0.33636,0.59016 -0.58801,0.59016 h -15.56919 v 7.40535 h 14.30599 c 0.25238,0 0.58966,0.33713 0.58966,0.58926 v 2.0199 c 0,0.25113 -0.33728,0.58849 -0.58966,0.58849 z"
     style="fill:#ffffff;fill-opacity:1;fill-rule:nonzero;stroke:none;stroke-width:0.784484"
     id="path93" />
  <path
     d="m 152.14973,172.51024 c -5.21881,0 -9.54762,-3.70265 -9.54762,-9.84435 0,-6.22876 4.32881,-9.84752 9.54762,-9.84752 3.69433,0 6.83758,1.73982 8.42853,4.87005 0.11921,0.23533 0.3537,0.39072 0.6174,0.39072 h 2.34325 c 0.50754,0 0.83705,-0.52178 0.64016,-0.98927 -2.00195,-4.75476 -6.60679,-7.46823 -12.02934,-7.46823 -7.20155,0 -13.10838,4.88015 -13.10838,13.04425 0,8.16181 5.90683,13.04274 13.10838,13.04274 5.54329,0 10.27932,-2.86085 12.19639,-7.86436 0.17906,-0.46581 -0.14671,-0.97114 -0.64614,-0.97114 h -2.33785 c -0.27333,0 -0.51304,0.1653 -0.62781,0.41347 -1.54475,3.32692 -4.79386,5.22364 -8.58459,5.22364"
     style="fill:#ffffff;fill-opacity:1;fill-rule:nonzero;stroke:none;stroke-width:0.784484"
     id="path97" />
  <path
     d="M 167.62857,164.05436 H 153.4161 c -0.43274,0 -0.78431,-0.35142 -0.78431,-0.78468 v -1.58676 c 0,-0.43386 0.35157,-0.78454 0.78431,-0.78454 h 14.21247 c 0.43306,0 0.78453,0.35068 0.78453,0.78454 v 1.58676 c 0,0.43326 -0.35147,0.78468 -0.78453,0.78468"
     style="fill:#62c5c0;fill-opacity:1;fill-rule:nonzero;stroke:none;stroke-width:0.784484"
     id="path101" />
  <path
     id="path105"
     style="fill:#ffffff;fill-opacity:1;fill-rule:nonzero;stroke:none;stroke-width:0.784484"
     d="m 198.86606,149.33388 c -2.06145,0 -3.73204,1.67155 -3.73204,3.73232 v 19.19629 c 0,2.06171 1.67059,3.73239 3.73204,3.73239 h 19.19669 c 2.06157,0 3.73225,-1.67068 3.73225,-3.73239 V 153.0662 c 0,-2.06077 -1.67068,-3.73232 -3.73225,-3.73232 z m 6.57562,7.56129 h 3.65292 c 0.23156,0 0.32741,0.0392 0.50014,0.27011 l 2.09603,2.76829 h 0.0366 c 0,0 0.36593,-0.5958 0.59634,-0.9033 l 1.38438,-1.86499 c 0.17362,-0.23071 0.25016,-0.26897 0.48064,-0.26897 h 3.55796 c 0.0743,0 0.11568,0.0569 0.11568,0.11609 0,0.0381 -0.018,0.0952 -0.0747,0.17243 l -4.0572,5.46081 c 0,0 2.78766,3.69227 4.1724,5.51905 0.0558,0.076 0.0748,0.11563 0.0748,0.15396 0,0.0553 -0.0368,0.11518 -0.11504,0.11518 h -3.6345 c -0.23051,0 -0.34629,-0.0368 -0.49983,-0.22984 l -2.25007,-2.98225 h -0.037 c 0,0 -0.32697,0.57788 -0.51959,0.84693 l -1.50052,2.05797 c -0.15454,0.21111 -0.34503,0.30719 -0.59549,0.30719 h -3.53925 c -0.0739,0 -0.11484,-0.056 -0.11484,-0.11518 0,-0.0373 0.0187,-0.0751 0.0755,-0.15396 l 4.15299,-5.67324 -3.99916,-5.32617 c -0.0373,-0.057 -0.0747,-0.11636 -0.0747,-0.15397 0,-0.0591 0.0376,-0.11614 0.11623,-0.11614 z m -4.82784,7.6e-4 h 2.99841 c 0.11596,0 0.23217,0.11581 0.23217,0.23104 v 11.07555 c 0,0.11523 -0.11617,0.23086 -0.23217,0.23086 h -2.99841 c -0.1152,0 -0.23181,-0.1158 -0.23181,-0.23086 v -11.07556 c 0,-0.11546 0.11683,-0.23106 0.23181,-0.23106 z" />
  <path
     d="m 110.98123,138.69107 c -2.38874,0 -4.63373,-0.93048 -6.32345,-2.6194 L 56.535369,87.948552 68.381009,76.102888 67.820097,75.548296 c -0.753103,-0.744484 -1.167301,-1.738432 -1.167301,-2.796695 0,-2.169088 1.76507,-3.934162 3.934935,-3.934162 1.056697,0 2.050662,0.414212 2.795896,1.16808 l 0.554599,0.560126 12.473248,-12.473214 c -3.912989,8.215074 -3.468174,17.875158 1.3148,25.755243 l 0.50445,0.83155 0.705213,-0.668392 c 1.113962,-1.054326 2.566836,-1.635627 4.090267,-1.635627 3.285421,0 5.95816,2.672738 5.95816,5.957337 0,1.448927 -0.532703,2.84849 -1.498377,3.940461 -0.210171,0.236927 -0.413422,0.437756 -0.623667,0.615019 l -0.653461,0.549912 14.181921,14.181836 c -0.5069,0.8488 -0.77271,1.80666 -0.77271,2.80766 0,3.03513 2.46876,5.50469 5.50288,5.50469 1.00194,0 1.95985,-0.26594 2.8086,-0.7727 l 10.15433,10.15351 -10.77867,10.77874 c -1.68966,1.68892 -3.93502,2.6194 -6.32397,2.6194"
     style="fill:#00589d;fill-opacity:1;fill-rule:nonzero;stroke:none;stroke-width:0.784484"
     id="path193" />
  <path
     d="m 118.08768,113.07825 -0.54676,0.42755 c -0.70072,0.54756 -1.53676,0.83706 -2.41959,0.83706 -2.16973,0 -3.93471,-1.76509 -3.93471,-3.93499 0,-0.88176 0.28942,-1.71879 0.83769,-2.41853 l 0.42699,-0.54756 -13.15191,-13.151775 c 3.6353,1.727384 7.64103,2.63347 11.69121,2.63347 4.90283,0 9.70697,-1.318701 13.8937,-3.813359 l 0.7202,-0.429095 -0.47533,-0.690362 c -0.68723,-0.997074 -1.05059,-2.165144 -1.05059,-3.375604 0,-3.284601 2.67194,-5.956563 5.95678,-5.956563 1.19403,0 2.34622,0.351462 3.33069,1.016712 0.18926,0.12717 0.38296,0.280041 0.60993,0.48087 l 0.55185,0.488725 13.67907,-13.678992 c 0.99639,0.873935 2.27771,1.361874 3.62096,1.361874 3.0355,0 5.5043,-2.469537 5.5043,-5.504702 0,-1.343792 -0.48822,-2.624852 -1.36116,-3.621149 l 10.56623,-10.566148 10.77843,10.778731 c 3.48651,3.487021 3.48651,9.159605 0,12.646607 l -48.12289,48.12235 z"
     style="fill:#001e6b;fill-opacity:1;fill-rule:nonzero;stroke:none;stroke-width:0.784484"
     id="path201" />
  <path
     d="m 44.646883,76.06135 c -3.486218,-3.487028 -3.486218,-9.160392 0,-12.646599 l 48.123128,-48.123112 11.392309,11.392193 0.55203,-0.481649 c 0.71726,-0.625248 1.6335,-0.969609 2.57974,-0.969609 2.17036,0 3.93546,1.76506 3.93546,3.934924 0,0.94608 -0.34407,1.863121 -0.96975,2.580182 l -0.48138,0.55222 12.88256,12.882764 c -3.63105,-1.727434 -7.6203,-2.631151 -11.6816,-2.631151 -4.79297,0 -9.50631,1.264562 -13.628773,3.656453 l -0.768788,0.446362 0.538144,0.707629 c 0.796237,1.048081 1.217475,2.292229 1.217475,3.597606 0,3.284622 -2.672695,5.958113 -5.957312,5.958113 -1.329685,0 -2.589562,-0.433804 -3.645482,-1.254376 -0.193004,-0.14899 -0.378132,-0.305165 -0.551447,-0.476164 l -0.55469,-0.550707 -13.723661,13.723674 c -0.950805,-0.720927 -2.103957,-1.111611 -3.317586,-1.111611 -3.034339,0 -5.503088,2.468768 -5.503088,5.503131 0,1.214367 0.389878,2.367527 1.111596,3.318367 l -10.77012,10.7693 z"
     style="fill:#001e6b;fill-opacity:1;fill-rule:nonzero;stroke:none;stroke-width:0.784484"
     id="path209" />
  <path
     d="m 135.5416,81.411801 c 3.75125,-7.901314 3.47747,-17.277381 -0.84803,-24.978627 l -0.45919,-0.815869 -0.72315,0.594646 c -1.06057,0.87157 -2.40203,1.352449 -3.77794,1.352449 -3.2854,0 -5.95745,-2.673514 -5.95745,-5.958125 0,-1.442656 0.52863,-2.837499 1.48761,-3.928698 0.14795,-0.168775 0.30503,-0.326331 0.47148,-0.476163 l 0.61011,-0.553042 -14.45555,-14.456406 c 0.58983,-0.895067 0.9091,-1.946296 0.9091,-3.024956 0,-3.034396 -2.46962,-5.503127 -5.5044,-5.503127 -1.07893,0 -2.12905,0.319294 -3.02362,0.909224 L 93.879379,14.182693 104.65819,3.4039247 c 1.68901,-1.6890065 3.93395,-2.61860262 6.32273,-2.61860262 2.38889,0 4.63494,0.92959612 6.32371,2.61860262 l 48.12333,48.1223323 -11.73122,11.730321 0.6559,0.551501 c 0.89671,0.750751 1.41047,1.849803 1.41047,3.014744 0,2.170662 -1.76541,3.935738 -3.93525,3.935738 -1.16544,0 -2.26431,-0.513835 -3.01514,-1.410502 l -0.55069,-0.656594 z"
     style="fill:#00589d;fill-opacity:1;fill-rule:nonzero;stroke:none;stroke-width:0.784484"
     id="path217" />
  <path
     d="m 110.9913,95.774434 c -4.15757,0 -8.2637,-0.996289 -11.935791,-2.887649 0.855824,-1.259089 1.319531,-2.747258 1.319531,-4.278555 0,-4.208743 -3.424335,-7.632983 -7.634612,-7.632983 -1.627805,0 -3.191264,0.515392 -4.492704,1.468532 -4.397004,-7.846364 -4.435465,-17.367595 -0.09724,-25.245334 1.186141,0.719346 2.529942,1.096692 3.933401,1.096692 4.210295,0 7.634557,-3.42504 7.634557,-7.634555 0,-1.375975 -0.363988,-2.696264 -1.059071,-3.867488 3.769289,-2.026314 8.009299,-3.092423 12.318769,-3.092423 4.48176,0 8.8701,1.146894 12.7468,3.325417 -0.86053,1.262222 -1.3271,2.755107 -1.3271,4.291886 0,4.208748 3.4239,7.633764 7.63369,7.633764 1.44644,0 2.86393,-0.414989 4.07836,-1.18064 3.95144,7.632995 3.86587,16.827085 -0.23163,24.380076 -1.08619,-0.571129 -2.29524,-0.869219 -3.53935,-0.869219 -4.20859,0 -7.63306,3.425029 -7.63306,7.634573 0,1.266908 0.30997,2.496999 0.904,3.602314 -3.84338,2.131439 -8.18945,3.255592 -12.61778,3.255592 z"
     style="fill:#62c5c0;fill-opacity:1;fill-rule:nonzero;stroke:none;stroke-width:0.784484"
     id="path225" />
  <path
     id="path197-9"
     style="fill:#ffffff;fill-opacity:1;fill-rule:nonzero;stroke:none;stroke-width:0.784485"
     d="m 110.88574,0 c -2.48894,0 -4.97898,0.94909507 -6.87891,2.8491211 L 92.673337,14.182617 43.996582,62.859375 c -3.79845,3.79845 -3.79845,9.957906 0,13.756348 L 55.330078,87.949221 104.0083,136.62598 c 1.89836,1.89924 4.38856,2.84912 6.87744,2.84912 2.49021,0 4.97737,-0.94988 6.87744,-2.84912 l 11.3335,-11.3335 48.67676,-48.676757 c 3.79866,-3.798472 3.79866,-9.957901 0,-13.756348 L 166.44141,51.525879 h -10e-4 L 117.76318,2.8491211 C 115.86311,0.9498912 113.37518,0 110.88574,0 Z m 0,1.5688477 c 2.17933,0 4.22757,0.8484431 5.76855,2.3891601 l 47.56788,47.5678712 -10.57178,10.570312 -1.20996,1.211426 1.3125,1.101563 c 0.71786,0.600889 1.1294,1.480512 1.1294,2.414062 0,1.73684 -1.41323,3.150879 -3.15089,3.150879 -0.93273,0 -1.81176,-0.411585 -2.41406,-1.129395 l -1.10009,-1.313964 -1.2129,1.211425 -9.4541,9.457034 c 2.30027,-7.288589 1.54829,-15.353184 -2.26904,-22.149905 l -0.917,-1.6333 -1.44726,1.189453 c -0.93421,0.768011 -2.06854,1.174805 -3.27978,1.174805 -1.38247,0 -2.68117,-0.538654 -3.65772,-1.516114 -0.97748,-0.97668 -1.51464,-2.275445 -1.51465,-3.657715 0,-1.25203 0.45913,-2.463296 1.29199,-3.410156 0.12487,-0.14209 0.2613,-0.281897 0.40869,-0.416015 l 1.22022,-1.105958 -1.16455,-1.16455 -13.4458,-13.444336 c 0.46355,-0.88959 0.71192,-1.882337 0.71192,-2.897461 0,-3.467407 -2.82124,-6.288574 -6.28858,-6.288574 -1.01536,0 -2.00915,0.246856 -2.89892,0.710449 L 94.89258,14.182617 105.11719,3.9580078 c 1.54083,-1.540717 3.58945,-2.3891601 5.76855,-2.3891601 z m -18.212403,14.8315433 10.319823,10.319824 1.03565,1.035644 1.10449,-0.962402 c 0.575,-0.5013 1.30827,-0.776367 2.06543,-0.776367 1.73655,0 3.15088,1.412564 3.15088,3.149414 0,0.757005 -0.27619,1.490397 -0.77637,2.06543 l -0.96387,1.104492 1.03565,1.035644 9.70166,9.700196 c -2.72135,-0.86133 -5.57477,-1.305176 -8.46387,-1.305176 -4.93045,0 -9.77968,1.300766 -14.02295,3.761719 l -1.538085,0.89209 1.076662,1.415038 c 0.692693,0.909971 1.059083,1.990932 1.059083,3.124512 0,2.85237 -2.32146,5.172363 -5.17383,5.172363 -1.152405,0 -2.247,-0.376858 -3.164063,-1.088378 -0.196117,-0.153 -0.348772,-0.285101 -0.479002,-0.414551 l -1.10889,-1.101563 -1.10595,1.105958 -12.714848,12.714843 c -0.96336,-0.5774 -2.065872,-0.88623 -3.218262,-0.88623 -3.467412,0 -6.288573,2.821174 -6.288573,6.288574 0,1.15239 0.30672,2.256363 0.8833,3.219723 l -9.757324,9.75879 -10.223145,-10.223145 c -1.54152,-1.541452 -2.390625,-3.590746 -2.390625,-5.770017 0,-2.17929 0.849105,-4.227824 2.390625,-5.768554 z m 18.082033,15.862793 14.35694,14.355469 -10e-4,0.0015 z m 0.12451,11.072753 h 0.001 v 1.148438 c 4.07388,0 8.06635,0.9773 11.64697,2.838867 -0.66069,1.219858 -1.01221,2.591169 -1.01221,3.994629 -7.2e-4,2.2483 0.8761,4.36153 2.46533,5.951661 1.59039,1.590141 3.70385,2.466796 5.95313,2.466796 1.30308,0 2.58505,-0.305456 3.74121,-0.878906 3.35622,7.03363 3.26829,15.311143 -0.24316,22.267091 -1.00574,-0.412627 -2.08583,-0.626955 -3.1919,-0.626955 -2.24847,0 -4.36244,0.875168 -5.95166,2.465333 -1.58997,1.59012 -2.46533,3.704055 -2.46533,5.953125 0,1.132005 0.22406,2.236777 0.65771,3.26367 -3.56448,1.841955 -7.53955,2.811037 -11.58838,2.811037 -3.74985,0 -7.45674,-0.83544 -10.82226,-2.42871 0.64632,-1.209667 0.99024,-2.565855 0.99024,-3.953617 0,-4.641773 -3.775188,-8.418458 -8.416998,-8.418458 -1.493632,0 -2.93775,0.392775 -4.207027,1.129395 -3.74511,-7.232922 -3.770475,-15.802548 -0.06153,-23.056638 1.11945,0.53739 2.342347,0.815918 3.610845,0.815918 2.248327,0 4.3623,-0.875192 5.951655,-2.465331 1.590187,-1.590131 2.466805,-3.703331 2.466805,-5.951661 0,-1.23792 -0.26688,-2.435543 -0.780768,-3.536133 3.478428,-1.73139 7.338728,-2.641113 11.255858,-2.641113 z m 55.56153,10.40918 10.22314,10.223145 c 1.5408,1.5407 2.38916,3.590719 2.38916,5.77002 0,2.178471 -0.84836,4.226391 -2.38916,5.767089 l -47.56787,47.567869 -10.05908,-10.05908 -0.98145,-0.98144 -1.0957,0.85546 c -0.55982,0.43855 -1.22967,0.66944 -1.93506,0.66944 -1.73738,0 -3.15088,-1.41184 -3.15088,-3.14942 0,-0.70526 0.23242,-1.37562 0.6709,-1.93652 l 0.85547,-1.09424 -0.98145,-0.98144 -9.99902,-9.999027 c 2.7284,0.864473 5.59029,1.311038 8.47412,1.311038 5.04419,0 9.98614,-1.357493 14.29541,-3.924323 l 1.43994,-0.858397 -0.95068,-1.37988 c -0.59689,-0.866055 -0.9126,-1.878458 -0.9126,-2.929688 0,-1.382227 0.53879,-2.68026 1.51611,-3.657712 0.97689,-0.976703 2.27474,-1.516118 3.65625,-1.516118 1.03709,0 2.03762,0.30522 2.8916,0.881835 0.16089,0.10896 0.32809,0.24165 0.52881,0.41895 l 1.10596,0.977048 1.04297,-1.042965 12.66797,-12.667972 c 1.03639,0.71231 2.27087,1.103027 3.55664,1.103027 3.46725,0 6.28857,-2.821184 6.28857,-6.288574 0,-1.28578 -0.39154,-2.521119 -1.10302,-3.556641 z m -82.240725,7.55127 c -2.40915,7.58826 -1.486523,15.944356 2.758297,22.937986 l 1.009283,1.6626 1.410645,-1.3374 c 0.967245,-0.915502 2.229577,-1.419435 3.55224,-1.419435 2.852385,0 5.172367,2.319975 5.172367,5.17236 0,1.256715 -0.461392,2.471145 -1.300785,3.420413 -0.182827,0.206992 -0.36078,0.38247 -0.541987,0.534667 l -1.306643,1.101563 1.208498,1.207035 13.16748,13.167484 c -0.38985,0.82686 -0.59327,1.73022 -0.59327,2.66454 0,3.46741 2.82122,6.28711 6.28858,6.28711 0.93549,0 1.8362,-0.20185 2.66309,-0.59179 l 9.19043,9.18896 -10.22608,10.22461 c -1.54097,1.54068 -3.58915,2.38916 -5.76856,2.38916 -2.17908,0 -4.22626,-0.84848 -5.76708,-2.38916 L 57.547852,87.949221 68.282227,77.214846 69.396973,76.100098 68.276367,74.991211 c -0.60329,-0.59699 -0.936035,-1.393306 -0.936035,-2.239746 0,-1.73683 1.414029,-3.150879 3.150879,-3.150879 0.847268,0 1.642701,0.332795 2.239746,0.936035 l 1.108887,1.120605 1.114746,-1.114746 z m 5.050777,21.375001 c -0.02917,0.01913 -0.0549,0.04274 -0.08203,0.06446 v -0.0073 c 0.02718,-0.01925 0.05297,-0.04042 0.08203,-0.05713 z m 44.027348,0.105465 c 0.14841,0.0735 0.29445,0.152085 0.43652,0.235845 -0.002,0.004 -0.004,0.008 -0.006,0.01171 -0.13689,-0.0924 -0.28689,-0.165202 -0.43066,-0.24756 z m -44.978025,0.558105 v 0.08643 c -0.01256,-0.0206 -0.02269,-0.0423 -0.03516,-0.06299 0.01081,-0.009 0.02406,-0.01475 0.03516,-0.02344 z m 10.381342,8.485845 c -0.005,0.0094 -0.01203,0.01737 -0.01758,0.02636 h -0.0015 c 0.0062,-0.0089 0.01335,-0.01709 0.01904,-0.02636 z m 25.445803,0.172853 c 0.0862,0.147855 0.16252,0.30189 0.25928,0.44238 -0.004,0.002 -0.008,0.0039 -0.0117,0.0059 -0.088,-0.14598 -0.17033,-0.295477 -0.24755,-0.448237 z M 110.37451,109.604 c -0.0451,0.26079 -0.0674,0.5304 -0.0674,0.8042 0,0.16291 0.007,0.32327 0.0234,0.48194 -0.0161,-0.15867 -0.0249,-0.31903 -0.0249,-0.48194 0,-0.27378 0.0237,-0.54333 0.0688,-0.8042 z" />
  <rect
     style="fill:#ffffff;stroke:#ffffff;stroke-width:0.742927;stroke-opacity:1"
     id="rect3460-2"
     width="0.67870152"
     height="1.1641709"
     x="123.60985"
     y="91.354675" />
</svg>
