<?xml version="1.0" encoding="UTF-8" standalone="no"?>
<svg
   width="223.36pt"
   height="63.58pt"
   viewBox="0 0 223.36 63.58"
   version="1.2"
   id="svg149"
   xmlns="http://www.w3.org/2000/svg"
   xmlns:svg="http://www.w3.org/2000/svg">
  <defs
     id="defs153" />
  <g
     id="surface1861">
    <path
       style=" stroke:none;fill-rule:nonzero;fill:rgb(100%,100%,100%);fill-opacity:1;"
       d="M 82.664062 60.894531 L 84.039062 60.894531 L 84.039062 62.5 L 82.664062 62.5 L 82.664062 60.894531 "
       id="path2" />
    <path
       style=" stroke:none;fill-rule:nonzero;fill:rgb(100%,100%,100%);fill-opacity:1;"
       d="M 111.894531 60.894531 L 113.269531 60.894531 L 113.269531 62.5 L 111.894531 62.5 L 111.894531 60.894531 "
       id="path4" />
    <path
       style=" stroke:none;fill-rule:nonzero;fill:rgb(100%,100%,100%);fill-opacity:1;"
       d="M 127.96875 60.894531 L 129.34375 60.894531 L 129.34375 62.5 L 127.96875 62.5 L 127.96875 60.894531 "
       id="path6" />
    <path
       style=" stroke:none;fill-rule:nonzero;fill:rgb(100%,100%,100%);fill-opacity:1;"
       d="M 60.605469 62.6875 L 59.230469 62.6875 L 57.699219 56.511719 L 57.667969 56.511719 L 56.265625 62.6875 L 54.890625 62.6875 L 52.957031 55.378906 L 54.21875 55.378906 L 55.605469 61.484375 L 55.636719 61.484375 L 57.027344 55.378906 L 58.460938 55.378906 L 59.90625 61.484375 L 59.933594 61.484375 L 61.308594 55.378906 L 62.515625 55.378906 L 60.605469 62.6875 "
       id="path8" />
    <path
       style=" stroke:none;fill-rule:nonzero;fill:rgb(100%,100%,100%);fill-opacity:1;"
       d="M 70.566406 62.6875 L 69.191406 62.6875 L 67.65625 56.511719 L 67.628906 56.511719 L 66.222656 62.6875 L 64.847656 62.6875 L 62.914062 55.378906 L 64.175781 55.378906 L 65.566406 61.484375 L 65.59375 61.484375 L 66.984375 55.378906 L 68.414062 55.378906 L 69.863281 61.484375 L 69.894531 61.484375 L 71.269531 55.378906 L 72.46875 55.378906 L 70.566406 62.6875 "
       id="path10" />
    <path
       style=" stroke:none;fill-rule:nonzero;fill:rgb(100%,100%,100%);fill-opacity:1;"
       d="M 80.523438 62.6875 L 79.148438 62.6875 L 77.613281 56.511719 L 77.585938 56.511719 L 76.183594 62.6875 L 74.808594 62.6875 L 72.875 55.378906 L 74.132812 55.378906 L 75.523438 61.484375 L 75.550781 61.484375 L 76.941406 55.378906 L 78.375 55.378906 L 79.824219 61.484375 L 79.851562 61.484375 L 81.226562 55.378906 L 82.429688 55.378906 L 80.523438 62.6875 "
       id="path12" />
    <path
       style=" stroke:none;fill-rule:nonzero;fill:rgb(100%,100%,100%);fill-opacity:1;"
       d="M 86.214844 55.378906 L 87.414062 55.378906 L 87.414062 62.6875 L 86.214844 62.6875 Z M 87.472656 52.371094 L 87.472656 53.804688 L 86.15625 53.804688 L 86.15625 52.371094 L 87.472656 52.371094 "
       id="path14" />
    <path
       style=" stroke:none;fill-rule:nonzero;fill:rgb(100%,100%,100%);fill-opacity:1;"
       d="M 89.535156 55.378906 L 90.738281 55.378906 L 90.738281 62.6875 L 89.535156 62.6875 Z M 90.796875 52.371094 L 90.796875 53.804688 L 89.476562 53.804688 L 89.476562 52.371094 L 90.796875 52.371094 "
       id="path16" />
    <path
       style=" stroke:none;fill-rule:nonzero;fill:rgb(100%,100%,100%);fill-opacity:1;"
       d="M 96.53125 59.105469 C 96.316406 59.078125 96.011719 59.078125 95.683594 59.078125 C 94.265625 59.078125 93.59375 59.75 93.59375 60.59375 C 93.59375 61.367188 93.992188 61.871094 94.824219 61.871094 C 95.871094 61.871094 96.53125 61.023438 96.53125 60.023438 Z M 93.03125 55.882812 C 93.636719 55.496094 94.378906 55.28125 95.09375 55.28125 C 96.167969 55.28125 96.816406 55.738281 97.042969 55.96875 C 97.359375 56.28125 97.675781 56.726562 97.675781 57.757812 L 97.675781 61.570312 C 97.675781 62 97.703125 62.429688 97.730469 62.6875 L 96.644531 62.6875 L 96.574219 61.699219 L 96.542969 61.699219 C 96.214844 62.257812 95.609375 62.789062 94.496094 62.789062 C 93.289062 62.789062 92.386719 62.085938 92.386719 60.679688 C 92.386719 59.261719 93.320312 58.214844 95.828125 58.214844 L 96.53125 58.214844 L 96.53125 57.886719 C 96.53125 57.34375 96.484375 57.027344 96.257812 56.710938 C 96.011719 56.382812 95.539062 56.253906 95.039062 56.253906 C 94.292969 56.253906 93.578125 56.554688 93.160156 57.011719 L 93.03125 55.882812 "
       id="path18" />
    <path
       style=" stroke:none;fill-rule:nonzero;fill:rgb(100%,100%,100%);fill-opacity:1;"
       d="M 99.207031 61.269531 C 99.753906 61.597656 100.324219 61.8125 100.929688 61.8125 C 101.84375 61.8125 102.316406 61.339844 102.316406 60.78125 C 102.316406 60.28125 102.058594 59.9375 101.386719 59.636719 L 100.582031 59.277344 C 99.535156 58.804688 99.152344 58.332031 99.152344 57.398438 C 99.152344 56.195312 100.082031 55.28125 101.5 55.28125 C 102.101562 55.28125 102.632812 55.378906 103.050781 55.539062 L 102.988281 56.570312 C 102.617188 56.398438 102.101562 56.253906 101.558594 56.253906 C 100.769531 56.253906 100.351562 56.683594 100.351562 57.257812 C 100.351562 57.84375 100.78125 58.171875 101.585938 58.488281 L 102.015625 58.660156 C 102.902344 59.019531 103.464844 59.621094 103.464844 60.523438 C 103.464844 61.785156 102.789062 62.789062 101.113281 62.789062 C 100.351562 62.789062 99.664062 62.628906 99.136719 62.359375 L 99.207031 61.269531 "
       id="path20" />
    <path
       style=" stroke:none;fill-rule:nonzero;fill:rgb(100%,100%,100%);fill-opacity:1;"
       d="M 108.75 59.105469 C 108.535156 59.078125 108.234375 59.078125 107.902344 59.078125 C 106.484375 59.078125 105.8125 59.75 105.8125 60.59375 C 105.8125 61.367188 106.214844 61.871094 107.046875 61.871094 C 108.09375 61.871094 108.75 61.023438 108.75 60.023438 Z M 105.253906 55.882812 C 105.855469 55.496094 106.601562 55.28125 107.316406 55.28125 C 108.394531 55.28125 109.035156 55.738281 109.265625 55.96875 C 109.582031 56.28125 109.894531 56.726562 109.894531 57.757812 L 109.894531 61.570312 C 109.894531 62 109.925781 62.429688 109.953125 62.6875 L 108.863281 62.6875 L 108.792969 61.699219 L 108.765625 61.699219 C 108.4375 62.257812 107.835938 62.789062 106.714844 62.789062 C 105.511719 62.789062 104.609375 62.085938 104.609375 60.679688 C 104.609375 59.261719 105.539062 58.214844 108.050781 58.214844 L 108.75 58.214844 L 108.75 57.886719 C 108.75 57.34375 108.707031 57.027344 108.476562 56.710938 C 108.234375 56.382812 107.761719 56.253906 107.261719 56.253906 C 106.515625 56.253906 105.800781 56.554688 105.382812 57.011719 L 105.253906 55.882812 "
       id="path22" />
    <path
       style=" stroke:none;fill-rule:nonzero;fill:rgb(100%,100%,100%);fill-opacity:1;"
       d="M 119.109375 59.105469 C 118.894531 59.078125 118.59375 59.078125 118.265625 59.078125 C 116.84375 59.078125 116.171875 59.75 116.171875 60.59375 C 116.171875 61.367188 116.574219 61.871094 117.402344 61.871094 C 118.449219 61.871094 119.109375 61.023438 119.109375 60.023438 Z M 115.613281 55.882812 C 116.214844 55.496094 116.960938 55.28125 117.675781 55.28125 C 118.75 55.28125 119.394531 55.738281 119.625 55.96875 C 119.941406 56.28125 120.253906 56.726562 120.253906 57.757812 L 120.253906 61.570312 C 120.253906 62 120.28125 62.429688 120.3125 62.6875 L 119.222656 62.6875 L 119.152344 61.699219 L 119.125 61.699219 C 118.792969 62.257812 118.191406 62.789062 117.074219 62.789062 C 115.871094 62.789062 114.96875 62.085938 114.96875 60.679688 C 114.96875 59.261719 115.898438 58.214844 118.40625 58.214844 L 119.109375 58.214844 L 119.109375 57.886719 C 119.109375 57.34375 119.066406 57.027344 118.835938 56.710938 C 118.59375 56.382812 118.121094 56.253906 117.621094 56.253906 C 116.875 56.253906 116.15625 56.554688 115.742188 57.011719 L 115.613281 55.882812 "
       id="path24" />
    <path
       style=" stroke:none;fill-rule:nonzero;fill:rgb(100%,100%,100%);fill-opacity:1;"
       d="M 126.402344 56.65625 C 125.984375 56.425781 125.570312 56.3125 125.011719 56.3125 C 123.839844 56.3125 123.007812 57.128906 123.007812 59.105469 C 123.007812 60.796875 123.808594 61.753906 124.984375 61.753906 C 125.558594 61.753906 126.046875 61.582031 126.460938 61.367188 L 126.515625 62.472656 C 126.15625 62.628906 125.515625 62.789062 124.984375 62.789062 C 122.804688 62.789062 121.746094 61.167969 121.746094 59.105469 C 121.746094 56.742188 122.976562 55.28125 125.011719 55.28125 C 125.515625 55.28125 126.074219 55.378906 126.460938 55.566406 L 126.402344 56.65625 "
       id="path26" />
    <path
       style=" stroke:none;fill-rule:nonzero;fill:rgb(100%,100%,100%);fill-opacity:1;"
       d="M 135.1875 59.105469 C 134.96875 59.078125 134.671875 59.078125 134.339844 59.078125 C 132.921875 59.078125 132.25 59.75 132.25 60.59375 C 132.25 61.367188 132.648438 61.871094 133.480469 61.871094 C 134.523438 61.871094 135.1875 61.023438 135.1875 60.023438 Z M 131.691406 55.882812 C 132.289062 55.496094 133.035156 55.28125 133.753906 55.28125 C 134.828125 55.28125 135.472656 55.738281 135.703125 55.96875 C 136.015625 56.28125 136.332031 56.726562 136.332031 57.757812 L 136.332031 61.570312 C 136.332031 62 136.359375 62.429688 136.390625 62.6875 L 135.300781 62.6875 L 135.226562 61.699219 L 135.199219 61.699219 C 134.871094 62.257812 134.269531 62.789062 133.148438 62.789062 C 131.949219 62.789062 131.046875 62.085938 131.046875 60.679688 C 131.046875 59.261719 131.976562 58.214844 134.480469 58.214844 L 135.1875 58.214844 L 135.1875 57.886719 C 135.1875 57.34375 135.144531 57.027344 134.910156 56.710938 C 134.671875 56.382812 134.195312 56.253906 133.695312 56.253906 C 132.949219 56.253906 132.234375 56.554688 131.820312 57.011719 L 131.691406 55.882812 "
       id="path28" />
    <path
       style=" stroke:none;fill-rule:nonzero;fill:rgb(100%,100%,100%);fill-opacity:1;"
       d="M 141.402344 62.601562 C 141.117188 62.703125 140.714844 62.789062 140.386719 62.789062 C 139.28125 62.789062 138.695312 62.34375 138.695312 61.054688 L 138.695312 56.355469 L 137.535156 56.355469 L 137.535156 55.378906 L 138.695312 55.378906 L 138.695312 53.890625 L 139.898438 53.53125 L 139.898438 55.378906 L 141.402344 55.378906 L 141.402344 56.355469 L 139.898438 56.355469 L 139.898438 60.667969 C 139.898438 61.496094 140.113281 61.8125 140.65625 61.8125 C 140.960938 61.8125 141.175781 61.726562 141.402344 61.625 L 141.402344 62.601562 "
       id="path30" />
    <path
       style=" stroke:none;fill-rule:nonzero;fill:rgb(100%,100%,100%);fill-opacity:1;"
       d="M 53.957031 10.292969 L 55.484375 10.292969 L 55.484375 22.40625 L 53.957031 22.40625 L 53.957031 10.292969 "
       id="path32" />
    <path
       style=" stroke:none;fill-rule:nonzero;fill:rgb(100%,100%,100%);fill-opacity:1;"
       d="M 58.050781 15.464844 C 58.050781 14.824219 57.996094 14.179688 57.980469 13.554688 L 59.386719 13.554688 L 59.4375 14.875 L 59.472656 14.875 C 59.941406 13.867188 60.6875 13.433594 61.710938 13.433594 C 63.257812 13.433594 64.296875 14.320312 64.296875 16.261719 L 64.296875 22.40625 L 62.839844 22.40625 L 62.839844 16.695312 C 62.839844 15.292969 62.320312 14.683594 61.382812 14.683594 C 60.234375 14.683594 59.507812 15.480469 59.507812 17.078125 L 59.507812 22.40625 L 58.050781 22.40625 L 58.050781 15.464844 "
       id="path34" />
    <path
       style=" stroke:none;fill-rule:nonzero;fill:rgb(100%,100%,100%);fill-opacity:1;"
       d="M 70.488281 22.300781 C 70.140625 22.421875 69.65625 22.527344 69.257812 22.527344 C 67.921875 22.527344 67.210938 21.988281 67.210938 20.425781 L 67.210938 14.734375 L 65.804688 14.734375 L 65.804688 13.554688 L 67.210938 13.554688 L 67.210938 11.75 L 68.667969 11.316406 L 68.667969 13.554688 L 70.488281 13.554688 L 70.488281 14.734375 L 68.667969 14.734375 L 68.667969 19.957031 C 68.667969 20.964844 68.925781 21.347656 69.585938 21.347656 C 69.953125 21.347656 70.210938 21.242188 70.488281 21.121094 L 70.488281 22.300781 "
       id="path36" />
    <path
       style=" stroke:none;fill-rule:nonzero;fill:rgb(100%,100%,100%);fill-opacity:1;"
       d="M 76.523438 17.304688 C 76.523438 15.464844 75.953125 14.546875 74.789062 14.546875 C 73.851562 14.546875 73.019531 15.238281 72.984375 17.304688 Z M 72.984375 18.414062 C 72.984375 20.460938 73.785156 21.417969 75.398438 21.417969 C 76.125 21.417969 76.925781 21.050781 77.425781 20.6875 L 77.496094 22.007812 C 76.800781 22.335938 75.902344 22.527344 75.015625 22.527344 C 72.671875 22.527344 71.460938 20.757812 71.460938 17.980469 C 71.460938 15.203125 72.671875 13.433594 74.875 13.433594 C 76.871094 13.433594 77.980469 15.03125 77.980469 17.632812 L 77.980469 18.414062 L 72.984375 18.414062 "
       id="path38" />
    <path
       style=" stroke:none;fill-rule:nonzero;fill:rgb(100%,100%,100%);fill-opacity:1;"
       d="M 79.765625 15.464844 C 79.765625 14.824219 79.714844 14.179688 79.699219 13.554688 L 81.101562 13.554688 L 81.15625 14.945312 L 81.1875 14.945312 C 81.65625 13.867188 82.40625 13.433594 83.707031 13.433594 L 83.707031 14.875 C 83.53125 14.839844 83.339844 14.824219 83.152344 14.824219 C 82.023438 14.824219 81.222656 15.792969 81.222656 17.722656 L 81.222656 22.40625 L 79.765625 22.40625 L 79.765625 15.464844 "
       id="path40" />
    <path
       style=" stroke:none;fill-rule:nonzero;fill:rgb(100%,100%,100%);fill-opacity:1;"
       d="M 85.074219 15.464844 C 85.074219 14.824219 85.023438 14.179688 85.003906 13.554688 L 86.410156 13.554688 L 86.464844 14.875 L 86.496094 14.875 C 86.964844 13.867188 87.710938 13.433594 88.734375 13.433594 C 90.28125 13.433594 91.320312 14.320312 91.320312 16.261719 L 91.320312 22.40625 L 89.863281 22.40625 L 89.863281 16.695312 C 89.863281 15.292969 89.34375 14.683594 88.40625 14.683594 C 87.261719 14.683594 86.53125 15.480469 86.53125 17.078125 L 86.53125 22.40625 L 85.074219 22.40625 L 85.074219 15.464844 "
       id="path42" />
    <path
       style=" stroke:none;fill-rule:nonzero;fill:rgb(100%,100%,100%);fill-opacity:1;"
       d="M 98.1875 18.066406 C 97.929688 18.035156 97.5625 18.035156 97.164062 18.035156 C 95.449219 18.035156 94.632812 18.847656 94.632812 19.871094 C 94.632812 20.808594 95.117188 21.417969 96.125 21.417969 C 97.390625 21.417969 98.1875 20.394531 98.1875 19.179688 Z M 93.957031 14.164062 C 94.683594 13.695312 95.585938 13.433594 96.453125 13.433594 C 97.757812 13.433594 98.535156 13.988281 98.8125 14.265625 C 99.195312 14.648438 99.578125 15.1875 99.578125 16.4375 L 99.578125 21.050781 C 99.578125 21.570312 99.609375 22.09375 99.648438 22.40625 L 98.328125 22.40625 L 98.242188 21.207031 L 98.207031 21.207031 C 97.808594 21.882812 97.078125 22.527344 95.722656 22.527344 C 94.269531 22.527344 93.175781 21.675781 93.175781 19.976562 C 93.175781 18.257812 94.300781 16.992188 97.339844 16.992188 L 98.1875 16.992188 L 98.1875 16.59375 C 98.1875 15.933594 98.136719 15.550781 97.859375 15.167969 C 97.5625 14.769531 96.992188 14.613281 96.386719 14.613281 C 95.480469 14.613281 94.613281 14.980469 94.109375 15.535156 L 93.957031 14.164062 "
       id="path44" />
    <path
       style=" stroke:none;fill-rule:nonzero;fill:rgb(100%,100%,100%);fill-opacity:1;"
       d="M 105.71875 22.300781 C 105.367188 22.421875 104.882812 22.527344 104.484375 22.527344 C 103.148438 22.527344 102.4375 21.988281 102.4375 20.425781 L 102.4375 14.734375 L 101.03125 14.734375 L 101.03125 13.554688 L 102.4375 13.554688 L 102.4375 11.75 L 103.894531 11.316406 L 103.894531 13.554688 L 105.71875 13.554688 L 105.71875 14.734375 L 103.894531 14.734375 L 103.894531 19.957031 C 103.894531 20.964844 104.15625 21.347656 104.8125 21.347656 C 105.179688 21.347656 105.4375 21.242188 105.71875 21.121094 L 105.71875 22.300781 "
       id="path46" />
    <path
       style=" stroke:none;fill-rule:nonzero;fill:rgb(100%,100%,100%);fill-opacity:1;"
       d="M 107.257812 13.554688 L 108.71875 13.554688 L 108.71875 22.40625 L 107.257812 22.40625 Z M 108.785156 9.914062 L 108.785156 11.648438 L 107.1875 11.648438 L 107.1875 9.914062 L 108.785156 9.914062 "
       id="path48" />
    <path
       style=" stroke:none;fill-rule:nonzero;fill:rgb(100%,100%,100%);fill-opacity:1;"
       d="M 114.265625 21.347656 C 115.65625 21.347656 116.296875 20.203125 116.296875 17.980469 C 116.296875 15.761719 115.65625 14.613281 114.265625 14.613281 C 112.878906 14.613281 112.238281 15.761719 112.238281 17.980469 C 112.238281 20.203125 112.878906 21.347656 114.265625 21.347656 Z M 114.265625 13.433594 C 116.609375 13.433594 117.824219 15.203125 117.824219 17.980469 C 117.824219 20.757812 116.609375 22.527344 114.265625 22.527344 C 111.925781 22.527344 110.710938 20.757812 110.710938 17.980469 C 110.710938 15.203125 111.925781 13.433594 114.265625 13.433594 "
       id="path50" />
    <path
       style=" stroke:none;fill-rule:nonzero;fill:rgb(100%,100%,100%);fill-opacity:1;"
       d="M 119.679688 15.464844 C 119.679688 14.824219 119.625 14.179688 119.605469 13.554688 L 121.011719 13.554688 L 121.066406 14.875 L 121.101562 14.875 C 121.570312 13.867188 122.316406 13.433594 123.339844 13.433594 C 124.882812 13.433594 125.925781 14.320312 125.925781 16.261719 L 125.925781 22.40625 L 124.46875 22.40625 L 124.46875 16.695312 C 124.46875 15.292969 123.945312 14.683594 123.007812 14.683594 C 121.863281 14.683594 121.136719 15.480469 121.136719 17.078125 L 121.136719 22.40625 L 119.679688 22.40625 L 119.679688 15.464844 "
       id="path52" />
    <path
       style=" stroke:none;fill-rule:nonzero;fill:rgb(100%,100%,100%);fill-opacity:1;"
       d="M 132.792969 18.066406 C 132.53125 18.035156 132.167969 18.035156 131.769531 18.035156 C 130.050781 18.035156 129.234375 18.847656 129.234375 19.871094 C 129.234375 20.808594 129.71875 21.417969 130.726562 21.417969 C 131.992188 21.417969 132.792969 20.394531 132.792969 19.179688 Z M 128.558594 14.164062 C 129.289062 13.695312 130.191406 13.433594 131.054688 13.433594 C 132.359375 13.433594 133.140625 13.988281 133.417969 14.265625 C 133.800781 14.648438 134.179688 15.1875 134.179688 16.4375 L 134.179688 21.050781 C 134.179688 21.570312 134.214844 22.09375 134.25 22.40625 L 132.929688 22.40625 L 132.84375 21.207031 L 132.808594 21.207031 C 132.410156 21.882812 131.679688 22.527344 130.328125 22.527344 C 128.871094 22.527344 127.777344 21.675781 127.777344 19.976562 C 127.777344 18.257812 128.90625 16.992188 131.941406 16.992188 L 132.792969 16.992188 L 132.792969 16.59375 C 132.792969 15.933594 132.742188 15.550781 132.464844 15.167969 C 132.167969 14.769531 131.59375 14.613281 130.988281 14.613281 C 130.085938 14.613281 129.21875 14.980469 128.714844 15.535156 L 128.558594 14.164062 "
       id="path54" />
    <path
       style=" stroke:none;fill-rule:nonzero;fill:rgb(100%,100%,100%);fill-opacity:1;"
       d="M 136.554688 9.390625 L 138.011719 9.390625 L 138.011719 22.40625 L 136.554688 22.40625 L 136.554688 9.390625 "
       id="path56" />
    <path
       style=" stroke:none;fill-rule:nonzero;fill:rgb(100%,100%,100%);fill-opacity:1;"
       d="M 145.054688 10.292969 L 146.582031 10.292969 L 146.582031 22.40625 L 145.054688 22.40625 L 145.054688 10.292969 "
       id="path58" />
    <path
       style=" stroke:none;fill-rule:nonzero;fill:rgb(100%,100%,100%);fill-opacity:1;"
       d="M 149.144531 15.464844 C 149.144531 14.824219 149.09375 14.179688 149.078125 13.554688 L 150.484375 13.554688 L 150.535156 14.875 L 150.570312 14.875 C 151.035156 13.867188 151.785156 13.433594 152.808594 13.433594 C 154.351562 13.433594 155.390625 14.320312 155.390625 16.261719 L 155.390625 22.40625 L 153.933594 22.40625 L 153.933594 16.695312 C 153.933594 15.292969 153.414062 14.683594 152.476562 14.683594 C 151.332031 14.683594 150.601562 15.480469 150.601562 17.078125 L 150.601562 22.40625 L 149.144531 22.40625 L 149.144531 15.464844 "
       id="path60" />
    <path
       style=" stroke:none;fill-rule:nonzero;fill:rgb(100%,100%,100%);fill-opacity:1;"
       d="M 157.300781 20.6875 C 157.957031 21.085938 158.652344 21.347656 159.382812 21.347656 C 160.492188 21.347656 161.0625 20.773438 161.0625 20.097656 C 161.0625 19.492188 160.75 19.074219 159.9375 18.710938 L 158.964844 18.277344 C 157.699219 17.703125 157.230469 17.128906 157.230469 16.003906 C 157.230469 14.546875 158.355469 13.433594 160.074219 13.433594 C 160.804688 13.433594 161.445312 13.554688 161.949219 13.746094 L 161.878906 14.996094 C 161.429688 14.789062 160.804688 14.613281 160.144531 14.613281 C 159.1875 14.613281 158.6875 15.136719 158.6875 15.828125 C 158.6875 16.539062 159.207031 16.9375 160.179688 17.320312 L 160.699219 17.53125 C 161.773438 17.964844 162.453125 18.691406 162.453125 19.785156 C 162.453125 21.3125 161.636719 22.527344 159.605469 22.527344 C 158.6875 22.527344 157.851562 22.335938 157.214844 22.007812 L 157.300781 20.6875 "
       id="path62" />
    <path
       style=" stroke:none;fill-rule:nonzero;fill:rgb(100%,100%,100%);fill-opacity:1;"
       d="M 168.175781 22.300781 C 167.828125 22.421875 167.34375 22.527344 166.941406 22.527344 C 165.605469 22.527344 164.894531 21.988281 164.894531 20.425781 L 164.894531 14.734375 L 163.488281 14.734375 L 163.488281 13.554688 L 164.894531 13.554688 L 164.894531 11.75 L 166.351562 11.316406 L 166.351562 13.554688 L 168.175781 13.554688 L 168.175781 14.734375 L 166.351562 14.734375 L 166.351562 19.957031 C 166.351562 20.964844 166.613281 21.347656 167.273438 21.347656 C 167.636719 21.347656 167.898438 21.242188 168.175781 21.121094 L 168.175781 22.300781 "
       id="path64" />
    <path
       style=" stroke:none;fill-rule:nonzero;fill:rgb(100%,100%,100%);fill-opacity:1;"
       d="M 169.71875 13.554688 L 171.175781 13.554688 L 171.175781 22.40625 L 169.71875 22.40625 Z M 171.246094 9.914062 L 171.246094 11.648438 L 169.648438 11.648438 L 169.648438 9.914062 L 171.246094 9.914062 "
       id="path66" />
    <path
       style=" stroke:none;fill-rule:nonzero;fill:rgb(100%,100%,100%);fill-opacity:1;"
       d="M 177.507812 22.300781 C 177.160156 22.421875 176.675781 22.527344 176.273438 22.527344 C 174.9375 22.527344 174.226562 21.988281 174.226562 20.425781 L 174.226562 14.734375 L 172.820312 14.734375 L 172.820312 13.554688 L 174.226562 13.554688 L 174.226562 11.75 L 175.683594 11.316406 L 175.683594 13.554688 L 177.507812 13.554688 L 177.507812 14.734375 L 175.683594 14.734375 L 175.683594 19.957031 C 175.683594 20.964844 175.945312 21.347656 176.605469 21.347656 C 176.96875 21.347656 177.226562 21.242188 177.507812 21.121094 L 177.507812 22.300781 "
       id="path68" />
    <path
       style=" stroke:none;fill-rule:nonzero;fill:rgb(100%,100%,100%);fill-opacity:1;"
       d="M 185.15625 20.496094 C 185.15625 21.140625 185.210938 21.78125 185.226562 22.40625 L 183.820312 22.40625 L 183.769531 21.085938 L 183.734375 21.085938 C 183.265625 22.09375 182.519531 22.527344 181.496094 22.527344 C 179.953125 22.527344 178.910156 21.640625 178.910156 19.699219 L 178.910156 13.554688 L 180.367188 13.554688 L 180.367188 19.265625 C 180.367188 20.671875 180.886719 21.277344 181.824219 21.277344 C 182.96875 21.277344 183.699219 20.480469 183.699219 18.882812 L 183.699219 13.554688 L 185.15625 13.554688 L 185.15625 20.496094 "
       id="path70" />
    <path
       style=" stroke:none;fill-rule:nonzero;fill:rgb(100%,100%,100%);fill-opacity:1;"
       d="M 191.347656 22.300781 C 191.003906 22.421875 190.515625 22.527344 190.117188 22.527344 C 188.78125 22.527344 188.070312 21.988281 188.070312 20.425781 L 188.070312 14.734375 L 186.664062 14.734375 L 186.664062 13.554688 L 188.070312 13.554688 L 188.070312 11.75 L 189.527344 11.316406 L 189.527344 13.554688 L 191.347656 13.554688 L 191.347656 14.734375 L 189.527344 14.734375 L 189.527344 19.957031 C 189.527344 20.964844 189.785156 21.347656 190.445312 21.347656 C 190.808594 21.347656 191.070312 21.242188 191.347656 21.121094 L 191.347656 22.300781 "
       id="path72" />
    <path
       style=" stroke:none;fill-rule:nonzero;fill:rgb(100%,100%,100%);fill-opacity:1;"
       d="M 197.386719 17.304688 C 197.386719 15.464844 196.8125 14.546875 195.648438 14.546875 C 194.714844 14.546875 193.878906 15.238281 193.84375 17.304688 Z M 193.84375 18.414062 C 193.84375 20.460938 194.644531 21.417969 196.257812 21.417969 C 196.984375 21.417969 197.785156 21.050781 198.285156 20.6875 L 198.355469 22.007812 C 197.660156 22.335938 196.761719 22.527344 195.875 22.527344 C 193.53125 22.527344 192.316406 20.757812 192.316406 17.980469 C 192.316406 15.203125 193.53125 13.433594 195.738281 13.433594 C 197.730469 13.433594 198.84375 15.03125 198.84375 17.632812 L 198.84375 18.414062 L 193.84375 18.414062 "
       id="path74" />
    <path
       style=" stroke:none;fill-rule:nonzero;fill:rgb(100%,100%,100%);fill-opacity:1;"
       d="M 205.589844 14.734375 L 204.183594 14.734375 L 204.183594 13.554688 L 205.589844 13.554688 L 205.589844 11.578125 C 205.589844 10.136719 206.246094 9.183594 207.789062 9.183594 C 208.191406 9.183594 208.605469 9.234375 208.9375 9.320312 L 208.9375 10.570312 C 208.761719 10.433594 208.449219 10.363281 208.101562 10.363281 C 207.289062 10.363281 207.046875 10.816406 207.046875 11.699219 L 207.046875 13.554688 L 208.640625 13.554688 L 208.640625 14.734375 L 207.046875 14.734375 L 207.046875 22.40625 L 205.589844 22.40625 L 205.589844 14.734375 "
       id="path76" />
    <path
       style=" stroke:none;fill-rule:nonzero;fill:rgb(100%,100%,100%);fill-opacity:1;"
       d="M 213.082031 21.347656 C 214.46875 21.347656 215.113281 20.203125 215.113281 17.980469 C 215.113281 15.761719 214.46875 14.613281 213.082031 14.613281 C 211.691406 14.613281 211.050781 15.761719 211.050781 17.980469 C 211.050781 20.203125 211.691406 21.347656 213.082031 21.347656 Z M 213.082031 13.433594 C 215.425781 13.433594 216.636719 15.203125 216.636719 17.980469 C 216.636719 20.757812 215.425781 22.527344 213.082031 22.527344 C 210.738281 22.527344 209.523438 20.757812 209.523438 17.980469 C 209.523438 15.203125 210.738281 13.433594 213.082031 13.433594 "
       id="path78" />
    <path
       style=" stroke:none;fill-rule:nonzero;fill:rgb(100%,100%,100%);fill-opacity:1;"
       d="M 218.492188 15.464844 C 218.492188 14.824219 218.4375 14.179688 218.421875 13.554688 L 219.828125 13.554688 L 219.882812 14.945312 L 219.914062 14.945312 C 220.382812 13.867188 221.132812 13.433594 222.429688 13.433594 L 222.429688 14.875 C 222.257812 14.839844 222.066406 14.824219 221.875 14.824219 C 220.746094 14.824219 219.949219 15.792969 219.949219 17.722656 L 219.949219 22.40625 L 218.492188 22.40625 L 218.492188 15.464844 "
       id="path80" />
    <path
       style=" stroke:none;fill-rule:nonzero;fill:rgb(100%,100%,100%);fill-opacity:1;"
       d="M 59.671875 36.605469 L 57.816406 30.566406 L 57.78125 30.566406 L 55.871094 36.605469 Z M 58.683594 28.96875 L 62.640625 41.082031 L 61.042969 41.082031 L 60.070312 37.921875 L 55.457031 37.921875 L 54.484375 41.082031 L 52.957031 41.082031 L 57.019531 28.96875 L 58.683594 28.96875 "
       id="path82" />
    <path
       style=" stroke:none;fill-rule:nonzero;fill:rgb(100%,100%,100%);fill-opacity:1;"
       d="M 67.269531 40.023438 C 68.605469 40.023438 69.210938 38.878906 69.210938 36.65625 C 69.210938 34.4375 68.605469 33.289062 67.269531 33.289062 C 65.933594 33.289062 65.324219 34.4375 65.324219 36.65625 C 65.324219 38.878906 65.933594 40.023438 67.269531 40.023438 Z M 63.867188 33.863281 C 63.867188 33.324219 63.816406 32.769531 63.796875 32.230469 L 65.203125 32.230469 L 65.257812 33.535156 L 65.289062 33.535156 C 65.671875 32.839844 66.332031 32.109375 67.613281 32.109375 C 69.4375 32.109375 70.667969 33.601562 70.667969 36.65625 C 70.667969 39.710938 69.4375 41.203125 67.613281 41.203125 C 66.609375 41.203125 65.949219 40.804688 65.359375 39.867188 L 65.324219 39.867188 L 65.324219 44.828125 L 63.867188 44.828125 L 63.867188 33.863281 "
       id="path84" />
    <path
       style=" stroke:none;fill-rule:nonzero;fill:rgb(100%,100%,100%);fill-opacity:1;"
       d="M 75.785156 40.023438 C 77.121094 40.023438 77.726562 38.878906 77.726562 36.65625 C 77.726562 34.4375 77.121094 33.289062 75.785156 33.289062 C 74.449219 33.289062 73.839844 34.4375 73.839844 36.65625 C 73.839844 38.878906 74.449219 40.023438 75.785156 40.023438 Z M 72.382812 33.863281 C 72.382812 33.324219 72.332031 32.769531 72.3125 32.230469 L 73.71875 32.230469 L 73.773438 33.535156 L 73.804688 33.535156 C 74.1875 32.839844 74.847656 32.109375 76.132812 32.109375 C 77.953125 32.109375 79.183594 33.601562 79.183594 36.65625 C 79.183594 39.710938 77.953125 41.203125 76.132812 41.203125 C 75.125 41.203125 74.46875 40.804688 73.875 39.867188 L 73.839844 39.867188 L 73.839844 44.828125 L 72.382812 44.828125 L 72.382812 33.863281 "
       id="path86" />
    <path
       style=" stroke:none;fill-rule:nonzero;fill:rgb(100%,100%,100%);fill-opacity:1;"
       d="M 81.175781 28.066406 L 82.636719 28.066406 L 82.636719 41.082031 L 81.175781 41.082031 L 81.175781 28.066406 "
       id="path88" />
    <path
       style=" stroke:none;fill-rule:nonzero;fill:rgb(100%,100%,100%);fill-opacity:1;"
       d="M 85.203125 32.230469 L 86.660156 32.230469 L 86.660156 41.082031 L 85.203125 41.082031 Z M 86.726562 28.585938 L 86.726562 30.324219 L 85.132812 30.324219 L 85.132812 28.585938 L 86.726562 28.585938 "
       id="path90" />
    <path
       style=" stroke:none;fill-rule:nonzero;fill:rgb(100%,100%,100%);fill-opacity:1;"
       d="M 93.71875 35.980469 C 93.71875 34.140625 93.144531 33.222656 91.984375 33.222656 C 91.046875 33.222656 90.214844 33.914062 90.179688 35.980469 Z M 90.179688 37.089844 C 90.179688 39.136719 90.976562 40.09375 92.59375 40.09375 C 93.320312 40.09375 94.117188 39.726562 94.621094 39.363281 L 94.691406 40.683594 C 93.996094 41.011719 93.09375 41.203125 92.210938 41.203125 C 89.867188 41.203125 88.652344 39.433594 88.652344 36.65625 C 88.652344 33.878906 89.867188 32.109375 92.070312 32.109375 C 94.066406 32.109375 95.175781 33.707031 95.175781 36.308594 L 95.175781 37.089844 L 90.179688 37.089844 "
       id="path92" />
    <path
       style=" stroke:none;fill-rule:nonzero;fill:rgb(100%,100%,100%);fill-opacity:1;"
       d="M 99.925781 33.289062 C 98.59375 33.289062 97.984375 34.4375 97.984375 36.65625 C 97.984375 38.878906 98.59375 40.023438 99.925781 40.023438 C 101.261719 40.023438 101.871094 38.878906 101.871094 36.65625 C 101.871094 34.4375 101.261719 33.289062 99.925781 33.289062 Z M 103.328125 39.449219 C 103.328125 39.988281 103.382812 40.542969 103.398438 41.082031 L 101.992188 41.082031 L 101.941406 39.78125 L 101.90625 39.78125 C 101.523438 40.472656 100.863281 41.203125 99.582031 41.203125 C 97.757812 41.203125 96.527344 39.710938 96.527344 36.65625 C 96.527344 33.601562 97.757812 32.109375 99.582031 32.109375 C 100.585938 32.109375 101.246094 32.507812 101.835938 33.445312 L 101.871094 33.445312 L 101.871094 28.066406 L 103.328125 28.066406 L 103.328125 39.449219 "
       id="path94" />
    <path
       style=" stroke:none;fill-rule:nonzero;fill:rgb(100%,100%,100%);fill-opacity:1;"
       d="M 115.089844 30.722656 C 114.515625 30.375 113.769531 30.167969 113.023438 30.167969 C 111.878906 30.167969 111.132812 30.949219 111.132812 31.972656 C 111.132812 32.753906 111.441406 33.238281 113.179688 34.242188 C 115.054688 35.320312 115.679688 36.378906 115.679688 37.765625 C 115.679688 39.691406 114.480469 41.203125 112.15625 41.203125 C 111.183594 41.203125 110.265625 40.996094 109.621094 40.683594 L 109.621094 39.101562 C 110.316406 39.519531 111.21875 39.882812 111.929688 39.882812 C 113.300781 39.882812 114.082031 38.964844 114.082031 37.976562 C 114.082031 37.039062 113.839844 36.5 112.207031 35.511719 C 110.019531 34.191406 109.535156 33.445312 109.535156 31.882812 C 109.535156 29.890625 111.0625 28.847656 112.902344 28.847656 C 113.699219 28.847656 114.550781 29.023438 115.089844 29.246094 L 115.089844 30.722656 "
       id="path96" />
    <path
       style=" stroke:none;fill-rule:nonzero;fill:rgb(100%,100%,100%);fill-opacity:1;"
       d="M 120.464844 42.886719 C 120.03125 44.394531 119.40625 44.933594 118.296875 44.933594 C 117.945312 44.933594 117.566406 44.898438 117.304688 44.828125 L 117.375 43.511719 C 117.601562 43.613281 117.859375 43.683594 118.175781 43.683594 C 118.589844 43.683594 118.902344 43.492188 119.144531 42.574219 L 119.492188 41.21875 L 116.699219 32.230469 L 118.226562 32.230469 L 120.203125 39.449219 L 120.238281 39.449219 L 122.078125 32.230469 L 123.535156 32.230469 L 120.464844 42.886719 "
       id="path98" />
    <path
       style=" stroke:none;fill-rule:nonzero;fill:rgb(100%,100%,100%);fill-opacity:1;"
       d="M 124.539062 39.363281 C 125.199219 39.761719 125.890625 40.023438 126.621094 40.023438 C 127.730469 40.023438 128.304688 39.449219 128.304688 38.773438 C 128.304688 38.167969 127.992188 37.75 127.175781 37.386719 L 126.203125 36.953125 C 124.9375 36.378906 124.46875 35.808594 124.46875 34.679688 C 124.46875 33.222656 125.597656 32.109375 127.3125 32.109375 C 128.042969 32.109375 128.683594 32.230469 129.1875 32.421875 L 129.117188 33.671875 C 128.667969 33.464844 128.042969 33.289062 127.382812 33.289062 C 126.429688 33.289062 125.925781 33.8125 125.925781 34.503906 C 125.925781 35.214844 126.449219 35.613281 127.417969 35.996094 L 127.9375 36.207031 C 129.015625 36.640625 129.691406 37.367188 129.691406 38.460938 C 129.691406 39.988281 128.875 41.203125 126.847656 41.203125 C 125.925781 41.203125 125.09375 41.011719 124.453125 40.683594 L 124.539062 39.363281 "
       id="path100" />
    <path
       style=" stroke:none;fill-rule:nonzero;fill:rgb(100%,100%,100%);fill-opacity:1;"
       d="M 135.414062 40.976562 C 135.066406 41.097656 134.582031 41.203125 134.183594 41.203125 C 132.847656 41.203125 132.136719 40.664062 132.136719 39.101562 L 132.136719 33.410156 L 130.730469 33.410156 L 130.730469 32.230469 L 132.136719 32.230469 L 132.136719 30.425781 L 133.59375 29.992188 L 133.59375 32.230469 L 135.414062 32.230469 L 135.414062 33.410156 L 133.59375 33.410156 L 133.59375 38.632812 C 133.59375 39.640625 133.851562 40.023438 134.511719 40.023438 C 134.878906 40.023438 135.136719 39.917969 135.414062 39.796875 L 135.414062 40.976562 "
       id="path102" />
    <path
       style=" stroke:none;fill-rule:nonzero;fill:rgb(100%,100%,100%);fill-opacity:1;"
       d="M 141.453125 35.980469 C 141.453125 34.140625 140.878906 33.222656 139.71875 33.222656 C 138.777344 33.222656 137.945312 33.914062 137.910156 35.980469 Z M 137.910156 37.089844 C 137.910156 39.136719 138.710938 40.09375 140.324219 40.09375 C 141.054688 40.09375 141.851562 39.726562 142.355469 39.363281 L 142.421875 40.683594 C 141.730469 41.011719 140.828125 41.203125 139.941406 41.203125 C 137.597656 41.203125 136.386719 39.433594 136.386719 36.65625 C 136.386719 33.878906 137.597656 32.109375 139.804688 32.109375 C 141.800781 32.109375 142.910156 33.707031 142.910156 36.308594 L 142.910156 37.089844 L 137.910156 37.089844 "
       id="path104" />
    <path
       style=" stroke:none;fill-rule:nonzero;fill:rgb(100%,100%,100%);fill-opacity:1;"
       d="M 144.691406 34.140625 C 144.691406 33.5 144.640625 32.855469 144.625 32.230469 L 146.027344 32.230469 L 146.082031 33.550781 L 146.117188 33.550781 C 146.585938 32.542969 147.332031 32.109375 148.304688 32.109375 C 149.238281 32.109375 149.933594 32.597656 150.386719 33.5 C 150.851562 32.628906 151.53125 32.109375 152.535156 32.109375 C 154.0625 32.109375 155.105469 32.996094 155.105469 34.9375 L 155.105469 41.082031 L 153.644531 41.082031 L 153.644531 35.007812 C 153.644531 33.878906 153.160156 33.359375 152.292969 33.359375 C 151.21875 33.359375 150.628906 34.019531 150.628906 35.613281 L 150.628906 41.082031 L 149.171875 41.082031 L 149.171875 35.007812 C 149.171875 33.878906 148.683594 33.359375 147.816406 33.359375 C 146.742188 33.359375 146.152344 34.019531 146.152344 35.613281 L 146.152344 41.082031 L 144.691406 41.082031 L 144.691406 34.140625 "
       id="path106" />
    <path
       style=" stroke:none;fill-rule:nonzero;fill:rgb(100%,100%,100%);fill-opacity:1;"
       d="M 157.007812 39.363281 C 157.667969 39.761719 158.363281 40.023438 159.089844 40.023438 C 160.199219 40.023438 160.773438 39.449219 160.773438 38.773438 C 160.773438 38.167969 160.460938 37.75 159.644531 37.386719 L 158.675781 36.953125 C 157.40625 36.378906 156.9375 35.808594 156.9375 34.679688 C 156.9375 33.222656 158.066406 32.109375 159.785156 32.109375 C 160.511719 32.109375 161.15625 32.230469 161.660156 32.421875 L 161.589844 33.671875 C 161.136719 33.464844 160.511719 33.289062 159.855469 33.289062 C 158.898438 33.289062 158.394531 33.8125 158.394531 34.503906 C 158.394531 35.214844 158.917969 35.613281 159.886719 35.996094 L 160.40625 36.207031 C 161.484375 36.640625 162.160156 37.367188 162.160156 38.460938 C 162.160156 39.988281 161.347656 41.203125 159.316406 41.203125 C 158.394531 41.203125 157.5625 41.011719 156.921875 40.683594 L 157.007812 39.363281 "
       id="path108" />
    <path
       style=" stroke:none;fill-rule:nonzero;fill:rgb(100%,100%,100%);fill-opacity:1;"
       d="M 173.15625 36.605469 L 171.304688 30.566406 L 171.265625 30.566406 L 169.359375 36.605469 Z M 172.171875 28.96875 L 176.128906 41.082031 L 174.53125 41.082031 L 173.558594 37.921875 L 168.941406 37.921875 L 167.972656 41.082031 L 166.445312 41.082031 L 170.503906 28.96875 L 172.171875 28.96875 "
       id="path110" />
    <path
       style=" stroke:none;fill-rule:nonzero;fill:rgb(100%,100%,100%);fill-opacity:1;"
       d="M 177.492188 34.140625 C 177.492188 33.5 177.441406 32.855469 177.425781 32.230469 L 178.828125 32.230469 L 178.882812 33.550781 L 178.914062 33.550781 C 179.386719 32.542969 180.132812 32.109375 181.152344 32.109375 C 182.699219 32.109375 183.738281 32.996094 183.738281 34.9375 L 183.738281 41.082031 L 182.28125 41.082031 L 182.28125 35.371094 C 182.28125 33.96875 181.761719 33.359375 180.824219 33.359375 C 179.679688 33.359375 178.949219 34.15625 178.949219 35.753906 L 178.949219 41.082031 L 177.492188 41.082031 L 177.492188 34.140625 "
       id="path112" />
    <path
       style=" stroke:none;fill-rule:nonzero;fill:rgb(100%,100%,100%);fill-opacity:1;"
       d="M 190.605469 36.742188 C 190.347656 36.707031 189.980469 36.707031 189.585938 36.707031 C 187.867188 36.707031 187.050781 37.523438 187.050781 38.546875 C 187.050781 39.484375 187.535156 40.09375 188.542969 40.09375 C 189.808594 40.09375 190.605469 39.070312 190.605469 37.855469 Z M 186.375 32.839844 C 187.101562 32.371094 188.007812 32.109375 188.871094 32.109375 C 190.175781 32.109375 190.957031 32.664062 191.230469 32.941406 C 191.613281 33.324219 191.996094 33.863281 191.996094 35.113281 L 191.996094 39.726562 C 191.996094 40.25 192.03125 40.769531 192.066406 41.082031 L 190.746094 41.082031 L 190.660156 39.882812 L 190.625 39.882812 C 190.226562 40.558594 189.496094 41.203125 188.144531 41.203125 C 186.6875 41.203125 185.59375 40.351562 185.59375 38.652344 C 185.59375 36.933594 186.722656 35.667969 189.757812 35.667969 L 190.605469 35.667969 L 190.605469 35.269531 C 190.605469 34.609375 190.554688 34.226562 190.277344 33.84375 C 189.980469 33.445312 189.410156 33.289062 188.804688 33.289062 C 187.902344 33.289062 187.03125 33.65625 186.53125 34.210938 L 186.375 32.839844 "
       id="path114" />
    <path
       style=" stroke:none;fill-rule:nonzero;fill:rgb(100%,100%,100%);fill-opacity:1;"
       d="M 194.371094 28.066406 L 195.828125 28.066406 L 195.828125 41.082031 L 194.371094 41.082031 L 194.371094 28.066406 "
       id="path116" />
    <path
       style=" stroke:none;fill-rule:nonzero;fill:rgb(100%,100%,100%);fill-opacity:1;"
       d="M 201.03125 42.886719 C 200.597656 44.394531 199.972656 44.933594 198.863281 44.933594 C 198.515625 44.933594 198.132812 44.898438 197.875 44.828125 L 197.941406 43.511719 C 198.167969 43.613281 198.429688 43.683594 198.738281 43.683594 C 199.15625 43.683594 199.46875 43.492188 199.714844 42.574219 L 200.058594 41.21875 L 197.265625 32.230469 L 198.792969 32.230469 L 200.769531 39.449219 L 200.804688 39.449219 L 202.644531 32.230469 L 204.101562 32.230469 L 201.03125 42.886719 "
       id="path118" />
    <path
       style=" stroke:none;fill-rule:nonzero;fill:rgb(100%,100%,100%);fill-opacity:1;"
       d="M 205.105469 39.363281 C 205.765625 39.761719 206.460938 40.023438 207.1875 40.023438 C 208.300781 40.023438 208.871094 39.449219 208.871094 38.773438 C 208.871094 38.167969 208.558594 37.75 207.742188 37.386719 L 206.769531 36.953125 C 205.507812 36.378906 205.035156 35.808594 205.035156 34.679688 C 205.035156 33.222656 206.164062 32.109375 207.882812 32.109375 C 208.609375 32.109375 209.253906 32.230469 209.757812 32.421875 L 209.6875 33.671875 C 209.234375 33.464844 208.609375 33.289062 207.949219 33.289062 C 206.996094 33.289062 206.492188 33.8125 206.492188 34.503906 C 206.492188 35.214844 207.015625 35.613281 207.984375 35.996094 L 208.507812 36.207031 C 209.582031 36.640625 210.261719 37.367188 210.261719 38.460938 C 210.261719 39.988281 209.445312 41.203125 207.414062 41.203125 C 206.492188 41.203125 205.660156 41.011719 205.019531 40.683594 L 205.105469 39.363281 "
       id="path120" />
    <path
       style=" stroke:none;fill-rule:nonzero;fill:rgb(100%,100%,100%);fill-opacity:1;"
       d="M 212.21875 32.230469 L 213.675781 32.230469 L 213.675781 41.082031 L 212.21875 41.082031 Z M 213.746094 28.585938 L 213.746094 30.324219 L 212.148438 30.324219 L 212.148438 28.585938 L 213.746094 28.585938 "
       id="path122" />
    <path
       style=" stroke:none;fill-rule:nonzero;fill:rgb(100%,100%,100%);fill-opacity:1;"
       d="M 215.71875 39.363281 C 216.378906 39.761719 217.074219 40.023438 217.804688 40.023438 C 218.914062 40.023438 219.484375 39.449219 219.484375 38.773438 C 219.484375 38.167969 219.171875 37.75 218.359375 37.386719 L 217.386719 36.953125 C 216.121094 36.378906 215.652344 35.808594 215.652344 34.679688 C 215.652344 33.222656 216.777344 32.109375 218.496094 32.109375 C 219.226562 32.109375 219.867188 32.230469 220.371094 32.421875 L 220.300781 33.671875 C 219.851562 33.464844 219.226562 33.289062 218.566406 33.289062 C 217.613281 33.289062 217.109375 33.8125 217.109375 34.503906 C 217.109375 35.214844 217.632812 35.613281 218.601562 35.996094 L 219.121094 36.207031 C 220.195312 36.640625 220.875 37.367188 220.875 38.460938 C 220.875 39.988281 220.058594 41.203125 218.027344 41.203125 C 217.109375 41.203125 216.277344 41.011719 215.636719 40.683594 L 215.71875 39.363281 "
       id="path124" />
    <path
       style=" stroke:none;fill-rule:nonzero;fill:rgb(100%,100%,100%);fill-opacity:1;"
       d="M 25.816406 8.214844 C 19.054688 8.214844 13.183594 12.03125 10.226562 17.625 L 41.398438 17.617188 C 38.445312 12.03125 32.578125 8.21875 25.816406 8.214844 "
       id="path126" />
    <path
       style=" stroke:none;fill-rule:nonzero;fill:rgb(100%,100%,100%);fill-opacity:1;"
       d="M 43.421875 25.140625 C 43.371094 23.839844 43.1875 22.585938 42.875 21.375 L 10.238281 17.625 C 8.941406 20.078125 8.203125 22.878906 8.203125 25.847656 C 8.203125 27.378906 8.398438 28.867188 8.765625 30.289062 L 25.117188 32.183594 L 25.121094 25.140625 L 43.421875 25.140625 "
       id="path128" />
    <path
       style=" stroke:none;fill-rule:nonzero;fill:rgb(100%,100%,100%);fill-opacity:1;"
       d="M 10.226562 34.066406 C 13.082031 39.457031 18.648438 43.1875 25.105469 43.4375 L 25.105469 34.0625 L 10.226562 34.066406 "
       id="path130" />
    <path
       style=" stroke:none;fill-rule:nonzero;fill:rgb(100%,100%,100%);fill-opacity:1;"
       d="M 41.410156 34.058594 C 42.597656 31.800781 43.3125 29.253906 43.421875 26.546875 L 26.527344 26.546875 L 26.527344 32.339844 L 41.410156 34.058594 "
       id="path132" />
    <path
       style=" stroke:none;fill-rule:nonzero;fill:rgb(100%,100%,100%);fill-opacity:1;"
       d="M 41.410156 34.058594 L 26.527344 34.0625 L 26.527344 43.4375 C 32.988281 43.1875 38.554688 39.457031 41.410156 34.058594 "
       id="path134" />
    <path
       style=" stroke:none;fill-rule:nonzero;fill:rgb(100%,100%,100%);fill-opacity:1;"
       d="M 2.015625 44.4375 L 0.777344 44.4375 L 0.777344 0.789062 L 43.421875 0.789062 L 43.421875 2.03125 L 2.015625 2.03125 L 2.015625 44.4375 "
       id="path136" />
    <path
       style=" stroke:none;fill-rule:nonzero;fill:rgb(100%,100%,100%);fill-opacity:1;"
       d="M 0.828125 50.453125 L 2.066406 50.453125 L 2.066406 62.621094 L 0.828125 62.621094 L 0.828125 50.453125 "
       id="path138" />
    <path
       style=" stroke:none;fill-rule:nonzero;fill:rgb(100%,100%,100%);fill-opacity:1;"
       d="M 10.878906 50.453125 L 12.121094 50.453125 L 12.121094 62.621094 L 10.878906 62.621094 L 10.878906 50.453125 "
       id="path140" />
    <path
       style=" stroke:none;fill-rule:nonzero;fill:rgb(100%,100%,100%);fill-opacity:1;"
       d="M 22.246094 58.46875 L 21.570312 53.367188 L 21.542969 53.367188 L 20.863281 58.46875 Z M 20.921875 50.382812 L 22.203125 50.382812 L 24.007812 62.621094 L 22.8125 62.621094 L 22.464844 59.925781 L 20.675781 59.925781 L 20.300781 62.621094 L 19.101562 62.621094 L 20.921875 50.382812 "
       id="path142" />
    <path
       style=" stroke:none;fill-rule:nonzero;fill:rgb(100%,100%,100%);fill-opacity:1;"
       d="M 30.03125 60.691406 C 30.375 61.113281 30.75 61.367188 31.113281 61.367188 C 31.632812 61.367188 32.050781 60.835938 32.050781 60.179688 C 32.050781 58.304688 29.972656 55.574219 29.972656 53.078125 C 29.972656 51.433594 30.78125 50.289062 31.933594 50.289062 C 32.28125 50.289062 32.570312 50.382812 32.972656 50.617188 L 32.972656 52.089844 C 32.597656 51.820312 32.394531 51.710938 32.109375 51.710938 C 31.503906 51.710938 31.167969 52.089844 31.167969 52.875 C 31.167969 54.804688 33.246094 57.429688 33.246094 59.980469 C 33.246094 61.636719 32.441406 62.789062 31.257812 62.789062 C 30.824219 62.789062 30.449219 62.640625 30.03125 62.3125 L 30.03125 60.691406 "
       id="path144" />
    <path
       style=" stroke:none;fill-rule:nonzero;fill:rgb(100%,100%,100%);fill-opacity:1;"
       d="M 42.355469 58.46875 L 41.675781 53.367188 L 41.652344 53.367188 L 40.96875 58.46875 Z M 41.027344 50.382812 L 42.3125 50.382812 L 44.117188 62.621094 L 42.917969 62.621094 L 42.574219 59.925781 L 40.78125 59.925781 L 40.40625 62.621094 L 39.210938 62.621094 L 41.027344 50.382812 "
       id="path146" />
  </g>
</svg>
