<?xml version="1.0" encoding="UTF-8" standalone="no"?>
<!-- Created with Inkscape (http://www.inkscape.org/) -->

<svg
   width="99.740578mm"
   height="90.601578mm"
   viewBox="0 0 99.740578 90.601578"
   version="1.1"
   id="svg1234"
   inkscape:version="1.1.2 (b8e25be833, 2022-02-05)"
   sodipodi:docname="messageix-community-logo.svg"
   inkscape:export-filename="C:\Users\laura\OneDrive\Desktop\MCM\New\messageix-community-logo.png"
   inkscape:export-xdpi="203.72852"
   inkscape:export-ydpi="203.72852"
   xmlns:inkscape="http://www.inkscape.org/namespaces/inkscape"
   xmlns:sodipodi="http://sodipodi.sourceforge.net/DTD/sodipodi-0.dtd"
   xmlns="http://www.w3.org/2000/svg"
   xmlns:svg="http://www.w3.org/2000/svg">
  <sodipodi:namedview
     id="namedview1236"
     pagecolor="#505050"
     bordercolor="#eeeeee"
     borderopacity="1"
     inkscape:pageshadow="0"
     inkscape:pageopacity="0"
     inkscape:pagecheckerboard="0"
     inkscape:document-units="mm"
     showgrid="false"
     inkscape:zoom="1.466344"
     inkscape:cx="154.4658"
     inkscape:cy="211.41014"
     inkscape:window-width="1920"
     inkscape:window-height="1009"
     inkscape:window-x="-8"
     inkscape:window-y="-8"
     inkscape:window-maximized="1"
     inkscape:current-layer="layer1" />
  <defs
     id="defs1231" />
  <g
     inkscape:label="Layer 1"
     inkscape:groupmode="layer"
     id="layer1"
     transform="translate(-51.165061,-120.11273)">
    <path
       d="m 63.766991,187.58613 c 0.11359,0 0.22684,0.11359 0.22684,0.22684 v 10.89871 c 0,0.11395 -0.11325,0.22754 -0.22684,0.22754 h -1.21109 c -0.11359,0 -0.22683,-0.11359 -0.22683,-0.22754 v -8.19256 h -0.0568 c 0,0 -0.24624,0.64312 -0.66252,1.22979 l -4.03013,5.75204 -4.03049,-5.75204 c -0.41627,-0.58667 -0.66216,-1.22979 -0.66216,-1.22979 h -0.0568 v 8.19256 c 0,0.11395 -0.11359,0.22754 -0.22683,0.22754 h -1.21109 c -0.11359,0 -0.22719,-0.11359 -0.22719,-0.22754 v -10.89871 c 0,-0.11325 0.1136,-0.22684 0.22719,-0.22684 h 0.77576 c 0.13229,0 0.26494,0.0564 0.35948,0.18909 l 5.03308,7.15257 h 0.0378 l 5.03308,-7.15257 c 0.0949,-0.13265 0.22719,-0.18909 0.35948,-0.18909 z"
       style="fill:#001e6b;fill-opacity:1;fill-rule:nonzero;stroke:none;stroke-width:0.352778"
       id="path73"
       inkscape:export-filename="C:\Users\laura\OneDrive\Desktop\MCM\path73.png"
       inkscape:export-xdpi="300"
       inkscape:export-ydpi="300" />
    <path
       d="m 68.916101,193.79212 v 3.70875 h 7.18996 c 0.1136,0 0.26529,0.15099 0.26529,0.26459 v 0.9084 c 0,0.11359 -0.15169,0.26529 -0.26529,0.26529 h -8.62788 c -0.11395,0 -0.22719,-0.1136 -0.22719,-0.22719 v -10.89907 c 0,-0.11324 0.11324,-0.22684 0.22719,-0.22684 h 8.43879 c 0.1136,0 0.26494,0.15099 0.26494,0.26494 v 0.9077 c 0,0.11359 -0.15134,0.26529 -0.26494,0.26529 h -7.00087 v 3.33022 h 6.43326 c 0.11359,0 0.26493,0.15169 0.26493,0.26493 v 0.90841 c 0,0.11289 -0.15134,0.26458 -0.26493,0.26458 z"
       style="fill:#001e6b;fill-opacity:1;fill-rule:nonzero;stroke:none;stroke-width:0.352778"
       id="path77"
       inkscape:export-filename="C:\Users\laura\OneDrive\Desktop\MCM\path73.png"
       inkscape:export-xdpi="300"
       inkscape:export-ydpi="300" />
    <path
       d="m 79.476051,195.11698 c 0.20814,0 0.26494,0.0945 0.26494,0.26458 0,1.40053 0.98389,2.30858 3.55705,2.30858 2.34668,0 3.17924,-0.9839 3.17924,-2.17593 0,-0.68122 -0.39758,-1.40018 -1.93005,-1.51412 l -3.15983,-0.22613 c -2.28988,-0.18945 -3.31152,-1.21144 -3.31152,-2.80106 0,-1.72156 1.49471,-3.57611 4.80624,-3.57611 3.51931,0 4.78719,1.60832 4.78719,3.55777 0,0.0942 -0.0758,0.18908 -0.28398,0.18908 h -1.11619 c -0.18944,0 -0.26494,-0.0568 -0.28399,-0.32208 -0.0945,-0.9839 -0.88935,-1.98685 -3.10303,-1.98685 -1.9491,0 -3.14113,0.92746 -3.14113,2.13819 0,0.68121 0.45437,1.26788 1.7974,1.36278 l 3.10338,0.22684 c 2.59222,0.20814 3.50027,1.47567 3.50027,2.95169 0,1.53282 -1.28658,3.61421 -4.844,3.61421 -3.46216,0 -5.22216,-1.62737 -5.22216,-3.61421 v -0.18874 c 0,-0.13264 0.0568,-0.20849 0.22718,-0.20849 z"
       style="fill:#001e6b;fill-opacity:1;fill-rule:nonzero;stroke:none;stroke-width:0.352778"
       id="path81"
       inkscape:export-filename="C:\Users\laura\OneDrive\Desktop\MCM\path73.png"
       inkscape:export-xdpi="300"
       inkscape:export-ydpi="300" />
    <path
       d="m 91.436191,195.11698 c 0.20814,0 0.26494,0.0945 0.26494,0.26458 0,1.40053 0.98389,2.30858 3.55705,2.30858 2.34668,0 3.17924,-0.9839 3.17924,-2.17593 0,-0.68122 -0.39758,-1.40018 -1.93005,-1.51412 l -3.15983,-0.22613 c -2.28988,-0.18945 -3.31152,-1.21144 -3.31152,-2.80106 0,-1.72156 1.49471,-3.57611 4.80624,-3.57611 3.51931,0 4.78719,1.60832 4.78719,3.55777 0,0.0942 -0.0758,0.18908 -0.28398,0.18908 h -1.11619 c -0.18944,0 -0.26494,-0.0568 -0.28399,-0.32208 -0.0945,-0.9839 -0.88935,-1.98685 -3.10303,-1.98685 -1.9491,0 -3.14113,0.92746 -3.14113,2.13819 0,0.68121 0.45437,1.26788 1.7974,1.36278 l 3.10338,0.22684 c 2.59222,0.20814 3.500269,1.47567 3.500269,2.95169 0,1.53282 -1.286579,3.61421 -4.843999,3.61421 -3.46216,0 -5.22216,-1.62737 -5.22216,-3.61421 v -0.18874 c 0,-0.13264 0.0568,-0.20849 0.22718,-0.20849 z"
       style="fill:#001e6b;fill-opacity:1;fill-rule:nonzero;stroke:none;stroke-width:0.352778"
       id="path85"
       inkscape:export-filename="C:\Users\laura\OneDrive\Desktop\MCM\path73.png"
       inkscape:export-xdpi="300"
       inkscape:export-ydpi="300" />
    <path
       d="m 104.79654,195.15466 h 4.86304 l -1.51377,-3.02754 c -0.28398,-0.56762 -0.8516,-2.08103 -0.8516,-2.08103 h -0.11325 c 0,0 -0.56797,1.51341 -0.8516,2.08103 z m 5.582,1.43827 h -6.30096 l -1.0407,2.10009 c -0.13229,0.24624 -0.17039,0.24624 -0.39722,0.24624 h -1.23014 c -0.11324,0 -0.17004,-0.0759 -0.17004,-0.13264 0,-0.0568 0.0568,-0.1517 0.0945,-0.22684 l 5.56295,-10.99361 h 0.68121 l 5.56296,10.99361 c 0.0377,0.0751 0.0945,0.17004 0.0945,0.22684 0,0.0568 -0.0568,0.13264 -0.17039,0.13264 h -1.22979 c -0.22718,0 -0.26493,0 -0.39722,-0.24624 z"
       style="fill:#001e6b;fill-opacity:1;fill-rule:nonzero;stroke:none;stroke-width:0.352778"
       id="path89"
       inkscape:export-filename="C:\Users\laura\OneDrive\Desktop\MCM\path73.png"
       inkscape:export-xdpi="300"
       inkscape:export-ydpi="300" />
    <path
       d="m 129.72008,193.79212 v 3.70875 h 7.18996 c 0.11395,0 0.26529,0.15099 0.26529,0.26459 v 0.9084 c 0,0.11359 -0.15134,0.26529 -0.26529,0.26529 h -8.62788 c -0.1136,0 -0.22719,-0.1136 -0.22719,-0.22719 v -10.89907 c 0,-0.11324 0.11359,-0.22684 0.22719,-0.22684 h 8.43915 c 0.11324,0 0.26458,0.15099 0.26458,0.26494 v 0.9077 c 0,0.11359 -0.15134,0.26529 -0.26458,0.26529 h -7.00123 v 3.33022 h 6.43326 c 0.11359,0 0.26528,0.15169 0.26528,0.26493 v 0.90841 c 0,0.11289 -0.15169,0.26458 -0.26528,0.26458 z"
       style="fill:#001e6b;fill-opacity:1;fill-rule:nonzero;stroke:none;stroke-width:0.352778"
       id="path93"
       inkscape:export-filename="C:\Users\laura\OneDrive\Desktop\MCM\path73.png"
       inkscape:export-xdpi="300"
       inkscape:export-ydpi="300" />
    <path
       d="m 119.58635,197.69004 c -2.34703,0 -4.29366,-1.66511 -4.29366,-4.42701 0,-2.80105 1.94663,-4.42842 4.29366,-4.42842 1.66123,0 3.07481,0.78246 3.79024,2.19005 0.0536,0.10583 0.15911,0.17568 0.27764,0.17568 h 1.05375 c 0.22824,0 0.37641,-0.2346 0.28786,-0.44485 -0.90028,-2.13819 -2.97109,-3.35845 -5.40949,-3.35845 -3.2385,0 -5.89492,2.19463 -5.89492,5.86599 0,3.6703 2.65642,5.86528 5.89492,5.86528 2.49273,0 4.62245,-1.28658 5.48464,-3.53659 0.0804,-0.20955 -0.066,-0.43674 -0.29069,-0.43674 h -1.05128 c -0.12277,0 -0.23072,0.0744 -0.28222,0.18591 -0.69462,1.49613 -2.15583,2.34915 -3.86045,2.34915"
       style="fill:#001e6b;fill-opacity:1;fill-rule:nonzero;stroke:none;stroke-width:0.352778"
       id="path97"
       inkscape:export-filename="C:\Users\laura\OneDrive\Desktop\MCM\path73.png"
       inkscape:export-xdpi="300"
       inkscape:export-ydpi="300" />
    <path
       d="m 126.54704,193.88741 h -6.39127 c -0.19474,0 -0.35278,-0.15804 -0.35278,-0.35278 v -0.71367 c 0,-0.19508 0.15804,-0.35277 0.35278,-0.35277 h 6.39127 c 0.19473,0 0.35278,0.15769 0.35278,0.35277 v 0.71367 c 0,0.19474 -0.15805,0.35278 -0.35278,0.35278"
       style="fill:#00589d;fill-opacity:1;fill-rule:nonzero;stroke:none;stroke-width:0.352778"
       id="path101"
       inkscape:export-filename="C:\Users\laura\OneDrive\Desktop\MCM\path73.png"
       inkscape:export-xdpi="300"
       inkscape:export-ydpi="300" />
    <path
       d="m 149.22712,199.25732 h -8.63247 c -0.9271,0 -1.67852,-0.75142 -1.67852,-1.67852 v -8.63247 c 0,-0.92675 0.75142,-1.67852 1.67852,-1.67852 h 8.63247 c 0.9271,0 1.67852,0.75177 1.67852,1.67852 v 8.63247 c 0,0.9271 -0.75142,1.67852 -1.67852,1.67852"
       style="fill:#001e6b;fill-opacity:1;fill-rule:nonzero;stroke:none;stroke-width:0.352778"
       id="path105"
       inkscape:export-filename="C:\Users\laura\OneDrive\Desktop\MCM\path73.png"
       inkscape:export-xdpi="300"
       inkscape:export-ydpi="300" />
    <path
       d="m 142.83304,195.75304 c 0,0.0519 -0.0519,0.10372 -0.10407,0.10372 h -1.34867 c -0.0519,0 -0.10407,-0.0519 -0.10407,-0.10372 v -4.98087 c 0,-0.0519 0.0522,-0.10372 0.10407,-0.10372 h 1.34867 c 0.0522,0 0.10407,0.0519 0.10407,0.10372 z"
       style="fill:#ffffff;fill-opacity:1;fill-rule:nonzero;stroke:none;stroke-width:0.352778"
       id="path109"
       inkscape:export-filename="C:\Users\laura\OneDrive\Desktop\MCM\path73.png"
       inkscape:export-xdpi="300"
       inkscape:export-ydpi="300" />
    <path
       d="m 146.36147,192.03452 h 0.0173 c 0,0 0.16439,-0.26811 0.26811,-0.4064 l 0.62265,-0.83891 c 0.078,-0.10371 0.11254,-0.121 0.21625,-0.121 h 1.59985 c 0.0346,0 0.0519,0.0257 0.0519,0.0522 0,0.0169 -0.008,0.043 -0.0346,0.0776 l -1.82457,2.45569 c 0,0 1.25377,1.66052 1.87642,2.48214 0.0261,0.0346 0.0346,0.0519 0.0346,0.0692 0,0.0257 -0.0173,0.0519 -0.0519,0.0519 h -1.63442 c -0.10372,0 -0.15558,-0.0173 -0.22472,-0.10372 l -1.01177,-1.34056 h -0.0173 c 0,0 -0.14711,0.25965 -0.23354,0.38065 l -0.67451,0.92534 c -0.0695,0.0949 -0.15558,0.13829 -0.26811,0.13829 h -1.59138 c -0.0342,0 -0.0515,-0.0261 -0.0515,-0.0519 0,-0.0173 0.008,-0.0346 0.0342,-0.0692 l 1.86796,-2.55128 -1.79846,-2.39537 c -0.0173,-0.0258 -0.0349,-0.0519 -0.0349,-0.0688 0,-0.0265 0.0176,-0.0522 0.0522,-0.0522 h 1.64289 c 0.10407,0 0.14711,0.0173 0.22472,0.121 z"
       style="fill:#ffffff;fill-opacity:1;fill-rule:nonzero;stroke:none;stroke-width:0.352778"
       id="path113"
       inkscape:export-filename="C:\Users\laura\OneDrive\Desktop\MCM\path73.png"
       inkscape:export-xdpi="300"
       inkscape:export-ydpi="300" />
    <path
       d="m 101.073,182.48161 c -1.074209,0 -2.083859,-0.41839 -2.843739,-1.17792 l -21.64045,-21.6408 5.32695,-5.32695 -0.25224,-0.24941 c -0.33867,-0.33479 -0.52493,-0.78176 -0.52493,-1.25766 0,-0.97543 0.79375,-1.76918 1.76953,-1.76918 0.47519,0 0.92216,0.18627 1.2573,0.52529 l 0.24941,0.25188 5.60917,-5.60916 c -1.75966,3.69429 -1.55963,8.03839 0.59126,11.58204 l 0.22683,0.37395 0.31715,-0.30057 c 0.50094,-0.47413 1.15429,-0.73554 1.83938,-0.73554 1.47744,0 2.67935,1.20191 2.67935,2.67899 0,0.65158 -0.23954,1.28094 -0.67381,1.77201 -0.0945,0.10654 -0.18591,0.19685 -0.28045,0.27657 l -0.29387,0.2473 6.377519,6.37752 c -0.2279,0.3817 -0.34749,0.81245 -0.34749,1.26259 0,1.3649 1.11019,2.47544 2.47474,2.47544 0.4505,0 0.88124,-0.11959 1.26294,-0.34748 l 4.56636,4.566 -4.84717,4.84717 c -0.75988,0.75953 -1.76953,1.17792 -2.84374,1.17792"
       style="fill:#00589d;fill-opacity:1;fill-rule:nonzero;stroke:none;stroke-width:0.352778"
       id="path193"
       inkscape:export-filename="C:\Users\laura\OneDrive\Desktop\MCM\path73.png"
       inkscape:export-xdpi="300"
       inkscape:export-ydpi="300" />
    <path
       d="m 104.26867,170.96363 -0.24589,0.19226 c -0.31503,0.24624 -0.69109,0.37642 -1.08796,0.37642 -0.97579,0 -1.76954,-0.79375 -1.76954,-1.76954 0,-0.39652 0.13018,-0.77293 0.37677,-1.08761 l 0.19191,-0.24624 -5.914319,-5.91432 c 1.63477,0.77682 3.43606,1.18428 5.257449,1.18428 2.20486,0 4.36527,-0.59302 6.24805,-1.71486 l 0.32385,-0.19296 -0.21379,-0.31045 c -0.30903,-0.44838 -0.47237,-0.97367 -0.47237,-1.518 0,-1.47708 1.20156,-2.67864 2.67865,-2.67864 0.53692,0 1.05515,0.15804 1.49789,0.4572 0.085,0.0572 0.17216,0.12594 0.27411,0.21625 l 0.24835,0.21978 6.15139,-6.15139 c 0.44803,0.393 1.02411,0.61243 1.62842,0.61243 1.3649,0 2.47509,-1.11055 2.47509,-2.47545 0,-0.6043 -0.21943,-1.18039 -0.61207,-1.62842 l 4.75157,-4.75156 4.84716,4.84716 c 1.56775,1.5681 1.56775,4.11904 0,5.68714 l -21.6408,21.64044 z"
       style="fill:#001e6b;fill-opacity:1;fill-rule:nonzero;stroke:none;stroke-width:0.352778"
       id="path201"
       inkscape:export-filename="C:\Users\laura\OneDrive\Desktop\MCM\path73.png"
       inkscape:export-xdpi="300"
       inkscape:export-ydpi="300" />
    <path
       d="m 71.242611,154.31725 c -1.56774,-1.5681 -1.56774,-4.11939 0,-5.68713 l 21.6408,-21.6408 5.12304,5.12304 0.24835,-0.21661 c 0.32244,-0.28116 0.73449,-0.43603 1.15994,-0.43603 0.976129,0 1.769879,0.79375 1.769879,1.76953 0,0.42545 -0.15487,0.83785 -0.43603,1.16029 l -0.21661,0.24835 5.79332,5.79332 c -1.63301,-0.77682 -3.42688,-1.18322 -5.25321,-1.18322 -2.155479,0 -4.274959,0.56868 -6.128809,1.6443 l -0.34572,0.20073 0.242,0.31821 c 0.35807,0.47131 0.54751,1.03081 0.54751,1.61784 0,1.47708 -1.20191,2.67934 -2.67899,2.67934 -0.59796,0 -1.16452,-0.19508 -1.63936,-0.56409 -0.0868,-0.067 -0.17004,-0.13723 -0.248,-0.21413 l -0.24942,-0.24765 -6.17149,6.17149 c -0.42757,-0.3242 -0.94615,-0.49989 -1.4919,-0.49989 -1.36454,0 -2.47473,1.1102 -2.47473,2.47474 0,0.5461 0.17533,1.06468 0.49988,1.49225 l -4.84328,4.84293 z"
       style="fill:#001e6b;fill-opacity:1;fill-rule:nonzero;stroke:none;stroke-width:0.352778"
       id="path209"
       inkscape:export-filename="C:\Users\laura\OneDrive\Desktop\MCM\path73.png"
       inkscape:export-xdpi="300"
       inkscape:export-ydpi="300" />
    <path
       d="m 112.11761,156.72333 c 1.68698,-3.55318 1.56386,-7.76958 -0.38135,-11.2328 l -0.20638,-0.36689 -0.32526,0.26741 c -0.47695,0.39194 -1.0802,0.60819 -1.69898,0.60819 -1.47743,0 -2.67899,-1.20227 -2.67899,-2.67935 0,-0.64876 0.23777,-1.276 0.66887,-1.76671 0.0667,-0.0759 0.13723,-0.14676 0.21202,-0.21414 l 0.27446,-0.2487 -6.50064,-6.50099 c 0.26529,-0.40252 0.40887,-0.87524 0.40887,-1.36031 0,-1.36455 -1.11054,-2.47474 -2.475439,-2.47474 -0.48507,0 -0.95744,0.14358 -1.35961,0.40887 l -4.67289,-4.67254 4.84716,-4.84717 c 0.75954,-0.75953 1.76919,-1.17757 2.843389,-1.17757 1.07421,0 2.08421,0.41804 2.84375,1.17757 l 21.64079,21.64045 -5.27543,5.27508 0.29492,0.24801 c 0.40322,0.33761 0.63429,0.83185 0.63429,1.35572 0,0.97614 -0.79375,1.76989 -1.76953,1.76989 -0.52423,0 -1.01847,-0.23107 -1.35608,-0.6343 l -0.24765,-0.29527 z"
       style="fill:#00589d;fill-opacity:1;fill-rule:nonzero;stroke:none;stroke-width:0.352778"
       id="path217"
       inkscape:export-filename="C:\Users\laura\OneDrive\Desktop\MCM\path73.png"
       inkscape:export-xdpi="300"
       inkscape:export-ydpi="300" />
    <path
       d="m 101.07748,163.18216 c -1.869719,0 -3.716159,-0.44803 -5.367509,-1.29857 0.38488,-0.56621 0.59337,-1.23543 0.59337,-1.92405 0,-1.89266 -1.53988,-3.43253 -3.43323,-3.43253 -0.73202,0 -1.4351,0.23177 -2.02036,0.6604 -1.97732,-3.52849 -1.99461,-7.81015 -0.0438,-11.35274 0.5334,0.32349 1.13771,0.49318 1.76883,0.49318 1.89336,0 3.43323,-1.54023 3.43323,-3.43323 0,-0.61878 -0.16369,-1.2125 -0.47625,-1.7392 1.6951,-0.91122 3.60186,-1.39065 5.539669,-1.39065 2.01542,0 3.98886,0.51576 5.73229,1.49543 -0.387,0.56762 -0.5969,1.23895 -0.5969,1.93004 0,1.89266 1.53987,3.43288 3.43288,3.43288 0.65052,0 1.28799,-0.18662 1.83409,-0.53093 1.77694,3.43253 1.73849,7.56709 -0.10407,10.96363 -0.4886,-0.25682 -1.03223,-0.39088 -1.59173,-0.39088 -1.89265,0 -3.43253,1.54023 -3.43253,3.43324 0,0.56973 0.13935,1.12289 0.4064,1.61995 -1.72826,0.9585 -3.68265,1.46403 -5.67408,1.46403 z"
       style="fill:#62c5c0;fill-opacity:1;fill-rule:nonzero;stroke:none;stroke-width:0.352778"
       id="path225"
       inkscape:export-filename="C:\Users\laura\OneDrive\Desktop\MCM\path73.png"
       inkscape:export-xdpi="300"
       inkscape:export-ydpi="300" />
    <path
       d="m 65.137221,206.02194 c -0.13582,0 -0.18486,-0.037 -0.19756,-0.21026 -0.0741,-0.98777 -0.90134,-1.81504 -2.4204,-1.81504 -1.5928,0 -2.79048,1.06222 -2.79048,2.88961 0,1.80304 1.19768,2.8896 2.79048,2.8896 1.50671,0 2.32163,-0.71649 2.4204,-1.67958 0.0127,-0.18521 0.0494,-0.22225 0.20991,-0.22225 h 0.69144 c 0.0741,0 0.19791,-0.0247 0.19791,0.0988 0,1.46932 -1.29681,2.74144 -3.51966,2.74144 -2.19781,0 -3.87738,-1.43263 -3.87738,-3.82799 0,-2.39572 1.67957,-3.828 3.87738,-3.828 2.34632,0 3.51966,1.50637 3.51966,2.83987 0,0.0617 -0.0497,0.12382 -0.18556,0.12382 z"
       style="fill:#001e6b;fill-opacity:1;fill-rule:nonzero;stroke:none;stroke-width:0.352778"
       id="path401"
       inkscape:export-filename="C:\Users\laura\OneDrive\Desktop\MCM\path73.png"
       inkscape:export-xdpi="300"
       inkscape:export-ydpi="300" />
    <path
       d="m 69.223761,206.88632 c 0,1.80269 1.32115,2.88925 2.9143,2.88925 1.61748,0 2.91394,-1.08656 2.91394,-2.88925 0,-1.82774 -1.28411,-2.8896 -2.91394,-2.8896 -1.59315,0 -2.9143,1.06186 -2.9143,2.8896 m 6.91515,0 c 0,2.39536 -1.7907,3.82799 -4.00085,3.82799 -2.19816,0 -4.00121,-1.43263 -4.00121,-3.82799 0,-2.39571 1.80305,-3.82834 4.00121,-3.82834 2.22285,0 4.00085,1.43263 4.00085,3.82834"
       style="fill:#001e6b;fill-opacity:1;fill-rule:nonzero;stroke:none;stroke-width:0.352778"
       id="path405"
       inkscape:export-filename="C:\Users\laura\OneDrive\Desktop\MCM\path73.png"
       inkscape:export-xdpi="300"
       inkscape:export-ydpi="300" />
    <path
       d="m 87.029051,203.18145 c 0.0741,0 0.14817,0.0744 0.14817,0.14852 v 7.1127 c 0,0.0741 -0.0741,0.14817 -0.14817,0.14817 h -0.79022 c -0.0741,0 -0.14817,-0.0741 -0.14817,-0.14817 v -5.34705 h -0.0374 c 0,0 -0.16052,0.41981 -0.4318,0.80257 l -2.63031,3.75426 -2.63032,-3.75426 c -0.27163,-0.38276 -0.43215,-0.80257 -0.43215,-0.80257 h -0.037 v 5.34705 c 0,0.0741 -0.0741,0.14817 -0.14817,0.14817 h -0.79057 c -0.0741,0 -0.14782,-0.0741 -0.14782,-0.14817 v -7.1127 c 0,-0.0741 0.0737,-0.14852 0.14782,-0.14852 h 0.50659 c 0.0861,0 0.17251,0.037 0.23459,0.12382 l 3.28472,4.66761 h 0.0247 l 3.28436,-4.66761 c 0.0617,-0.0868 0.14817,-0.12382 0.2346,-0.12382 z"
       style="fill:#001e6b;fill-opacity:1;fill-rule:nonzero;stroke:none;stroke-width:0.352778"
       id="path409"
       inkscape:export-filename="C:\Users\laura\OneDrive\Desktop\MCM\path73.png"
       inkscape:export-xdpi="300"
       inkscape:export-ydpi="300" />
    <path
       d="m 98.511551,203.18145 c 0.0741,0 0.14817,0.0744 0.14817,0.14852 v 7.1127 c 0,0.0741 -0.0741,0.14817 -0.14817,0.14817 h -0.79022 c -0.0741,0 -0.14817,-0.0741 -0.14817,-0.14817 v -5.34705 h -0.037 c 0,0 -0.16051,0.41981 -0.43215,0.80257 l -2.63031,3.75426 -2.62996,-3.75426 c -0.27199,-0.38276 -0.43251,-0.80257 -0.43251,-0.80257 h -0.0367 v 5.34705 c 0,0.0741 -0.0744,0.14817 -0.14852,0.14817 h -0.79057 c -0.0741,0 -0.14782,-0.0741 -0.14782,-0.14817 v -7.1127 c 0,-0.0741 0.0737,-0.14852 0.14782,-0.14852 h 0.50659 c 0.0864,0 0.17286,0.037 0.23459,0.12382 l 3.28472,4.66761 h 0.0247 l 3.28472,-4.66761 c 0.0617,-0.0868 0.14816,-0.12382 0.23459,-0.12382 z"
       style="fill:#001e6b;fill-opacity:1;fill-rule:nonzero;stroke:none;stroke-width:0.352778"
       id="path413"
       inkscape:export-filename="C:\Users\laura\OneDrive\Desktop\MCM\path73.png"
       inkscape:export-xdpi="300"
       inkscape:export-ydpi="300" />
    <path
       d="m 107.87049,203.32993 c 0,-0.0741 0.0741,-0.14852 0.14817,-0.14852 h 0.79022 c 0.0741,0 0.14817,0.0744 0.14817,0.14852 v 3.80294 c 0,2.39572 -1.44463,3.5814 -3.65478,3.5814 -2.19851,0 -3.65549,-1.18568 -3.65549,-3.5814 v -3.80294 c 0,-0.0741 0.0741,-0.14852 0.14817,-0.14852 h 0.79058 c 0.0741,0 0.14781,0.0744 0.14781,0.14852 v 3.80294 c 0,1.8034 0.97578,2.64266 2.56893,2.64266 1.61748,0 2.56822,-0.83926 2.56822,-2.64266 z"
       style="fill:#001e6b;fill-opacity:1;fill-rule:nonzero;stroke:none;stroke-width:0.352778"
       id="path417"
       inkscape:export-filename="C:\Users\laura\OneDrive\Desktop\MCM\path73.png"
       inkscape:export-xdpi="300"
       inkscape:export-ydpi="300" />
    <path
       d="m 113.53734,205.50311 c -0.28399,-0.29633 -0.46919,-0.59267 -0.46919,-0.59267 h -0.0371 v 5.53226 c 0,0.0741 -0.0744,0.14817 -0.14816,0.14817 h -0.79058 c -0.0741,0 -0.14816,-0.0741 -0.14816,-0.14817 V 203.33 c 0,-0.0741 0.0741,-0.14852 0.14816,-0.14852 h 0.59302 l 4.85317,4.96429 c 0.32067,0.32103 0.55527,0.69144 0.55527,0.69144 h 0.0497 V 203.33 c 0,-0.0741 0.0741,-0.14852 0.14817,-0.14852 h 0.79022 c 0.0741,0 0.14816,0.0744 0.14816,0.14852 v 7.1127 c 0,0.0741 -0.0741,0.14817 -0.14816,0.14817 h -0.58067 z"
       style="fill:#001e6b;fill-opacity:1;fill-rule:nonzero;stroke:none;stroke-width:0.352778"
       id="path421"
       inkscape:export-filename="C:\Users\laura\OneDrive\Desktop\MCM\path73.png"
       inkscape:export-xdpi="300"
       inkscape:export-ydpi="300" />
    <path
       d="m 123.42754,210.44267 c 0,0.0741 -0.0744,0.14817 -0.14852,0.14817 h -0.79022 c -0.0741,0 -0.14817,-0.0741 -0.14817,-0.14817 v -7.11271 c 0,-0.0741 0.0741,-0.14851 0.14817,-0.14851 h 0.79022 c 0.0741,0 0.14852,0.0744 0.14852,0.14851 z"
       style="fill:#001e6b;fill-opacity:1;fill-rule:nonzero;stroke:none;stroke-width:0.352778"
       id="path425"
       inkscape:export-filename="C:\Users\laura\OneDrive\Desktop\MCM\path73.png"
       inkscape:export-xdpi="300"
       inkscape:export-ydpi="300" />
    <path
       d="m 125.7237,203.94729 v -0.59302 c 0,-0.0741 0.0984,-0.17286 0.17251,-0.17286 h 6.9402 c 0.0741,0 0.1725,0.0988 0.1725,0.17286 v 0.59302 c 0,0.0741 -0.0984,0.17286 -0.1725,0.17286 h -2.92665 v 6.32248 c 0,0.0741 -0.0741,0.14817 -0.14817,0.14817 h -0.79022 c -0.0744,0 -0.14852,-0.0741 -0.14852,-0.14817 v -6.32248 h -2.92664 c -0.0741,0 -0.17251,-0.0988 -0.17251,-0.17286"
       style="fill:#001e6b;fill-opacity:1;fill-rule:nonzero;stroke:none;stroke-width:0.352778"
       id="path429"
       inkscape:export-filename="C:\Users\laura\OneDrive\Desktop\MCM\path73.png"
       inkscape:export-xdpi="300"
       inkscape:export-ydpi="300" />
    <path
       d="m 134.53933,203.35441 c -0.0367,-0.0494 -0.0494,-0.0741 -0.0494,-0.0984 0,-0.0374 0.0247,-0.0744 0.0741,-0.0744 h 0.93839 c 0.14817,0 0.19756,0.0123 0.29634,0.14852 l 1.86478,2.4324 c 0.27164,0.34572 0.53093,0.75318 0.53093,0.75318 h 0.0741 c 0,0 0.27164,-0.40746 0.53093,-0.75318 l 1.86479,-2.4324 c 0.0988,-0.13617 0.14816,-0.14852 0.29633,-0.14852 h 0.93839 c 0.0494,0 0.0741,0.037 0.0741,0.0744 0,0.0243 -0.0123,0.049 -0.049,0.0984 l -3.14925,4.13702 v 2.95134 c 0,0.0741 -0.0741,0.14817 -0.14817,0.14817 h -0.79022 c -0.0741,0 -0.14817,-0.0741 -0.14817,-0.14817 v -2.95134 z"
       style="fill:#001e6b;fill-opacity:1;fill-rule:nonzero;stroke:none;stroke-width:0.352778"
       id="path433"
       inkscape:export-filename="C:\Users\laura\OneDrive\Desktop\MCM\path73.png"
       inkscape:export-xdpi="300"
       inkscape:export-ydpi="300" />
    <path
       id="path197-9"
       style="fill:#ffffff;fill-opacity:1;fill-rule:nonzero;stroke:none;stroke-width:0.352773"
       d="m 101.0727,120.11273 c -1.119179,0 -2.239045,0.42674 -3.09334,1.28124 l -5.096552,5.09658 -21.889639,21.88965 c -1.708144,1.70807 -1.708144,4.47793 0,6.18605 l 5.096601,5.09671 21.890301,21.88957 c 0.853544,0.85413 1.973469,1.28113 3.092629,1.28113 1.11994,0 2.23847,-0.427 3.09281,-1.28113 l 5.09662,-5.09669 21.88976,-21.88959 c 1.70823,-1.70814 1.70823,-4.47799 0,-6.18605 l -5.09591,-5.09665 h -7.2e-4 l -21.88975,-21.88958 c -0.85434,-0.85415 -1.9732,-1.28124 -3.09281,-1.28124 z m 0,0.70541 c 0.98014,0 1.90116,0.38164 2.5942,1.0745 l 21.39106,21.39091 -4.75413,4.75339 -0.54407,0.54478 0.59029,0.49539 c 0.32276,0.27009 0.50773,0.66577 0.50773,1.08547 0,0.78117 -0.63542,1.41704 -1.41682,1.41704 -0.41947,0 -0.81481,-0.18517 -1.08553,-0.50789 l -0.49474,-0.59086 -0.5455,0.54476 -4.25144,4.25276 c 1.03444,-3.27768 0.69624,-6.90412 -1.02043,-9.96065 l -0.41238,-0.7346 -0.65077,0.53503 c -0.42013,0.34534 -0.93025,0.52824 -1.47503,0.52824 -0.62167,0 -1.2057,-0.24223 -1.64483,-0.68176 -0.43954,-0.43922 -0.68104,-1.02329 -0.68105,-1.64495 0,-0.56295 0.20646,-1.10766 0.58098,-1.53342 0.0568,-0.0636 0.11813,-0.12675 0.18378,-0.18711 l 0.54865,-0.49734 -0.52361,-0.52361 -6.04648,-6.04592 c 0.20845,-0.40007 0.32009,-0.84653 0.32009,-1.30292 0,-1.55929 -1.26866,-2.82798 -2.827921,-2.82798 -0.456501,0 -0.903499,0.11101 -1.303636,0.3195 l -4.230352,-4.23035 4.59786,-4.59791 c 0.693041,-0.69286 1.614199,-1.0745 2.594079,-1.0745 z m -8.189892,6.66978 4.640661,4.64074 0.465764,0.46565 0.496681,-0.43279 c 0.258606,-0.22551 0.588276,-0.34913 0.928835,-0.34913 0.780871,0 1.416921,0.6353 1.416921,1.41627 0,0.34044 -0.12419,0.67023 -0.34906,0.92889 l -0.4335,0.49662 0.46558,0.4657 4.3629,4.36218 c -1.22375,-0.38735 -2.50691,-0.58692 -3.80613,-0.58692 -2.217229,0 -4.397856,0.58491 -6.306036,1.69161 l -0.691671,0.40116 0.484147,0.63632 c 0.311512,0.40925 0.476296,0.89526 0.476296,1.40503 0,1.28264 -1.043915,2.32605 -2.326636,2.32605 -0.518218,0 -1.010496,-0.1695 -1.422916,-0.48945 -0.08782,-0.0679 -0.156831,-0.12825 -0.215377,-0.18641 l -0.498641,-0.4954 -0.497313,0.49734 -5.717782,5.71783 c -0.433213,-0.25974 -0.929006,-0.39862 -1.447222,-0.39862 -1.559275,0 -2.827935,1.2688 -2.827935,2.8279 0,0.51827 0.13793,1.01477 0.397206,1.448 l -4.38781,4.38846 -4.597281,-4.59731 c -0.69322,-0.6932 -1.07505,-1.61479 -1.07505,-2.59469 0,-0.98007 0.38183,-1.90126 1.07505,-2.59418 z m 8.131342,7.13332 6.45615,6.45555 -5.2e-4,7.2e-4 z m 0.0567,4.97925 h 6e-4 v 0.51656 c 1.83216,0 3.62739,0.4394 5.23778,1.27666 -0.29732,0.5485 -0.45537,1.16514 -0.45537,1.79626 -2.9e-4,1.0111 0.39398,1.96129 1.10873,2.67635 0.71515,0.71512 1.66559,1.10948 2.67719,1.10948 0.58584,0 1.16235,-0.13749 1.68227,-0.39522 1.50929,3.16286 1.46973,6.88525 -0.1097,10.01327 -0.45237,-0.18553 -0.93802,-0.28201 -1.43544,-0.28201 -1.01106,0 -1.96178,0.39358 -2.67641,1.10866 -0.71499,0.71504 -1.10868,1.66575 -1.10868,2.67705 0,0.5091 0.10119,1.00594 0.29576,1.46766 -1.60279,0.82834 -3.39034,1.2642 -5.2112,1.2642 -1.686307,0 -3.353247,-0.37569 -4.866666,-1.09226 0.290554,-0.54395 0.445297,-1.1537 0.445297,-1.77785 0,-2.0874 -1.697727,-3.78573 -3.785169,-3.78573 -0.671618,0 -1.32094,0.17669 -1.891718,0.50787 -1.684277,-3.25258 -1.695609,-7.1063 -0.0274,-10.36841 0.503393,0.24167 1.053318,0.36696 1.623819,0.36696 1.011028,0 1.961779,-0.39365 2.676356,-1.10872 0.715187,-0.71505 1.109363,-1.66523 1.109363,-2.67636 0,-0.55667 -0.120282,-1.09528 -0.351114,-1.59015 1.564213,-0.77859 3.300242,-1.18771 5.061652,-1.18771 z m 24.98577,4.68101 4.5973,4.59727 c 0.69289,0.6929 1.07446,1.61475 1.07446,2.59469 0,0.97977 -0.38157,1.90056 -1.07446,2.59353 l -21.39112,21.39083 -4.52346,-4.5234 -0.4414,-0.44144 -0.49268,0.38478 c -0.25184,0.19719 -0.55307,0.30104 -0.87015,0.30104 -0.78135,0 -1.41706,-0.63485 -1.41706,-1.41628 0,-0.31716 0.10461,-0.61865 0.30173,-0.87085 l 0.3847,-0.49205 -0.44135,-0.44137 -4.496557,-4.49648 c 1.226975,0.38872 2.513984,0.58957 3.810817,0.58957 2.26837,0 4.49075,-0.61051 6.42866,-1.76483 l 0.64754,-0.38586 -0.42762,-0.62055 c -0.26838,-0.38958 -0.41038,-0.84464 -0.41038,-1.31745 0,-0.62164 0.24233,-1.20539 0.68183,-1.6449 0.43928,-0.43919 1.0229,-0.68174 1.64414,-0.68174 0.46642,0 0.91634,0.13715 1.30032,0.39652 0.0725,0.049 0.14762,0.10858 0.23785,0.18841 l 0.49741,0.43947 0.46893,-0.46917 5.69679,-5.69667 c 0.46608,0.32041 1.02124,0.49611 1.59939,0.49611 1.55927,0 2.82805,-1.26875 2.82805,-2.8281 0,-0.57807 -0.17618,-1.13361 -0.49611,-1.59938 z m -36.983162,3.3958 c -1.083446,3.41237 -0.668537,7.17008 1.240329,10.31501 l 0.45383,0.74771 0.634368,-0.60146 c 0.434944,-0.41179 1.002625,-0.63823 1.597392,-0.63823 1.282707,0 2.326033,1.04322 2.326033,2.32593 0,0.56524 -0.207493,1.11128 -0.584975,1.53807 -0.08202,0.0936 -0.162251,0.17201 -0.243733,0.24045 l -0.587465,0.49536 0.543253,0.54291 5.92143,5.9213 c -0.1753,0.37171 -0.26684,0.778 -0.26684,1.19817 0,1.55929 1.26868,2.82733 2.82803,2.82733 0.42058,0 0.82565,-0.0908 1.19763,-0.26621 l 4.13273,4.1322 -4.59854,4.59796 c -0.69303,0.69286 -1.61408,1.07445 -2.59419,1.07445 -0.97992,0 -1.900515,-0.38159 -2.593406,-1.07445 l -21.391607,-21.39084 4.82719,-4.82729 0.501291,-0.50127 -0.503925,-0.49867 c -0.271302,-0.26837 -0.420935,-0.62652 -0.420935,-1.00724 0,-0.78092 0.635882,-1.41687 1.416936,-1.41687 0.38101,0 0.738704,0.14959 1.007191,0.42096 l 0.498666,0.50393 0.501299,-0.50133 z m 2.271211,9.61216 c -0.0128,0.007 -0.02451,0.0192 -0.03691,0.0289 v -0.003 c 0.0125,-0.007 0.0234,-0.018 0.03691,-0.0255 z m 19.798911,0.0478 c 0.0659,0.0324 0.13234,0.0673 0.19631,0.10587 -10e-4,0.001 -10e-4,0.003 -0.002,0.004 -0.0618,-0.0417 -0.12894,-0.0742 -0.19359,-0.11098 z m -20.226513,0.25095 v 0.0392 c -0.004,-0.007 -0.008,-0.0189 -0.0155,-0.028 0.004,-0.003 0.008,-0.005 0.0155,-0.008 z m 4.668413,3.81592 c -0.002,0.003 -0.004,0.007 -0.006,0.009 h -6.11e-4 c 0.002,-0.003 0.005,-0.007 0.007,-0.009 z m 11.44287,0.077 c 0.0391,0.0657 0.0727,0.13577 0.1172,0.19893 -0.001,0.001 -0.003,0.001 -0.004,0.002 -0.0397,-0.065 -0.0767,-0.13287 -0.11154,-0.20162 z m -6.18486,7.91925 c -0.0203,0.1178 -0.0295,0.23856 -0.0295,0.36171 0,0.0734 0.002,0.14529 0.008,0.21675 -0.006,-0.071 -0.009,-0.14351 -0.009,-0.21675 0,-0.12325 0.008,-0.24439 0.0315,-0.36171 z" />
  </g>
</svg>
