<?xml version="1.0" encoding="UTF-8" standalone="no"?>
<!-- Created with Inkscape (http://www.inkscape.org/) -->

<svg
   version="1.1"
   id="svg9"
   xml:space="preserve"
   width="64"
   height="64.000511"
   viewBox="0 0 64.000002 64.000514"
   sodipodi:docname="messageix-favicon.svg"
   inkscape:export-filename="C:\Users\laura\OneDrive\Desktop\MCM\New\messageix-favicon.png"
   inkscape:export-xdpi="1200.0004"
   inkscape:export-ydpi="1200.0004"
   inkscape:version="1.1.2 (b8e25be833, 2022-02-05)"
   xmlns:inkscape="http://www.inkscape.org/namespaces/inkscape"
   xmlns:sodipodi="http://sodipodi.sourceforge.net/DTD/sodipodi-0.dtd"
   xmlns="http://www.w3.org/2000/svg"
   xmlns:svg="http://www.w3.org/2000/svg"><sodipodi:namedview
     id="namedview15"
     pagecolor="#505050"
     bordercolor="#eeeeee"
     borderopacity="1"
     inkscape:pageshadow="0"
     inkscape:pageopacity="0"
     inkscape:pagecheckerboard="0"
     showgrid="false"
     inkscape:zoom="12.859272"
     inkscape:cx="32.000256"
     inkscape:cy="32.039138"
     inkscape:window-width="1920"
     inkscape:window-height="1009"
     inkscape:window-x="-8"
     inkscape:window-y="-8"
     inkscape:window-maximized="1"
     inkscape:current-layer="svg9" /><defs
     id="defs13"><clipPath
       clipPathUnits="userSpaceOnUse"
       id="clipPath25"><path
         d="M 0,811 H 1366 V 0 H 0 Z"
         id="path23" /></clipPath></defs><g
     id="g15"
     transform="matrix(1.3333333,0,0,-1.3333333,-888.83629,562.49721)"><g
       id="g19"><path
         d="m 690.63314,383.94986 c -2.17533,0 -4.32575,0.51012 -6.25775,1.48052 0.4251,0.67282 0.65524,1.45559 0.65524,2.26035 0,2.33951 -1.90561,4.24366 -4.24659,4.24366 -0.85752,0 -1.68134,-0.258 -2.38201,-0.7344 -2.26182,4.13665 -2.27941,9.1147 -0.0469,13.26308 0.63325,-0.3562 1.33833,-0.54237 2.07565,-0.54237 2.34098,0 4.24659,1.90562 4.24659,4.24659 0,0.71974 -0.1803,1.41309 -0.52478,2.03608 1.98771,1.04369 4.21288,1.59192 6.47323,1.59192 2.35124,0 4.6541,-0.58928 6.6975,-1.71212 -0.42949,-0.67723 -0.66256,-1.46293 -0.66256,-2.27208 0,-1.13311 0.44122,-2.20025 1.24304,-3.00061 0.80183,-0.80183 1.86604,-1.24305 3.00061,-1.24305 0.75785,0 1.50397,0.20376 2.15335,0.58488 2.03021,-4.02231 1.98477,-8.83179 -0.12753,-12.80866 -0.57608,0.27997 -1.20933,0.42656 -1.85724,0.42656 -2.34098,0 -4.24513,-1.90561 -4.24513,-4.24659 0,-0.66257 0.15245,-1.30608 0.44562,-1.89242 -2.02874,-1.10086 -4.31255,-1.68134 -6.63886,-1.68134 z"
         style="fill:#62c5c0;fill-opacity:1;fill-rule:nonzero;stroke:none;stroke-width:1.46586"
         id="path117" /><path
         d="m 690.77005,385.17077 -4.72153,4.72153 c 0.085,0.0718 0.16418,0.14951 0.23747,0.23307 0.35474,0.40018 0.57022,0.92495 0.57022,1.49957 0,1.25331 -1.01437,2.26768 -2.26768,2.26768 -0.60247,0 -1.1507,-0.23747 -1.55674,-0.62152 -1.696,2.79392 -1.71212,6.31931 -0.0484,9.12643 -0.0733,0.0572 -0.14365,0.1158 -0.20961,0.18176 l -4.6028,-4.60425 -2.24422,-2.24423 -3.98274,-3.98274 16.3707,-16.37069 c 1.27676,-1.27823 3.34802,-1.27823 4.62624,0 l 3.81123,3.81123 -3.75699,3.75552 z"
         style="fill:#00589d;fill-opacity:1;fill-rule:nonzero;stroke:none;stroke-width:1.46586"
         id="path125" /><path
         d="m 690.77005,385.17077 -4.72153,4.72153 c 0.085,0.0718 0.16418,0.14951 0.23747,0.23307 0.35474,0.40018 0.57022,0.92495 0.57022,1.49957 0,1.25331 -1.01437,2.26768 -2.26768,2.26768 -0.60247,0 -1.1507,-0.23747 -1.55674,-0.62152 -1.696,2.79392 -1.71212,6.31931 -0.0484,9.12643 -0.0733,0.0572 -0.14365,0.1158 -0.20961,0.18176 l -4.6028,-4.60425 -2.24422,-2.24423 -3.98274,-3.98274 16.3707,-16.37069 c 1.27676,-1.27823 3.34802,-1.27823 4.62624,0 l 3.81123,3.81123 -3.75699,3.75552 z"
         style="fill:none;stroke:#ffffff;stroke-width:1.09939;stroke-linecap:butt;stroke-linejoin:miter;stroke-miterlimit:10;stroke-dasharray:none;stroke-opacity:1"
         id="path129" /><path
         d="m 703.14819,397.83402 -4.61305,-4.61305 c -0.0733,0.066 -0.14952,0.12753 -0.23161,0.18323 -0.36207,0.2448 -0.79889,0.38699 -1.26797,0.38699 -1.25184,0 -2.26768,-1.01584 -2.26768,-2.26769 0,-0.4764 0.14805,-0.91909 0.40018,-1.28409 -2.72356,-1.6227 -6.12582,-1.65935 -8.88163,-0.11433 -0.0733,-0.0836 -0.15245,-0.16125 -0.23747,-0.23308 l 4.72153,-4.72152 2.22517,-2.22517 3.75699,-3.757 16.3707,16.3707 c 1.27676,1.27823 1.27676,3.34948 0,4.62625 l -3.81123,3.81269 -3.9285,-3.9285 z"
         style="fill:#001e6b;fill-opacity:1;stroke:#ffffff;stroke-width:1.09939;stroke-linecap:butt;stroke-linejoin:miter;stroke-miterlimit:10;stroke-dasharray:none;stroke-opacity:1"
         id="path137" /><path
         d="m 688.34626,412.71292 -3.84348,3.84348 -16.37069,-16.3707 c -1.27823,-1.27823 -1.27823,-3.34948 0,-4.62624 l 3.81122,-3.81123 3.98274,3.98273 2.24423,2.24423 4.60426,4.60426 c 0.066,-0.066 0.13632,-0.1246 0.20961,-0.18177 0.38259,-0.29757 0.86339,-0.47787 1.3867,-0.47787 1.25331,0 2.26769,1.01584 2.26769,2.26768 0,0.51598 -0.17298,0.98946 -0.46321,1.37058 2.79685,1.62124 6.28706,1.59045 9.05753,-0.0924 0.0557,0.0645 0.1158,0.1246 0.17883,0.18177 l -4.82853,4.82853"
         style="fill:#001e6b;fill-opacity:1;fill-rule:nonzero;stroke:#ffffff;stroke-width:1.09939;stroke-linecap:butt;stroke-linejoin:miter;stroke-miterlimit:10;stroke-dasharray:none;stroke-opacity:1"
         id="path141" /><path
         d="m 709.31154,403.99737 -16.3707,16.3707 c -1.27822,1.27822 -3.34948,1.27822 -4.62624,0 l -3.81123,-3.81123 3.84348,-3.84348 2.23689,-2.2369 4.82854,-4.82853 c -0.063,-0.0572 -0.12313,-0.11727 -0.17884,-0.18177 -0.3518,-0.40018 -0.56728,-0.92203 -0.56728,-1.49518 0,-1.2533 1.01584,-2.26768 2.26768,-2.26768 0.54676,0 1.04662,0.1935 1.43801,0.51452 1.53475,-2.73236 1.51276,-6.1009 -0.0689,-8.8142 0.0821,-0.0542 0.15831,-0.11727 0.23307,-0.18177 l 4.61159,4.61159 z"
         style="fill:#00589d;fill-opacity:1;fill-rule:nonzero;stroke:none;stroke-width:1.46586"
         id="path145" /><path
         d="m 709.31154,403.99737 -16.3707,16.3707 c -1.27822,1.27822 -3.34948,1.27822 -4.62624,0 l -3.81123,-3.81123 3.84348,-3.84348 2.23689,-2.2369 4.82854,-4.82853 c -0.063,-0.0572 -0.12313,-0.11727 -0.17884,-0.18177 -0.3518,-0.40018 -0.56728,-0.92203 -0.56728,-1.49518 0,-1.2533 1.01584,-2.26768 2.26768,-2.26768 0.54676,0 1.04662,0.1935 1.43801,0.51452 1.53475,-2.73236 1.51276,-6.1009 -0.0689,-8.8142 0.0821,-0.0542 0.15831,-0.11727 0.23307,-0.18177 l 4.61159,4.61159 z"
         style="fill:none;stroke:#ffffff;stroke-width:1.09939;stroke-linecap:butt;stroke-linejoin:miter;stroke-miterlimit:10;stroke-dasharray:none;stroke-opacity:1"
         id="path149" /></g></g></svg>
