<?xml version="1.0" encoding="UTF-8" standalone="no"?>
<!-- Created with Inkscape (http://www.inkscape.org/) -->

<svg
   width="99.740456mm"
   height="79.144356mm"
   viewBox="0 0 99.740456 79.144356"
   version="1.1"
   id="svg1234"
   inkscape:version="1.1.2 (b8e25be833, 2022-02-05)"
   sodipodi:docname="messageix-logo-white.svg"
   inkscape:export-filename="C:\Users\laura\OneDrive\Desktop\MCM\New\messageix-logo-white.png"
   inkscape:export-xdpi="203.72876"
   inkscape:export-ydpi="203.72876"
   xmlns:inkscape="http://www.inkscape.org/namespaces/inkscape"
   xmlns:sodipodi="http://sodipodi.sourceforge.net/DTD/sodipodi-0.dtd"
   xmlns="http://www.w3.org/2000/svg"
   xmlns:svg="http://www.w3.org/2000/svg">
  <sodipodi:namedview
     id="namedview1236"
     pagecolor="#505050"
     bordercolor="#eeeeee"
     borderopacity="1"
     inkscape:pageshadow="0"
     inkscape:pageopacity="0"
     inkscape:pagecheckerboard="0"
     inkscape:document-units="mm"
     showgrid="false"
     inkscape:zoom="2.0737236"
     inkscape:cx="190.71973"
     inkscape:cy="176.73522"
     inkscape:window-width="1284"
     inkscape:window-height="1032"
     inkscape:window-x="90"
     inkscape:window-y="230"
     inkscape:window-maximized="0"
     inkscape:current-layer="layer1" />
  <defs
     id="defs1231" />
  <g
     inkscape:label="Layer 1"
     inkscape:groupmode="layer"
     id="layer1"
     transform="translate(-51.165061,-120.11273)">
    <path
       d="m 63.766991,187.58613 c 0.11359,0 0.22684,0.11359 0.22684,0.22684 v 10.89871 c 0,0.11395 -0.11325,0.22754 -0.22684,0.22754 h -1.21109 c -0.11359,0 -0.22683,-0.11359 -0.22683,-0.22754 v -8.19256 h -0.0568 c 0,0 -0.24624,0.64312 -0.66252,1.22979 l -4.03013,5.75204 -4.03049,-5.75204 c -0.41627,-0.58667 -0.66216,-1.22979 -0.66216,-1.22979 h -0.0568 v 8.19256 c 0,0.11395 -0.11359,0.22754 -0.22683,0.22754 h -1.21109 c -0.11359,0 -0.22719,-0.11359 -0.22719,-0.22754 v -10.89871 c 0,-0.11325 0.1136,-0.22684 0.22719,-0.22684 h 0.77576 c 0.13229,0 0.26494,0.0564 0.35948,0.18909 l 5.03308,7.15257 h 0.0378 l 5.03308,-7.15257 c 0.0949,-0.13265 0.22719,-0.18909 0.35948,-0.18909 z"
       style="fill:#ffffff;fill-opacity:1;fill-rule:nonzero;stroke:none;stroke-width:0.352778"
       id="path73" />
    <path
       d="m 68.916101,193.79212 v 3.70875 h 7.18996 c 0.1136,0 0.26529,0.15099 0.26529,0.26459 v 0.9084 c 0,0.11359 -0.15169,0.26529 -0.26529,0.26529 h -8.62788 c -0.11395,0 -0.22719,-0.1136 -0.22719,-0.22719 v -10.89907 c 0,-0.11324 0.11324,-0.22684 0.22719,-0.22684 h 8.43879 c 0.1136,0 0.26494,0.15099 0.26494,0.26494 v 0.9077 c 0,0.11359 -0.15134,0.26529 -0.26494,0.26529 h -7.00087 v 3.33022 h 6.43326 c 0.11359,0 0.26493,0.15169 0.26493,0.26493 v 0.90841 c 0,0.11289 -0.15134,0.26458 -0.26493,0.26458 z"
       style="fill:#ffffff;fill-opacity:1;fill-rule:nonzero;stroke:none;stroke-width:0.352778"
       id="path77" />
    <path
       d="m 79.476051,195.11698 c 0.20814,0 0.26494,0.0945 0.26494,0.26458 0,1.40053 0.98389,2.30858 3.55705,2.30858 2.34668,0 3.17924,-0.9839 3.17924,-2.17593 0,-0.68122 -0.39758,-1.40018 -1.93005,-1.51412 l -3.15983,-0.22613 c -2.28988,-0.18945 -3.31152,-1.21144 -3.31152,-2.80106 0,-1.72156 1.49471,-3.57611 4.80624,-3.57611 3.51931,0 4.78719,1.60832 4.78719,3.55777 0,0.0942 -0.0758,0.18908 -0.28398,0.18908 h -1.11619 c -0.18944,0 -0.26494,-0.0568 -0.28399,-0.32208 -0.0945,-0.9839 -0.88935,-1.98685 -3.10303,-1.98685 -1.9491,0 -3.14113,0.92746 -3.14113,2.13819 0,0.68121 0.45437,1.26788 1.7974,1.36278 l 3.10338,0.22684 c 2.59222,0.20814 3.50027,1.47567 3.50027,2.95169 0,1.53282 -1.28658,3.61421 -4.844,3.61421 -3.46216,0 -5.22216,-1.62737 -5.22216,-3.61421 v -0.18874 c 0,-0.13264 0.0568,-0.20849 0.22718,-0.20849 z"
       style="fill:#ffffff;fill-opacity:1;fill-rule:nonzero;stroke:none;stroke-width:0.352778"
       id="path81" />
    <path
       d="m 91.436191,195.11698 c 0.20814,0 0.26494,0.0945 0.26494,0.26458 0,1.40053 0.98389,2.30858 3.55705,2.30858 2.34668,0 3.17924,-0.9839 3.17924,-2.17593 0,-0.68122 -0.39758,-1.40018 -1.93005,-1.51412 l -3.15983,-0.22613 c -2.28988,-0.18945 -3.31152,-1.21144 -3.31152,-2.80106 0,-1.72156 1.49471,-3.57611 4.80624,-3.57611 3.51931,0 4.78719,1.60832 4.78719,3.55777 0,0.0942 -0.0758,0.18908 -0.28398,0.18908 h -1.11619 c -0.18944,0 -0.26494,-0.0568 -0.28399,-0.32208 -0.0945,-0.9839 -0.88935,-1.98685 -3.10303,-1.98685 -1.9491,0 -3.14113,0.92746 -3.14113,2.13819 0,0.68121 0.45437,1.26788 1.7974,1.36278 l 3.10338,0.22684 c 2.59222,0.20814 3.500269,1.47567 3.500269,2.95169 0,1.53282 -1.286579,3.61421 -4.843999,3.61421 -3.46216,0 -5.22216,-1.62737 -5.22216,-3.61421 v -0.18874 c 0,-0.13264 0.0568,-0.20849 0.22718,-0.20849 z"
       style="fill:#ffffff;fill-opacity:1;fill-rule:nonzero;stroke:none;stroke-width:0.352778"
       id="path85" />
    <path
       d="m 104.79654,195.15466 h 4.86304 l -1.51377,-3.02754 c -0.28398,-0.56762 -0.8516,-2.08103 -0.8516,-2.08103 h -0.11325 c 0,0 -0.56797,1.51341 -0.8516,2.08103 z m 5.582,1.43827 h -6.30096 l -1.0407,2.10009 c -0.13229,0.24624 -0.17039,0.24624 -0.39722,0.24624 h -1.23014 c -0.11324,0 -0.17004,-0.0759 -0.17004,-0.13264 0,-0.0568 0.0568,-0.1517 0.0945,-0.22684 l 5.56295,-10.99361 h 0.68121 l 5.56296,10.99361 c 0.0377,0.0751 0.0945,0.17004 0.0945,0.22684 0,0.0568 -0.0568,0.13264 -0.17039,0.13264 h -1.22979 c -0.22718,0 -0.26493,0 -0.39722,-0.24624 z"
       style="fill:#ffffff;fill-opacity:1;fill-rule:nonzero;stroke:none;stroke-width:0.352778"
       id="path89" />
    <path
       d="m 129.72008,193.79212 v 3.70875 h 7.18996 c 0.11395,0 0.26529,0.15099 0.26529,0.26459 v 0.9084 c 0,0.11359 -0.15134,0.26529 -0.26529,0.26529 h -8.62788 c -0.1136,0 -0.22719,-0.1136 -0.22719,-0.22719 v -10.89907 c 0,-0.11324 0.11359,-0.22684 0.22719,-0.22684 h 8.43915 c 0.11324,0 0.26458,0.15099 0.26458,0.26494 v 0.9077 c 0,0.11359 -0.15134,0.26529 -0.26458,0.26529 h -7.00123 v 3.33022 h 6.43326 c 0.11359,0 0.26528,0.15169 0.26528,0.26493 v 0.90841 c 0,0.11289 -0.15169,0.26458 -0.26528,0.26458 z"
       style="fill:#ffffff;fill-opacity:1;fill-rule:nonzero;stroke:none;stroke-width:0.352778"
       id="path93" />
    <path
       d="m 119.58635,197.69004 c -2.34703,0 -4.29366,-1.66511 -4.29366,-4.42701 0,-2.80105 1.94663,-4.42842 4.29366,-4.42842 1.66123,0 3.07481,0.78246 3.79024,2.19005 0.0536,0.10583 0.15911,0.17568 0.27764,0.17568 h 1.05375 c 0.22824,0 0.37641,-0.2346 0.28786,-0.44485 -0.90028,-2.13819 -2.97109,-3.35845 -5.40949,-3.35845 -3.2385,0 -5.89492,2.19463 -5.89492,5.86599 0,3.6703 2.65642,5.86528 5.89492,5.86528 2.49273,0 4.62245,-1.28658 5.48464,-3.53659 0.0804,-0.20955 -0.066,-0.43674 -0.29069,-0.43674 h -1.05128 c -0.12277,0 -0.23072,0.0744 -0.28222,0.18591 -0.69462,1.49613 -2.15583,2.34915 -3.86045,2.34915"
       style="fill:#ffffff;fill-opacity:1;fill-rule:nonzero;stroke:none;stroke-width:0.352778"
       id="path97" />
    <path
       d="m 126.54704,193.88741 h -6.39127 c -0.19474,0 -0.35278,-0.15804 -0.35278,-0.35278 v -0.71367 c 0,-0.19508 0.15804,-0.35277 0.35278,-0.35277 h 6.39127 c 0.19473,0 0.35278,0.15769 0.35278,0.35277 v 0.71367 c 0,0.19474 -0.15805,0.35278 -0.35278,0.35278"
       style="fill:#62c5c0;fill-opacity:1;fill-rule:nonzero;stroke:none;stroke-width:0.352778"
       id="path101" />
    <path
       id="path105"
       style="fill:#ffffff;fill-opacity:1;fill-rule:nonzero;stroke:none;stroke-width:1.33333"
       d="m 531.38086,707.7832 c -3.504,0 -6.34375,2.84108 -6.34375,6.34375 v 32.62696 c 0,3.504 2.83975,6.34375 6.34375,6.34375 h 32.62695 c 3.504,0 6.34375,-2.83975 6.34375,-6.34375 v -32.62696 c 0,-3.50267 -2.83975,-6.34375 -6.34375,-6.34375 z m 11.17578,12.85157 h 6.20898 c 0.39334,0 0.55629,0.067 0.84961,0.45898 l 3.5625,4.70508 h 0.0645 c 0,0 0.62166,-1.01249 1.01367,-1.53516 l 2.35352,-3.16992 c 0.2948,-0.39197 0.42443,-0.45703 0.8164,-0.45703 h 6.04688 c 0.13077,0 0.19726,0.0971 0.19726,0.19726 0,0.0639 -0.0303,0.1622 -0.13086,0.29297 l -6.89648,9.28125 c 0,0 4.73847,6.27553 7.0918,9.38086 0.0986,0.13077 0.13085,0.19634 0.13085,0.26172 0,0.0971 -0.0645,0.19531 -0.19531,0.19531 h -6.17773 c -0.39202,0 -0.5883,-0.064 -0.84961,-0.39062 l -3.82422,-5.06836 h -0.0644 c 0,0 -0.55615,0.98213 -0.88282,1.43945 l -2.55078,3.49805 c -0.26267,0.35868 -0.58641,0.52148 -1.01172,0.52148 h -6.01562 c -0.12926,0 -0.19531,-0.0978 -0.19531,-0.19531 0,-0.0654 0.0318,-0.13095 0.13086,-0.26172 l 7.05859,-9.64258 -6.79688,-9.05273 c -0.0654,-0.0975 -0.13085,-0.19784 -0.13085,-0.26172 0,-0.10016 0.0665,-0.19726 0.19726,-0.19726 z m -8.20508,0.002 h 5.09571 c 0.19729,0 0.39453,0.19672 0.39453,0.39258 v 18.82422 c 0,0.19615 -0.19736,0.39257 -0.39453,0.39257 h -5.09571 c -0.19615,0 -0.39453,-0.19672 -0.39453,-0.39257 V 721.0293 c 0,-0.19616 0.19849,-0.39258 0.39453,-0.39258 z"
       transform="scale(0.26458333)" />
    <path
       d="m 101.073,182.48161 c -1.074209,0 -2.083859,-0.41839 -2.843739,-1.17792 l -21.64045,-21.6408 5.32695,-5.32695 -0.25224,-0.24941 c -0.33867,-0.33479 -0.52493,-0.78176 -0.52493,-1.25766 0,-0.97543 0.79375,-1.76918 1.76953,-1.76918 0.47519,0 0.92216,0.18627 1.2573,0.52529 l 0.24941,0.25188 5.60917,-5.60916 c -1.75966,3.69429 -1.55963,8.03839 0.59126,11.58204 l 0.22683,0.37395 0.31715,-0.30057 c 0.50094,-0.47413 1.15429,-0.73554 1.83938,-0.73554 1.47744,0 2.67935,1.20191 2.67935,2.67899 0,0.65158 -0.23954,1.28094 -0.67381,1.77201 -0.0945,0.10654 -0.18591,0.19685 -0.28045,0.27657 l -0.29387,0.2473 6.377519,6.37752 c -0.2279,0.3817 -0.34749,0.81245 -0.34749,1.26259 0,1.3649 1.11019,2.47544 2.47474,2.47544 0.4505,0 0.88124,-0.11959 1.26294,-0.34748 l 4.56636,4.566 -4.84717,4.84717 c -0.75988,0.75953 -1.76953,1.17792 -2.84374,1.17792"
       style="fill:#00589d;fill-opacity:1;fill-rule:nonzero;stroke:none;stroke-width:0.352778"
       id="path193" />
    <path
       d="m 104.26867,170.96363 -0.24589,0.19226 c -0.31503,0.24624 -0.69109,0.37642 -1.08796,0.37642 -0.97579,0 -1.76954,-0.79375 -1.76954,-1.76954 0,-0.39652 0.13018,-0.77293 0.37677,-1.08761 l 0.19191,-0.24624 -5.914319,-5.91432 c 1.63477,0.77682 3.43606,1.18428 5.257449,1.18428 2.20486,0 4.36527,-0.59302 6.24805,-1.71486 l 0.32385,-0.19296 -0.21379,-0.31045 c -0.30903,-0.44838 -0.47237,-0.97367 -0.47237,-1.518 0,-1.47708 1.20156,-2.67864 2.67865,-2.67864 0.53692,0 1.05515,0.15804 1.49789,0.4572 0.085,0.0572 0.17216,0.12594 0.27411,0.21625 l 0.24835,0.21978 6.15139,-6.15139 c 0.44803,0.393 1.02411,0.61243 1.62842,0.61243 1.3649,0 2.47509,-1.11055 2.47509,-2.47545 0,-0.6043 -0.21943,-1.18039 -0.61207,-1.62842 l 4.75157,-4.75156 4.84716,4.84716 c 1.56775,1.5681 1.56775,4.11904 0,5.68714 l -21.6408,21.64044 z"
       style="fill:#001e6b;fill-opacity:1;fill-rule:nonzero;stroke:none;stroke-width:0.352778"
       id="path201" />
    <path
       d="m 71.242611,154.31725 c -1.56774,-1.5681 -1.56774,-4.11939 0,-5.68713 l 21.6408,-21.6408 5.12304,5.12304 0.24835,-0.21661 c 0.32244,-0.28116 0.73449,-0.43603 1.15994,-0.43603 0.976129,0 1.769879,0.79375 1.769879,1.76953 0,0.42545 -0.15487,0.83785 -0.43603,1.16029 l -0.21661,0.24835 5.79332,5.79332 c -1.63301,-0.77682 -3.42688,-1.18322 -5.25321,-1.18322 -2.155479,0 -4.274959,0.56868 -6.128809,1.6443 l -0.34572,0.20073 0.242,0.31821 c 0.35807,0.47131 0.54751,1.03081 0.54751,1.61784 0,1.47708 -1.20191,2.67934 -2.67899,2.67934 -0.59796,0 -1.16452,-0.19508 -1.63936,-0.56409 -0.0868,-0.067 -0.17004,-0.13723 -0.248,-0.21413 l -0.24942,-0.24765 -6.17149,6.17149 c -0.42757,-0.3242 -0.94615,-0.49989 -1.4919,-0.49989 -1.36454,0 -2.47473,1.1102 -2.47473,2.47474 0,0.5461 0.17533,1.06468 0.49988,1.49225 l -4.84328,4.84293 z"
       style="fill:#001e6b;fill-opacity:1;fill-rule:nonzero;stroke:none;stroke-width:0.352778"
       id="path209" />
    <path
       d="m 112.11761,156.72333 c 1.68698,-3.55318 1.56386,-7.76958 -0.38135,-11.2328 l -0.20638,-0.36689 -0.32526,0.26741 c -0.47695,0.39194 -1.0802,0.60819 -1.69898,0.60819 -1.47743,0 -2.67899,-1.20227 -2.67899,-2.67935 0,-0.64876 0.23777,-1.276 0.66887,-1.76671 0.0667,-0.0759 0.13723,-0.14676 0.21202,-0.21414 l 0.27446,-0.2487 -6.50064,-6.50099 c 0.26529,-0.40252 0.40887,-0.87524 0.40887,-1.36031 0,-1.36455 -1.11054,-2.47474 -2.475439,-2.47474 -0.48507,0 -0.95744,0.14358 -1.35961,0.40887 l -4.67289,-4.67254 4.84716,-4.84717 c 0.75954,-0.75953 1.76919,-1.17757 2.843389,-1.17757 1.07421,0 2.08421,0.41804 2.84375,1.17757 l 21.64079,21.64045 -5.27543,5.27508 0.29492,0.24801 c 0.40322,0.33761 0.63429,0.83185 0.63429,1.35572 0,0.97614 -0.79375,1.76989 -1.76953,1.76989 -0.52423,0 -1.01847,-0.23107 -1.35608,-0.6343 l -0.24765,-0.29527 z"
       style="fill:#00589d;fill-opacity:1;fill-rule:nonzero;stroke:none;stroke-width:0.352778"
       id="path217" />
    <path
       d="m 101.07748,163.18216 c -1.869719,0 -3.716159,-0.44803 -5.367509,-1.29857 0.38488,-0.56621 0.59337,-1.23543 0.59337,-1.92405 0,-1.89266 -1.53988,-3.43253 -3.43323,-3.43253 -0.73202,0 -1.4351,0.23177 -2.02036,0.6604 -1.97732,-3.52849 -1.99461,-7.81015 -0.0438,-11.35274 0.5334,0.32349 1.13771,0.49318 1.76883,0.49318 1.89336,0 3.43323,-1.54023 3.43323,-3.43323 0,-0.61878 -0.16369,-1.2125 -0.47625,-1.7392 1.6951,-0.91122 3.60186,-1.39065 5.539669,-1.39065 2.01542,0 3.98886,0.51576 5.73229,1.49543 -0.387,0.56762 -0.5969,1.23895 -0.5969,1.93004 0,1.89266 1.53987,3.43288 3.43288,3.43288 0.65052,0 1.28799,-0.18662 1.83409,-0.53093 1.77694,3.43253 1.73849,7.56709 -0.10407,10.96363 -0.4886,-0.25682 -1.03223,-0.39088 -1.59173,-0.39088 -1.89265,0 -3.43253,1.54023 -3.43253,3.43324 0,0.56973 0.13935,1.12289 0.4064,1.61995 -1.72826,0.9585 -3.68265,1.46403 -5.67408,1.46403 z"
       style="fill:#62c5c0;fill-opacity:1;fill-rule:nonzero;stroke:none;stroke-width:0.352778"
       id="path225" />
    <path
       id="path197-9"
       style="fill:#ffffff;fill-opacity:1;fill-rule:nonzero;stroke:none;stroke-width:0.352775"
       d="m 101.07278,120.11273 c -1.119172,0 -2.239042,0.42674 -3.093332,1.28124 l -5.096571,5.09661 -21.889703,21.88977 c -1.708151,1.70807 -1.708151,4.47796 0,6.18608 l 5.096616,5.09673 21.890368,21.8897 c 0.85354,0.85412 1.97347,1.28113 3.092622,1.28113 1.11993,0 2.23847,-0.42701 3.09281,-1.28113 l 5.0966,-5.09672 21.88971,-21.88971 c 1.70822,-1.70814 1.70822,-4.47802 0,-6.18608 l -5.0959,-5.09668 h -7.2e-4 l -21.88969,-21.8897 c -0.85434,-0.85415 -1.97321,-1.28124 -3.09281,-1.28124 z m 0,0.70542 c 0.98014,0 1.90116,0.38164 2.5942,1.07451 l 21.391,21.39101 -4.75411,4.75341 -0.54407,0.54479 0.59028,0.49539 c 0.32276,0.2701 0.50773,0.66578 0.50773,1.08548 0,0.78117 -0.63541,1.41706 -1.41681,1.41706 -0.41947,0 -0.81481,-0.18518 -1.08553,-0.50792 l -0.49475,-0.59085 -0.54549,0.54477 -4.25143,4.25278 c 1.03444,-3.27771 0.69624,-6.90417 -1.02043,-9.96071 l -0.41238,-0.73461 -0.65076,0.53503 c -0.42013,0.34535 -0.93025,0.52826 -1.47502,0.52826 -0.62166,0 -1.20571,-0.24224 -1.64483,-0.68177 -0.43954,-0.43923 -0.68103,-1.0233 -0.68104,-1.64496 0,-0.56295 0.20645,-1.10767 0.58097,-1.53342 0.0568,-0.0636 0.11814,-0.12676 0.18378,-0.18712 l 0.54864,-0.49734 -0.5236,-0.5236 -6.04647,-6.04595 c 0.20845,-0.40008 0.32009,-0.84655 0.32009,-1.30295 0,-1.55929 -1.26866,-2.82798 -2.827916,-2.82798 -0.456495,0 -0.903494,0.11101 -1.30364,0.31951 l -4.230361,-4.23039 4.597878,-4.59792 c 0.693036,-0.69287 1.614199,-1.07451 2.594069,-1.07451 z m -8.189903,6.6698 4.64068,4.64078 0.465764,0.46565 0.496682,-0.4328 c 0.258601,-0.2255 0.588278,-0.34914 0.928831,-0.34914 0.780866,0 1.416916,0.63532 1.416916,1.41629 0,0.34044 -0.12419,0.67023 -0.34906,0.92889 l -0.43349,0.49662 0.46558,0.46572 4.3629,4.36219 c -1.22376,-0.38735 -2.50693,-0.58692 -3.80614,-0.58692 -2.217226,0 -4.397859,0.58491 -6.306041,1.69162 l -0.691673,0.40117 0.484149,0.6363 c 0.311512,0.40926 0.476297,0.89527 0.476297,1.40505 0,1.28265 -1.043919,2.32607 -2.326643,2.32607 -0.518218,0 -1.0105,-0.16951 -1.422919,-0.48945 -0.08782,-0.0679 -0.156833,-0.12827 -0.215379,-0.18641 l -0.498643,-0.49541 -0.497313,0.49734 -5.7178,5.71786 c -0.433215,-0.25975 -0.929008,-0.39863 -1.447226,-0.39863 -1.559279,0 -2.827944,1.26881 -2.827944,2.82792 0,0.51827 0.13793,1.01477 0.397207,1.44801 l -4.387822,4.38848 -4.597295,-4.59733 c -0.693222,-0.6932 -1.075052,-1.6148 -1.075052,-2.59471 0,-0.98007 0.38183,-1.90127 1.075052,-2.5942 z m 8.131353,7.13337 6.45615,6.45557 -5.2e-4,7.3e-4 z m 0.0567,4.97927 h 5.9e-4 v 0.51656 c 1.83216,0 3.62741,0.4394 5.23778,1.27668 -0.29732,0.5485 -0.45538,1.16514 -0.45538,1.79626 -2.9e-4,1.0111 0.39399,1.96129 1.10872,2.67637 0.71516,0.71512 1.6656,1.10948 2.6772,1.10948 0.58583,0 1.16234,-0.1375 1.68226,-0.39522 1.50929,3.16287 1.46973,6.88528 -0.10969,10.01332 -0.45238,-0.18553 -0.93803,-0.28201 -1.43546,-0.28201 -1.01104,0 -1.96176,0.39359 -2.67639,1.10866 -0.71498,0.71506 -1.10867,1.66577 -1.10867,2.67707 0,0.5091 0.10123,1.00595 0.29575,1.46766 -1.60277,0.82836 -3.39033,1.26421 -5.21119,1.26421 -1.686297,0 -3.353243,-0.37569 -4.866667,-1.09226 0.290556,-0.54396 0.445299,-1.1537 0.445299,-1.77787 0,-2.08739 -1.697735,-3.78574 -3.785183,-3.78574 -0.67162,0 -1.320944,0.17669 -1.891724,0.50787 -1.684281,-3.25259 -1.695614,-7.10633 -0.02741,-10.36846 0.503394,0.24167 1.053321,0.36696 1.623824,0.36696 1.01103,0 1.961783,-0.39366 2.676362,-1.10872 0.715193,-0.71507 1.109367,-1.66525 1.109367,-2.67637 0,-0.55668 -0.12028,-1.09529 -0.351113,-1.59017 1.564218,-0.77859 3.300253,-1.18772 5.061665,-1.18772 z m 24.9857,4.68105 4.59728,4.59727 c 0.69289,0.69292 1.07447,1.61477 1.07447,2.59471 0,0.97978 -0.38158,1.90057 -1.07447,2.59355 l -21.39106,21.39095 -4.52344,-4.52343 -0.44139,-0.44144 -0.49268,0.38478 c -0.25185,0.19718 -0.55308,0.30104 -0.87016,0.30104 -0.78136,0 -1.41706,-0.63486 -1.41706,-1.41629 0,-0.31717 0.10462,-0.61866 0.30172,-0.87086 l 0.38471,-0.49204 -0.44134,-0.44138 -4.496564,-4.49651 c 1.226975,0.38872 2.513985,0.58957 3.810814,0.58957 2.26837,0 4.49075,-0.61051 6.42866,-1.76483 l 0.64752,-0.38586 -0.4276,-0.62055 c -0.26839,-0.38959 -0.41039,-0.84464 -0.41039,-1.31746 0,-0.62164 0.24233,-1.20539 0.68184,-1.64491 0.43927,-0.43918 1.0229,-0.68175 1.64413,-0.68175 0.46642,0 0.91633,0.13716 1.30031,0.39652 0.0725,0.049 0.14762,0.10862 0.23786,0.18841 l 0.49739,0.43948 0.46894,-0.46917 5.69677,-5.69669 c 0.46607,0.32041 1.02124,0.4961 1.59939,0.4961 1.55927,0 2.82803,-1.26875 2.82803,-2.82811 0,-0.57809 -0.17616,-1.13362 -0.4961,-1.59939 z m -36.983126,3.3958 c -1.083449,3.41238 -0.668539,7.17012 1.240333,10.31507 l 0.453831,0.7477 0.63437,-0.60144 c 0.434946,-0.41179 1.002628,-0.63824 1.597397,-0.63824 1.282711,0 2.32604,1.04322 2.32604,2.32594 0,0.56524 -0.207494,1.11128 -0.584977,1.53808 -0.08202,0.0936 -0.162251,0.17201 -0.243733,0.24044 l -0.587468,0.49538 0.543255,0.54291 5.921438,5.92131 c -0.1753,0.37173 -0.26682,0.77802 -0.26682,1.19819 0,1.5593 1.26866,2.82734 2.82801,2.82734 0.42058,0 0.82565,-0.0908 1.19763,-0.2662 l 4.13271,4.13222 -4.59852,4.59798 c -0.69303,0.69285 -1.61408,1.07445 -2.59419,1.07445 -0.97991,0 -1.900506,-0.3816 -2.593402,-1.07445 l -21.39167,-21.39096 4.827204,-4.8273 0.501292,-0.50128 -0.503926,-0.49868 c -0.271303,-0.26836 -0.420937,-0.62651 -0.420937,-1.00724 0,-0.78092 0.635884,-1.41688 1.416941,-1.41688 0.381011,0 0.738705,0.14959 1.007194,0.42097 l 0.498667,0.50392 0.5013,-0.50132 z m 2.271218,9.61222 c -0.0128,0.007 -0.02451,0.0192 -0.03691,0.0289 v -0.003 c 0.0125,-0.007 0.02341,-0.0181 0.03691,-0.0255 z m 19.798918,0.0478 c 0.0659,0.0324 0.13233,0.0673 0.19629,0.10586 -10e-4,0.001 -10e-4,0.003 -0.002,0.004 -0.0618,-0.0417 -0.12892,-0.0742 -0.19358,-0.11098 z m -20.226521,0.25094 v 0.0392 c -0.004,-0.007 -0.008,-0.0189 -0.01551,-0.028 0.004,-0.003 0.008,-0.005 0.01551,-0.008 z m 4.668427,3.81594 c -0.002,0.003 -0.004,0.006 -0.006,0.009 h -6.1e-4 c 0.002,-0.003 0.005,-0.006 0.007,-0.009 z m 11.442864,0.0771 c 0.0391,0.0657 0.0727,0.13578 0.11721,0.19894 -10e-4,10e-4 -0.003,10e-4 -0.004,0.002 -0.0396,-0.065 -0.0767,-0.13289 -0.11154,-0.20164 z m -6.18484,7.91928 c -0.0203,0.1178 -0.0295,0.23856 -0.0295,0.36173 0,0.0733 0.002,0.14527 0.008,0.21675 -0.006,-0.0709 -0.009,-0.14351 -0.009,-0.21675 0,-0.12327 0.008,-0.2444 0.0315,-0.36173 z" />
  </g>
</svg>
