<?xml version="1.0" encoding="UTF-8" standalone="no"?>
<!-- Created with Inkscape (http://www.inkscape.org/) -->

<svg
   width="99.740578mm"
   height="79.144592mm"
   viewBox="0 0 99.740578 79.144592"
   version="1.1"
   id="svg1234"
   inkscape:version="1.1.2 (b8e25be833, 2022-02-05)"
   sodipodi:docname="messageix-logo.svg"
   inkscape:export-filename="C:\Users\laura\OneDrive\Desktop\MCM\New\messageix-logo.png"
   inkscape:export-xdpi="203.72852"
   inkscape:export-ydpi="203.72852"
   xmlns:inkscape="http://www.inkscape.org/namespaces/inkscape"
   xmlns:sodipodi="http://sodipodi.sourceforge.net/DTD/sodipodi-0.dtd"
   xmlns="http://www.w3.org/2000/svg"
   xmlns:svg="http://www.w3.org/2000/svg">
  <sodipodi:namedview
     id="namedview1236"
     pagecolor="#505050"
     bordercolor="#eeeeee"
     borderopacity="1"
     inkscape:pageshadow="0"
     inkscape:pageopacity="0"
     inkscape:pagecheckerboard="0"
     inkscape:document-units="mm"
     showgrid="false"
     inkscape:zoom="2.0737236"
     inkscape:cx="96.685981"
     inkscape:cy="144.42619"
     inkscape:window-width="1284"
     inkscape:window-height="1032"
     inkscape:window-x="180"
     inkscape:window-y="203"
     inkscape:window-maximized="0"
     inkscape:current-layer="layer1" />
  <defs
     id="defs1231" />
  <g
     inkscape:label="Layer 1"
     inkscape:groupmode="layer"
     id="layer1"
     transform="translate(-51.165061,-120.11273)">
    <path
       d="m 63.766991,187.58613 c 0.11359,0 0.22684,0.11359 0.22684,0.22684 v 10.89871 c 0,0.11395 -0.11325,0.22754 -0.22684,0.22754 h -1.21109 c -0.11359,0 -0.22683,-0.11359 -0.22683,-0.22754 v -8.19256 h -0.0568 c 0,0 -0.24624,0.64312 -0.66252,1.22979 l -4.03013,5.75204 -4.03049,-5.75204 c -0.41627,-0.58667 -0.66216,-1.22979 -0.66216,-1.22979 h -0.0568 v 8.19256 c 0,0.11395 -0.11359,0.22754 -0.22683,0.22754 h -1.21109 c -0.11359,0 -0.22719,-0.11359 -0.22719,-0.22754 v -10.89871 c 0,-0.11325 0.1136,-0.22684 0.22719,-0.22684 h 0.77576 c 0.13229,0 0.26494,0.0564 0.35948,0.18909 l 5.03308,7.15257 h 0.0378 l 5.03308,-7.15257 c 0.0949,-0.13265 0.22719,-0.18909 0.35948,-0.18909 z"
       style="fill:#001e6b;fill-opacity:1;fill-rule:nonzero;stroke:none;stroke-width:0.352778"
       id="path73" />
    <path
       d="m 68.916101,193.79212 v 3.70875 h 7.18996 c 0.1136,0 0.26529,0.15099 0.26529,0.26459 v 0.9084 c 0,0.11359 -0.15169,0.26529 -0.26529,0.26529 h -8.62788 c -0.11395,0 -0.22719,-0.1136 -0.22719,-0.22719 v -10.89907 c 0,-0.11324 0.11324,-0.22684 0.22719,-0.22684 h 8.43879 c 0.1136,0 0.26494,0.15099 0.26494,0.26494 v 0.9077 c 0,0.11359 -0.15134,0.26529 -0.26494,0.26529 h -7.00087 v 3.33022 h 6.43326 c 0.11359,0 0.26493,0.15169 0.26493,0.26493 v 0.90841 c 0,0.11289 -0.15134,0.26458 -0.26493,0.26458 z"
       style="fill:#001e6b;fill-opacity:1;fill-rule:nonzero;stroke:none;stroke-width:0.352778"
       id="path77" />
    <path
       d="m 79.476051,195.11698 c 0.20814,0 0.26494,0.0945 0.26494,0.26458 0,1.40053 0.98389,2.30858 3.55705,2.30858 2.34668,0 3.17924,-0.9839 3.17924,-2.17593 0,-0.68122 -0.39758,-1.40018 -1.93005,-1.51412 l -3.15983,-0.22613 c -2.28988,-0.18945 -3.31152,-1.21144 -3.31152,-2.80106 0,-1.72156 1.49471,-3.57611 4.80624,-3.57611 3.51931,0 4.78719,1.60832 4.78719,3.55777 0,0.0942 -0.0758,0.18908 -0.28398,0.18908 h -1.11619 c -0.18944,0 -0.26494,-0.0568 -0.28399,-0.32208 -0.0945,-0.9839 -0.88935,-1.98685 -3.10303,-1.98685 -1.9491,0 -3.14113,0.92746 -3.14113,2.13819 0,0.68121 0.45437,1.26788 1.7974,1.36278 l 3.10338,0.22684 c 2.59222,0.20814 3.50027,1.47567 3.50027,2.95169 0,1.53282 -1.28658,3.61421 -4.844,3.61421 -3.46216,0 -5.22216,-1.62737 -5.22216,-3.61421 v -0.18874 c 0,-0.13264 0.0568,-0.20849 0.22718,-0.20849 z"
       style="fill:#001e6b;fill-opacity:1;fill-rule:nonzero;stroke:none;stroke-width:0.352778"
       id="path81" />
    <path
       d="m 91.436191,195.11698 c 0.20814,0 0.26494,0.0945 0.26494,0.26458 0,1.40053 0.98389,2.30858 3.55705,2.30858 2.34668,0 3.17924,-0.9839 3.17924,-2.17593 0,-0.68122 -0.39758,-1.40018 -1.93005,-1.51412 l -3.15983,-0.22613 c -2.28988,-0.18945 -3.31152,-1.21144 -3.31152,-2.80106 0,-1.72156 1.49471,-3.57611 4.80624,-3.57611 3.51931,0 4.78719,1.60832 4.78719,3.55777 0,0.0942 -0.0758,0.18908 -0.28398,0.18908 h -1.11619 c -0.18944,0 -0.26494,-0.0568 -0.28399,-0.32208 -0.0945,-0.9839 -0.88935,-1.98685 -3.10303,-1.98685 -1.9491,0 -3.14113,0.92746 -3.14113,2.13819 0,0.68121 0.45437,1.26788 1.7974,1.36278 l 3.10338,0.22684 c 2.59222,0.20814 3.500269,1.47567 3.500269,2.95169 0,1.53282 -1.286579,3.61421 -4.843999,3.61421 -3.46216,0 -5.22216,-1.62737 -5.22216,-3.61421 v -0.18874 c 0,-0.13264 0.0568,-0.20849 0.22718,-0.20849 z"
       style="fill:#001e6b;fill-opacity:1;fill-rule:nonzero;stroke:none;stroke-width:0.352778"
       id="path85" />
    <path
       d="m 104.79654,195.15466 h 4.86304 l -1.51377,-3.02754 c -0.28398,-0.56762 -0.8516,-2.08103 -0.8516,-2.08103 h -0.11325 c 0,0 -0.56797,1.51341 -0.8516,2.08103 z m 5.582,1.43827 h -6.30096 l -1.0407,2.10009 c -0.13229,0.24624 -0.17039,0.24624 -0.39722,0.24624 h -1.23014 c -0.11324,0 -0.17004,-0.0759 -0.17004,-0.13264 0,-0.0568 0.0568,-0.1517 0.0945,-0.22684 l 5.56295,-10.99361 h 0.68121 l 5.56296,10.99361 c 0.0377,0.0751 0.0945,0.17004 0.0945,0.22684 0,0.0568 -0.0568,0.13264 -0.17039,0.13264 h -1.22979 c -0.22718,0 -0.26493,0 -0.39722,-0.24624 z"
       style="fill:#001e6b;fill-opacity:1;fill-rule:nonzero;stroke:none;stroke-width:0.352778"
       id="path89" />
    <path
       d="m 129.72008,193.79212 v 3.70875 h 7.18996 c 0.11395,0 0.26529,0.15099 0.26529,0.26459 v 0.9084 c 0,0.11359 -0.15134,0.26529 -0.26529,0.26529 h -8.62788 c -0.1136,0 -0.22719,-0.1136 -0.22719,-0.22719 v -10.89907 c 0,-0.11324 0.11359,-0.22684 0.22719,-0.22684 h 8.43915 c 0.11324,0 0.26458,0.15099 0.26458,0.26494 v 0.9077 c 0,0.11359 -0.15134,0.26529 -0.26458,0.26529 h -7.00123 v 3.33022 h 6.43326 c 0.11359,0 0.26528,0.15169 0.26528,0.26493 v 0.90841 c 0,0.11289 -0.15169,0.26458 -0.26528,0.26458 z"
       style="fill:#001e6b;fill-opacity:1;fill-rule:nonzero;stroke:none;stroke-width:0.352778"
       id="path93" />
    <path
       d="m 119.58635,197.69004 c -2.34703,0 -4.29366,-1.66511 -4.29366,-4.42701 0,-2.80105 1.94663,-4.42842 4.29366,-4.42842 1.66123,0 3.07481,0.78246 3.79024,2.19005 0.0536,0.10583 0.15911,0.17568 0.27764,0.17568 h 1.05375 c 0.22824,0 0.37641,-0.2346 0.28786,-0.44485 -0.90028,-2.13819 -2.97109,-3.35845 -5.40949,-3.35845 -3.2385,0 -5.89492,2.19463 -5.89492,5.86599 0,3.6703 2.65642,5.86528 5.89492,5.86528 2.49273,0 4.62245,-1.28658 5.48464,-3.53659 0.0804,-0.20955 -0.066,-0.43674 -0.29069,-0.43674 h -1.05128 c -0.12277,0 -0.23072,0.0744 -0.28222,0.18591 -0.69462,1.49613 -2.15583,2.34915 -3.86045,2.34915"
       style="fill:#001e6b;fill-opacity:1;fill-rule:nonzero;stroke:none;stroke-width:0.352778"
       id="path97" />
    <path
       d="m 126.54704,193.88741 h -6.39127 c -0.19474,0 -0.35278,-0.15804 -0.35278,-0.35278 v -0.71367 c 0,-0.19508 0.15804,-0.35277 0.35278,-0.35277 h 6.39127 c 0.19473,0 0.35278,0.15769 0.35278,0.35277 v 0.71367 c 0,0.19474 -0.15805,0.35278 -0.35278,0.35278"
       style="fill:#00589d;fill-opacity:1;fill-rule:nonzero;stroke:none;stroke-width:0.352778"
       id="path101" />
    <path
       d="m 149.22712,199.25732 h -8.63247 c -0.9271,0 -1.67852,-0.75142 -1.67852,-1.67852 v -8.63247 c 0,-0.92675 0.75142,-1.67852 1.67852,-1.67852 h 8.63247 c 0.9271,0 1.67852,0.75177 1.67852,1.67852 v 8.63247 c 0,0.9271 -0.75142,1.67852 -1.67852,1.67852"
       style="fill:#001e6b;fill-opacity:1;fill-rule:nonzero;stroke:none;stroke-width:0.352778"
       id="path105" />
    <path
       d="m 142.83304,195.75304 c 0,0.0519 -0.0519,0.10372 -0.10407,0.10372 h -1.34867 c -0.0519,0 -0.10407,-0.0519 -0.10407,-0.10372 v -4.98087 c 0,-0.0519 0.0522,-0.10372 0.10407,-0.10372 h 1.34867 c 0.0522,0 0.10407,0.0519 0.10407,0.10372 z"
       style="fill:#ffffff;fill-opacity:1;fill-rule:nonzero;stroke:none;stroke-width:0.352778"
       id="path109" />
    <path
       d="m 146.36147,192.03452 h 0.0173 c 0,0 0.16439,-0.26811 0.26811,-0.4064 l 0.62265,-0.83891 c 0.078,-0.10371 0.11254,-0.121 0.21625,-0.121 h 1.59985 c 0.0346,0 0.0519,0.0257 0.0519,0.0522 0,0.0169 -0.008,0.043 -0.0346,0.0776 l -1.82457,2.45569 c 0,0 1.25377,1.66052 1.87642,2.48214 0.0261,0.0346 0.0346,0.0519 0.0346,0.0692 0,0.0257 -0.0173,0.0519 -0.0519,0.0519 h -1.63442 c -0.10372,0 -0.15558,-0.0173 -0.22472,-0.10372 l -1.01177,-1.34056 h -0.0173 c 0,0 -0.14711,0.25965 -0.23354,0.38065 l -0.67451,0.92534 c -0.0695,0.0949 -0.15558,0.13829 -0.26811,0.13829 h -1.59138 c -0.0342,0 -0.0515,-0.0261 -0.0515,-0.0519 0,-0.0173 0.008,-0.0346 0.0342,-0.0692 l 1.86796,-2.55128 -1.79846,-2.39537 c -0.0173,-0.0258 -0.0349,-0.0519 -0.0349,-0.0688 0,-0.0265 0.0176,-0.0522 0.0522,-0.0522 h 1.64289 c 0.10407,0 0.14711,0.0173 0.22472,0.121 z"
       style="fill:#ffffff;fill-opacity:1;fill-rule:nonzero;stroke:none;stroke-width:0.352778"
       id="path113" />
    <path
       d="m 101.073,182.48161 c -1.074209,0 -2.083859,-0.41839 -2.843739,-1.17792 l -21.64045,-21.6408 5.32695,-5.32695 -0.25224,-0.24941 c -0.33867,-0.33479 -0.52493,-0.78176 -0.52493,-1.25766 0,-0.97543 0.79375,-1.76918 1.76953,-1.76918 0.47519,0 0.92216,0.18627 1.2573,0.52529 l 0.24941,0.25188 5.60917,-5.60916 c -1.75966,3.69429 -1.55963,8.03839 0.59126,11.58204 l 0.22683,0.37395 0.31715,-0.30057 c 0.50094,-0.47413 1.15429,-0.73554 1.83938,-0.73554 1.47744,0 2.67935,1.20191 2.67935,2.67899 0,0.65158 -0.23954,1.28094 -0.67381,1.77201 -0.0945,0.10654 -0.18591,0.19685 -0.28045,0.27657 l -0.29387,0.2473 6.377519,6.37752 c -0.2279,0.3817 -0.34749,0.81245 -0.34749,1.26259 0,1.3649 1.11019,2.47544 2.47474,2.47544 0.4505,0 0.88124,-0.11959 1.26294,-0.34748 l 4.56636,4.566 -4.84717,4.84717 c -0.75988,0.75953 -1.76953,1.17792 -2.84374,1.17792"
       style="fill:#00589d;fill-opacity:1;fill-rule:nonzero;stroke:none;stroke-width:0.352778"
       id="path193" />
    <path
       d="m 104.26867,170.96363 -0.24589,0.19226 c -0.31503,0.24624 -0.69109,0.37642 -1.08796,0.37642 -0.97579,0 -1.76954,-0.79375 -1.76954,-1.76954 0,-0.39652 0.13018,-0.77293 0.37677,-1.08761 l 0.19191,-0.24624 -5.914319,-5.91432 c 1.63477,0.77682 3.43606,1.18428 5.257449,1.18428 2.20486,0 4.36527,-0.59302 6.24805,-1.71486 l 0.32385,-0.19296 -0.21379,-0.31045 c -0.30903,-0.44838 -0.47237,-0.97367 -0.47237,-1.518 0,-1.47708 1.20156,-2.67864 2.67865,-2.67864 0.53692,0 1.05515,0.15804 1.49789,0.4572 0.085,0.0572 0.17216,0.12594 0.27411,0.21625 l 0.24835,0.21978 6.15139,-6.15139 c 0.44803,0.393 1.02411,0.61243 1.62842,0.61243 1.3649,0 2.47509,-1.11055 2.47509,-2.47545 0,-0.6043 -0.21943,-1.18039 -0.61207,-1.62842 l 4.75157,-4.75156 4.84716,4.84716 c 1.56775,1.5681 1.56775,4.11904 0,5.68714 l -21.6408,21.64044 z"
       style="fill:#001e6b;fill-opacity:1;fill-rule:nonzero;stroke:none;stroke-width:0.352778"
       id="path201" />
    <path
       d="m 71.242611,154.31725 c -1.56774,-1.5681 -1.56774,-4.11939 0,-5.68713 l 21.6408,-21.6408 5.12304,5.12304 0.24835,-0.21661 c 0.32244,-0.28116 0.73449,-0.43603 1.15994,-0.43603 0.976129,0 1.769879,0.79375 1.769879,1.76953 0,0.42545 -0.15487,0.83785 -0.43603,1.16029 l -0.21661,0.24835 5.79332,5.79332 c -1.63301,-0.77682 -3.42688,-1.18322 -5.25321,-1.18322 -2.155479,0 -4.274959,0.56868 -6.128809,1.6443 l -0.34572,0.20073 0.242,0.31821 c 0.35807,0.47131 0.54751,1.03081 0.54751,1.61784 0,1.47708 -1.20191,2.67934 -2.67899,2.67934 -0.59796,0 -1.16452,-0.19508 -1.63936,-0.56409 -0.0868,-0.067 -0.17004,-0.13723 -0.248,-0.21413 l -0.24942,-0.24765 -6.17149,6.17149 c -0.42757,-0.3242 -0.94615,-0.49989 -1.4919,-0.49989 -1.36454,0 -2.47473,1.1102 -2.47473,2.47474 0,0.5461 0.17533,1.06468 0.49988,1.49225 l -4.84328,4.84293 z"
       style="fill:#001e6b;fill-opacity:1;fill-rule:nonzero;stroke:none;stroke-width:0.352778"
       id="path209" />
    <path
       d="m 112.11761,156.72333 c 1.68698,-3.55318 1.56386,-7.76958 -0.38135,-11.2328 l -0.20638,-0.36689 -0.32526,0.26741 c -0.47695,0.39194 -1.0802,0.60819 -1.69898,0.60819 -1.47743,0 -2.67899,-1.20227 -2.67899,-2.67935 0,-0.64876 0.23777,-1.276 0.66887,-1.76671 0.0667,-0.0759 0.13723,-0.14676 0.21202,-0.21414 l 0.27446,-0.2487 -6.50064,-6.50099 c 0.26529,-0.40252 0.40887,-0.87524 0.40887,-1.36031 0,-1.36455 -1.11054,-2.47474 -2.475439,-2.47474 -0.48507,0 -0.95744,0.14358 -1.35961,0.40887 l -4.67289,-4.67254 4.84716,-4.84717 c 0.75954,-0.75953 1.76919,-1.17757 2.843389,-1.17757 1.07421,0 2.08421,0.41804 2.84375,1.17757 l 21.64079,21.64045 -5.27543,5.27508 0.29492,0.24801 c 0.40322,0.33761 0.63429,0.83185 0.63429,1.35572 0,0.97614 -0.79375,1.76989 -1.76953,1.76989 -0.52423,0 -1.01847,-0.23107 -1.35608,-0.6343 l -0.24765,-0.29527 z"
       style="fill:#00589d;fill-opacity:1;fill-rule:nonzero;stroke:none;stroke-width:0.352778"
       id="path217" />
    <path
       d="m 101.07748,163.18216 c -1.869719,0 -3.716159,-0.44803 -5.367509,-1.29857 0.38488,-0.56621 0.59337,-1.23543 0.59337,-1.92405 0,-1.89266 -1.53988,-3.43253 -3.43323,-3.43253 -0.73202,0 -1.4351,0.23177 -2.02036,0.6604 -1.97732,-3.52849 -1.99461,-7.81015 -0.0438,-11.35274 0.5334,0.32349 1.13771,0.49318 1.76883,0.49318 1.89336,0 3.43323,-1.54023 3.43323,-3.43323 0,-0.61878 -0.16369,-1.2125 -0.47625,-1.7392 1.6951,-0.91122 3.60186,-1.39065 5.539669,-1.39065 2.01542,0 3.98886,0.51576 5.73229,1.49543 -0.387,0.56762 -0.5969,1.23895 -0.5969,1.93004 0,1.89266 1.53987,3.43288 3.43288,3.43288 0.65052,0 1.28799,-0.18662 1.83409,-0.53093 1.77694,3.43253 1.73849,7.56709 -0.10407,10.96363 -0.4886,-0.25682 -1.03223,-0.39088 -1.59173,-0.39088 -1.89265,0 -3.43253,1.54023 -3.43253,3.43324 0,0.56973 0.13935,1.12289 0.4064,1.61995 -1.72826,0.9585 -3.68265,1.46403 -5.67408,1.46403 z"
       style="fill:#62c5c0;fill-opacity:1;fill-rule:nonzero;stroke:none;stroke-width:0.352778"
       id="path225" />
    <path
       id="path197-9"
       style="fill:#ffffff;fill-opacity:1;fill-rule:nonzero;stroke:none;stroke-width:0.352774"
       d="m 101.0727,120.11273 c -1.119183,0 -2.239049,0.42674 -3.093336,1.28124 l -5.096556,5.09659 -21.889638,21.8897 c -1.708145,1.70807 -1.708145,4.47795 0,6.18607 l 5.096601,5.09672 21.890303,21.88963 c 0.853537,0.85412 1.973463,1.28112 3.092626,1.28112 1.11994,0 2.23847,-0.427 3.09282,-1.28112 l 5.09662,-5.09671 21.88976,-21.88964 c 1.70822,-1.70814 1.70822,-4.47801 0,-6.18607 l -5.09592,-5.09666 h -7.2e-4 l -21.88974,-21.88963 c -0.85435,-0.85415 -1.97321,-1.28124 -3.09282,-1.28124 z m 0,0.70542 c 0.98013,0 1.90116,0.38163 2.5942,1.0745 l 21.39106,21.39095 -4.75412,4.7534 -0.54407,0.54478 0.59028,0.49539 c 0.32276,0.2701 0.50773,0.66578 0.50773,1.08548 0,0.78117 -0.63542,1.41705 -1.41682,1.41705 -0.41947,0 -0.81481,-0.18518 -1.08553,-0.50791 l -0.49475,-0.59085 -0.54549,0.54476 -4.25144,4.25277 c 1.03444,-3.27769 0.69624,-6.90414 -1.02043,-9.96068 l -0.41238,-0.7346 -0.65077,0.53503 c -0.42013,0.34534 -0.93025,0.52825 -1.47502,0.52825 -0.62167,0 -1.20571,-0.24223 -1.64483,-0.68176 -0.43954,-0.43923 -0.68105,-1.0233 -0.68106,-1.64496 0,-0.56295 0.20647,-1.10766 0.58099,-1.53342 0.0568,-0.0636 0.11813,-0.12675 0.18378,-0.18711 l 0.54864,-0.49734 -0.5236,-0.52361 -6.0465,-6.04593 c 0.20846,-0.40008 0.3201,-0.84654 0.3201,-1.30294 0,-1.55928 -1.26866,-2.82797 -2.827925,-2.82797 -0.456493,0 -0.903491,0.11101 -1.303636,0.3195 l -4.230348,-4.23037 4.597864,-4.59791 c 0.693034,-0.69287 1.614195,-1.0745 2.594075,-1.0745 z m -8.189892,6.66978 4.640665,4.64076 0.465763,0.46565 0.496681,-0.4328 c 0.2586,-0.2255 0.588276,-0.34913 0.928828,-0.34913 0.780865,0 1.416925,0.63531 1.416925,1.41628 0,0.34044 -0.12419,0.67023 -0.34907,0.92889 l -0.43349,0.49662 0.46558,0.46571 4.36291,4.36218 c -1.22376,-0.38735 -2.50692,-0.58692 -3.80614,-0.58692 -2.217233,0 -4.39786,0.58491 -6.306036,1.69162 l -0.691671,0.40117 0.484148,0.6363 c 0.311511,0.40926 0.476295,0.89526 0.476295,1.40505 0,1.28264 -1.043915,2.32605 -2.326636,2.32605 -0.518216,0 -1.010496,-0.1695 -1.422915,-0.48945 -0.08782,-0.0679 -0.156832,-0.12826 -0.215378,-0.18641 l -0.498641,-0.4954 -0.497312,0.49733 -5.717783,5.71785 c -0.433213,-0.25975 -0.929005,-0.39863 -1.447222,-0.39863 -1.559274,0 -2.827935,1.26881 -2.827935,2.82791 0,0.51827 0.13793,1.01477 0.397206,1.44801 l -4.387809,4.38847 -4.597281,-4.59732 c -0.693221,-0.6932 -1.07505,-1.6148 -1.07505,-2.5947 0,-0.98007 0.381829,-1.90127 1.07505,-2.59419 z m 8.131342,7.13335 6.45616,6.45555 -5.2e-4,7.3e-4 z m 0.0567,4.97925 h 5.9e-4 v 0.51656 c 1.83217,0 3.62742,0.4394 5.2378,1.27667 -0.29732,0.5485 -0.45537,1.16514 -0.45537,1.79626 -2.9e-4,1.0111 0.39398,1.96129 1.10871,2.67636 0.71517,0.71513 1.66561,1.10948 2.67721,1.10948 0.58583,0 1.16234,-0.1375 1.68226,-0.39522 1.5093,3.16286 1.46974,6.88526 -0.10969,10.01329 -0.45238,-0.18553 -0.93803,-0.28201 -1.43545,-0.28201 -1.01106,0 -1.96177,0.39359 -2.67641,1.10866 -0.71498,0.71505 -1.10867,1.66576 -1.10867,2.67706 0,0.5091 0.10123,1.00595 0.29575,1.46766 -1.60278,0.82835 -3.39034,1.2642 -5.21121,1.2642 -1.686299,0 -3.35324,-0.37569 -4.866659,-1.09225 0.290555,-0.54396 0.445297,-1.15371 0.445297,-1.77787 0,-2.08739 -1.697729,-3.78573 -3.785171,-3.78573 -0.671618,0 -1.32094,0.17669 -1.891718,0.50787 -1.684276,-3.25258 -1.695609,-7.10631 -0.02741,-10.36843 0.503393,0.24167 1.053319,0.36696 1.62382,0.36696 1.011026,0 1.961777,-0.39365 2.676354,-1.10872 0.71519,-0.71506 1.109363,-1.66524 1.109363,-2.67636 0,-0.55668 -0.120279,-1.09529 -0.351111,-1.59016 1.564213,-0.77859 3.300243,-1.18772 5.061655,-1.18772 z m 24.98577,4.68103 4.5973,4.59727 c 0.69289,0.69291 1.07446,1.61476 1.07446,2.5947 0,0.97977 -0.38157,1.90056 -1.07446,2.59354 l -21.39111,21.39088 -4.52346,-4.52341 -0.44139,-0.44144 -0.49269,0.38477 c -0.25185,0.19719 -0.55308,0.30104 -0.87016,0.30104 -0.78135,0 -1.41707,-0.63485 -1.41707,-1.41628 0,-0.31716 0.10462,-0.61865 0.30173,-0.87085 l 0.38471,-0.49205 -0.44135,-0.44137 -4.49656,-4.4965 c 1.226972,0.38872 2.513978,0.58957 3.81081,0.58957 2.26838,0 4.49076,-0.61051 6.42868,-1.76483 l 0.64753,-0.38586 -0.42761,-0.62055 c -0.26838,-0.38958 -0.41039,-0.84464 -0.41039,-1.31745 0,-0.62164 0.24234,-1.20539 0.68184,-1.64491 0.43927,-0.43918 1.02291,-0.68174 1.64414,-0.68174 0.46641,0 0.91633,0.13716 1.30031,0.39652 0.0725,0.049 0.14763,0.10862 0.23786,0.18841 l 0.4974,0.43948 0.46893,-0.46917 5.69678,-5.69668 c 0.46609,0.32041 1.02125,0.49611 1.5994,0.49611 1.55928,0 2.82805,-1.26876 2.82805,-2.82811 0,-0.57808 -0.17617,-1.13361 -0.49611,-1.59939 z m -36.983167,3.3958 c -1.083446,3.41237 -0.668537,7.1701 1.240329,10.31504 l 0.45383,0.7477 0.634368,-0.60145 c 0.434944,-0.41179 1.002625,-0.63823 1.597392,-0.63823 1.282707,0 2.326033,1.04321 2.326033,2.32593 0,0.56524 -0.207493,1.11128 -0.584975,1.53808 -0.08202,0.0936 -0.162251,0.172 -0.243733,0.24044 l -0.587465,0.49537 0.543253,0.54291 5.921435,5.9213 c -0.1753,0.37172 -0.26683,0.77801 -0.26683,1.19818 0,1.55929 1.26866,2.82734 2.82802,2.82734 0.42058,0 0.82566,-0.0908 1.19764,-0.26621 l 4.13272,4.13221 -4.59854,4.59797 c -0.69303,0.69285 -1.61409,1.07444 -2.5942,1.07444 -0.9799,0 -1.900507,-0.38159 -2.593402,-1.07444 l -21.391605,-21.39089 4.827189,-4.8273 0.501291,-0.50127 -0.503925,-0.49868 c -0.271302,-0.26836 -0.420935,-0.62651 -0.420935,-1.00724 0,-0.78092 0.635882,-1.41687 1.416936,-1.41687 0.38101,0 0.738704,0.14959 1.007191,0.42096 l 0.498666,0.50393 0.501299,-0.50133 z m 2.271212,9.61219 c -0.0128,0.007 -0.02451,0.0192 -0.03691,0.0289 v -0.003 c 0.0125,-0.007 0.02341,-0.0181 0.03691,-0.0255 z m 19.798925,0.0478 c 0.0659,0.0324 0.13234,0.0673 0.1963,0.10586 -10e-4,0.001 -10e-4,0.003 -0.002,0.004 -0.0618,-0.0417 -0.12893,-0.0742 -0.19359,-0.11098 z m -20.226528,0.25094 v 0.0392 c -0.004,-0.007 -0.008,-0.0189 -0.0155,-0.028 0.004,-0.003 0.008,-0.005 0.0155,-0.008 z m 4.668413,3.81593 c -0.002,0.003 -0.004,0.006 -0.006,0.009 h -6.1e-4 c 0.002,-0.003 0.005,-0.006 0.007,-0.009 z m 11.442875,0.0771 c 0.0391,0.0657 0.0727,0.13577 0.1172,0.19893 -0.001,0.001 -0.003,0.001 -0.004,0.002 -0.0396,-0.065 -0.0767,-0.13288 -0.11154,-0.20163 z m -6.18486,7.91925 c -0.0203,0.11781 -0.0295,0.23856 -0.0295,0.36173 0,0.0733 0.002,0.14527 0.008,0.21675 -0.006,-0.0709 -0.009,-0.14351 -0.009,-0.21675 0,-0.12327 0.008,-0.24439 0.0315,-0.36173 z" />
  </g>
</svg>
