<?xml version="1.0" encoding="UTF-8" standalone="no"?>
<!DOCTYPE svg PUBLIC "-//W3C//DTD SVG 1.1//EN"
 "http://www.w3.org/Graphics/SVG/1.1/DTD/svg11.dtd">
<!-- Generated by graphviz version 2.43.0 (0)
 -->
<!-- Title: %3 Pages: 1 -->
<svg width="242pt" height="98pt"
 viewBox="0.00 0.00 242.00 98.00" xmlns="http://www.w3.org/2000/svg" xmlns:xlink="http://www.w3.org/1999/xlink">
<g id="graph0" class="graph" transform="scale(1 1) rotate(0) translate(4 94)">
<title>%3</title>
<polygon fill="white" stroke="transparent" points="-4,4 -4,-94 238,-94 238,4 -4,4"/>
<!-- 1581132250364216547 -->
<g id="node1" class="node">
<title>1581132250364216547</title>
<polygon fill="none" stroke="black" points="132,-57 90,-57 90,-33 132,-33 144,-45 132,-57"/>
<text text-anchor="middle" x="117" y="-41.3" font-family="Helvetica,sans-Serif" font-size="14.00">add</text>
</g>
<!-- &#45;235420952129115495 -->
<g id="node2" class="node">
<title>&#45;235420952129115495</title>
<ellipse fill="none" stroke="black" cx="207" cy="-45" rx="27" ry="18"/>
<text text-anchor="middle" x="207" y="-41.3" font-family="Helvetica,sans-Serif" font-size="14.00">C</text>
</g>
<!-- 1581132250364216547&#45;&gt;&#45;235420952129115495 -->
<g id="edge1" class="edge">
<title>1581132250364216547&#45;&gt;&#45;235420952129115495</title>
<path fill="none" stroke="black" d="M144.4,-45C152.39,-45 161.31,-45 169.82,-45"/>
<polygon fill="black" stroke="black" points="169.92,-48.5 179.92,-45 169.92,-41.5 169.92,-48.5"/>
</g>
<!-- 6052177400351987956 -->
<g id="node3" class="node">
<title>6052177400351987956</title>
<ellipse fill="none" stroke="black" cx="27" cy="-72" rx="27" ry="18"/>
<text text-anchor="middle" x="27" y="-68.3" font-family="Helvetica,sans-Serif" font-size="14.00">A</text>
</g>
<!-- 6052177400351987956&#45;&gt;1581132250364216547 -->
<g id="edge2" class="edge">
<title>6052177400351987956&#45;&gt;1581132250364216547</title>
<path fill="none" stroke="black" d="M52.05,-64.62C60.73,-61.96 70.74,-58.89 80.21,-55.98"/>
<polygon fill="black" stroke="black" points="81.29,-59.31 89.82,-53.03 79.23,-52.62 81.29,-59.31"/>
</g>
<!-- &#45;4709338217804476963 -->
<g id="node4" class="node">
<title>&#45;4709338217804476963</title>
<ellipse fill="none" stroke="black" cx="27" cy="-18" rx="27" ry="18"/>
<text text-anchor="middle" x="27" y="-14.3" font-family="Helvetica,sans-Serif" font-size="14.00">B</text>
</g>
<!-- &#45;4709338217804476963&#45;&gt;1581132250364216547 -->
<g id="edge3" class="edge">
<title>&#45;4709338217804476963&#45;&gt;1581132250364216547</title>
<path fill="none" stroke="black" d="M52.05,-25.38C60.73,-28.04 70.74,-31.11 80.21,-34.02"/>
<polygon fill="black" stroke="black" points="79.23,-37.38 89.82,-36.97 81.29,-30.69 79.23,-37.38"/>
</g>
</g>
</svg>
