<?xml version="1.0" encoding="UTF-8" standalone="no"?>
<!DOCTYPE svg PUBLIC "-//W3C//DTD SVG 1.1//EN"
 "http://www.w3.org/Graphics/SVG/1.1/DTD/svg11.dtd">
<!-- Generated by graphviz version 2.42.4 (0)
 -->
<!-- Pages: 1 -->
<svg width="291pt" height="98pt"
 viewBox="0.00 0.00 291.00 98.00" xmlns="http://www.w3.org/2000/svg" xmlns:xlink="http://www.w3.org/1999/xlink">
<g id="graph0" class="graph" transform="scale(1 1) rotate(0) translate(4 94)">
<polygon fill="white" stroke="transparent" points="-4,4 -4,-94 287,-94 287,4 -4,4"/>
<!-- &#45;8947827852364321448 -->
<g id="node1" class="node">
<title>&#45;8947827852364321448</title>
<polygon fill="none" stroke="black" points="181,-57 90,-57 90,-33 181,-33 193,-45 181,-57"/>
<text text-anchor="middle" x="141.5" y="-41.3" font-family="Helvetica,sans-Serif" font-size="14.00">compute_sum</text>
</g>
<!-- 6769896678271460328 -->
<g id="node2" class="node">
<title>6769896678271460328</title>
<ellipse fill="none" stroke="black" cx="256" cy="-45" rx="27" ry="18"/>
<text text-anchor="middle" x="256" y="-41.3" font-family="Helvetica,sans-Serif" font-size="14.00">C</text>
</g>
<!-- &#45;8947827852364321448&#45;&gt;6769896678271460328 -->
<g id="edge1" class="edge">
<title>&#45;8947827852364321448&#45;&gt;6769896678271460328</title>
<path fill="none" stroke="black" d="M193.16,-45C201.75,-45 210.53,-45 218.66,-45"/>
<polygon fill="black" stroke="black" points="218.92,-48.5 228.92,-45 218.92,-41.5 218.92,-48.5"/>
</g>
<!-- 1706785516974306657 -->
<g id="node3" class="node">
<title>1706785516974306657</title>
<ellipse fill="none" stroke="black" cx="27" cy="-72" rx="27" ry="18"/>
<text text-anchor="middle" x="27" y="-68.3" font-family="Helvetica,sans-Serif" font-size="14.00">A</text>
</g>
<!-- 1706785516974306657&#45;&gt;&#45;8947827852364321448 -->
<g id="edge2" class="edge">
<title>1706785516974306657&#45;&gt;&#45;8947827852364321448</title>
<path fill="none" stroke="black" d="M52.69,-66.07C60.75,-64.14 70.1,-61.9 79.62,-59.61"/>
<polygon fill="black" stroke="black" points="80.66,-62.96 89.56,-57.22 79.02,-56.16 80.66,-62.96"/>
</g>
<!-- 7708863474056729852 -->
<g id="node4" class="node">
<title>7708863474056729852</title>
<ellipse fill="none" stroke="black" cx="27" cy="-18" rx="27" ry="18"/>
<text text-anchor="middle" x="27" y="-14.3" font-family="Helvetica,sans-Serif" font-size="14.00">B</text>
</g>
<!-- 7708863474056729852&#45;&gt;&#45;8947827852364321448 -->
<g id="edge3" class="edge">
<title>7708863474056729852&#45;&gt;&#45;8947827852364321448</title>
<path fill="none" stroke="black" d="M52.69,-23.93C60.75,-25.86 70.1,-28.1 79.62,-30.39"/>
<polygon fill="black" stroke="black" points="79.02,-33.84 89.56,-32.78 80.66,-27.04 79.02,-33.84"/>
</g>
</g>
</svg>
