<?xml version="1.0" encoding="UTF-8" standalone="no"?>
<!DOCTYPE svg PUBLIC "-//W3C//DTD SVG 1.1//EN"
 "http://www.w3.org/Graphics/SVG/1.1/DTD/svg11.dtd">
<!-- Generated by graphviz version 2.42.4 (0)
 -->
<!-- Pages: 1 -->
<svg width="538pt" height="980pt"
 viewBox="0.00 0.00 537.50 980.00" xmlns="http://www.w3.org/2000/svg" xmlns:xlink="http://www.w3.org/1999/xlink">
<g id="graph0" class="graph" transform="scale(1 1) rotate(0) translate(4 976)">
<polygon fill="white" stroke="transparent" points="-4,4 -4,-976 533.5,-976 533.5,4 -4,4"/>
<!-- 8314051388463803442 -->
<g id="node1" class="node">
<title>8314051388463803442</title>
<ellipse fill="none" stroke="black" cx="218" cy="-882" rx="29.5" ry="18"/>
<text text-anchor="middle" x="218" y="-878.3" font-family="Helvetica,sans-Serif" font-size="14.00">save</text>
</g>
<!-- &#45;7069158308927961309 -->
<g id="node2" class="node">
<title>&#45;7069158308927961309</title>
<ellipse fill="none" stroke="black" cx="257" cy="-954" rx="40.09" ry="18"/>
<text text-anchor="middle" x="257" y="-950.3" font-family="Helvetica,sans-Serif" font-size="14.00">do both</text>
</g>
<!-- 8314051388463803442&#45;&gt;&#45;7069158308927961309 -->
<g id="edge1" class="edge">
<title>8314051388463803442&#45;&gt;&#45;7069158308927961309</title>
<path fill="none" stroke="black" d="M227.05,-899.24C231.7,-907.6 237.49,-917.98 242.73,-927.39"/>
<polygon fill="black" stroke="black" points="239.81,-929.33 247.73,-936.37 245.92,-925.93 239.81,-929.33"/>
</g>
<!-- &#45;6072498769738347390 -->
<g id="node3" class="node">
<title>&#45;6072498769738347390</title>
<ellipse fill="none" stroke="black" cx="300" cy="-882" rx="31.4" ry="18"/>
<text text-anchor="middle" x="300" y="-878.3" font-family="Helvetica,sans-Serif" font-size="14.00">show</text>
</g>
<!-- &#45;6072498769738347390&#45;&gt;&#45;7069158308927961309 -->
<g id="edge2" class="edge">
<title>&#45;6072498769738347390&#45;&gt;&#45;7069158308927961309</title>
<path fill="none" stroke="black" d="M290.03,-899.24C284.84,-907.68 278.38,-918.2 272.55,-927.69"/>
<polygon fill="black" stroke="black" points="269.47,-926.01 267.22,-936.37 275.43,-929.68 269.47,-926.01"/>
</g>
<!-- 3502411805880761076 -->
<g id="node4" class="node">
<title>3502411805880761076</title>
<polygon fill="none" stroke="black" points="247,-828 173,-828 173,-792 247,-792 247,-828"/>
<text text-anchor="middle" x="210" y="-806.3" font-family="Helvetica,sans-Serif" font-size="14.00">save_plot</text>
</g>
<!-- 3502411805880761076&#45;&gt;8314051388463803442 -->
<g id="edge3" class="edge">
<title>3502411805880761076&#45;&gt;8314051388463803442</title>
<path fill="none" stroke="black" d="M211.98,-828.3C212.86,-836.02 213.92,-845.29 214.9,-853.89"/>
<polygon fill="black" stroke="black" points="211.43,-854.36 216.05,-863.9 218.39,-853.56 211.43,-854.36"/>
</g>
<!-- &#45;1626094426622705610 -->
<g id="node5" class="node">
<title>&#45;1626094426622705610</title>
<ellipse fill="none" stroke="black" cx="257" cy="-738" rx="27" ry="18"/>
<text text-anchor="middle" x="257" y="-734.3" font-family="Helvetica,sans-Serif" font-size="14.00">plot</text>
</g>
<!-- &#45;1626094426622705610&#45;&gt;3502411805880761076 -->
<g id="edge4" class="edge">
<title>&#45;1626094426622705610&#45;&gt;3502411805880761076</title>
<path fill="none" stroke="black" d="M246.33,-754.88C240.69,-763.28 233.63,-773.8 227.24,-783.33"/>
<polygon fill="black" stroke="black" points="224.28,-781.45 221.61,-791.71 230.09,-785.36 224.28,-781.45"/>
</g>
<!-- &#45;6248950128167794870 -->
<g id="node6" class="node">
<title>&#45;6248950128167794870</title>
<polygon fill="none" stroke="black" points="342.5,-828 265.5,-828 265.5,-792 342.5,-792 342.5,-828"/>
<text text-anchor="middle" x="304" y="-806.3" font-family="Helvetica,sans-Serif" font-size="14.00">show_plot</text>
</g>
<!-- &#45;1626094426622705610&#45;&gt;&#45;6248950128167794870 -->
<g id="edge6" class="edge">
<title>&#45;1626094426622705610&#45;&gt;&#45;6248950128167794870</title>
<path fill="none" stroke="black" d="M267.67,-754.88C273.31,-763.28 280.37,-773.8 286.76,-783.33"/>
<polygon fill="black" stroke="black" points="283.91,-785.36 292.39,-791.71 289.72,-781.45 283.91,-785.36"/>
</g>
<!-- &#45;6248950128167794870&#45;&gt;&#45;6072498769738347390 -->
<g id="edge5" class="edge">
<title>&#45;6248950128167794870&#45;&gt;&#45;6072498769738347390</title>
<path fill="none" stroke="black" d="M303.01,-828.3C302.57,-836.02 302.04,-845.29 301.55,-853.89"/>
<polygon fill="black" stroke="black" points="298.05,-853.71 300.98,-863.9 305.04,-854.11 298.05,-853.71"/>
</g>
<!-- 8738955293985428993 -->
<g id="node7" class="node">
<title>8738955293985428993</title>
<polygon fill="none" stroke="black" points="289.5,-684 224.5,-684 224.5,-648 289.5,-648 289.5,-684"/>
<text text-anchor="middle" x="257" y="-662.3" font-family="Helvetica,sans-Serif" font-size="14.00">my_plot</text>
</g>
<!-- 8738955293985428993&#45;&gt;&#45;1626094426622705610 -->
<g id="edge7" class="edge">
<title>8738955293985428993&#45;&gt;&#45;1626094426622705610</title>
<path fill="none" stroke="black" d="M257,-684.3C257,-692.02 257,-701.29 257,-709.89"/>
<polygon fill="black" stroke="black" points="253.5,-709.9 257,-719.9 260.5,-709.9 253.5,-709.9"/>
</g>
<!-- &#45;5647340821803376076 -->
<g id="node8" class="node">
<title>&#45;5647340821803376076</title>
<ellipse fill="none" stroke="black" cx="257" cy="-594" rx="27" ry="18"/>
<text text-anchor="middle" x="257" y="-590.3" font-family="Helvetica,sans-Serif" font-size="14.00">tidy</text>
</g>
<!-- &#45;5647340821803376076&#45;&gt;8738955293985428993 -->
<g id="edge8" class="edge">
<title>&#45;5647340821803376076&#45;&gt;8738955293985428993</title>
<path fill="none" stroke="black" d="M257,-612.3C257,-620.02 257,-629.29 257,-637.89"/>
<polygon fill="black" stroke="black" points="253.5,-637.9 257,-647.9 260.5,-637.9 253.5,-637.9"/>
</g>
<!-- 2592697711844273109 -->
<g id="node9" class="node">
<title>2592697711844273109</title>
<polygon fill="none" stroke="black" points="303.5,-540 210.5,-540 210.5,-504 303.5,-504 303.5,-540"/>
<text text-anchor="middle" x="257" y="-518.3" font-family="Helvetica,sans-Serif" font-size="14.00">as_tidy_data</text>
</g>
<!-- 2592697711844273109&#45;&gt;&#45;5647340821803376076 -->
<g id="edge9" class="edge">
<title>2592697711844273109&#45;&gt;&#45;5647340821803376076</title>
<path fill="none" stroke="black" d="M257,-540.3C257,-548.02 257,-557.29 257,-565.89"/>
<polygon fill="black" stroke="black" points="253.5,-565.9 257,-575.9 260.5,-565.9 253.5,-565.9"/>
</g>
<!-- 7482859139916930542 -->
<g id="node10" class="node">
<title>7482859139916930542</title>
<ellipse fill="none" stroke="black" cx="257" cy="-450" rx="51.99" ry="18"/>
<text text-anchor="middle" x="257" y="-446.3" font-family="Helvetica,sans-Serif" font-size="14.00">out:t&#45;ya&#45;c&#45;l</text>
</g>
<!-- 7482859139916930542&#45;&gt;2592697711844273109 -->
<g id="edge10" class="edge">
<title>7482859139916930542&#45;&gt;2592697711844273109</title>
<path fill="none" stroke="black" d="M257,-468.3C257,-476.02 257,-485.29 257,-493.89"/>
<polygon fill="black" stroke="black" points="253.5,-493.9 257,-503.9 260.5,-493.9 253.5,-493.9"/>
</g>
<!-- &#45;6394903026998932129 -->
<g id="node11" class="node">
<title>&#45;6394903026998932129</title>
<polygon fill="none" stroke="black" points="393.5,-396 120.5,-396 120.5,-360 393.5,-360 393.5,-396"/>
<text text-anchor="middle" x="257" y="-374.3" font-family="Helvetica,sans-Serif" font-size="14.00">sum(dimensions=[&#39;nl&#39;, &#39;yv&#39;, &#39;m&#39;, &#39;nd&#39;, &#39;h&#39;, [...]</text>
</g>
<!-- &#45;6394903026998932129&#45;&gt;7482859139916930542 -->
<g id="edge11" class="edge">
<title>&#45;6394903026998932129&#45;&gt;7482859139916930542</title>
<path fill="none" stroke="black" d="M257,-396.3C257,-404.02 257,-413.29 257,-421.89"/>
<polygon fill="black" stroke="black" points="253.5,-421.9 257,-431.9 260.5,-421.9 253.5,-421.9"/>
</g>
<!-- 8572843417456448460 -->
<g id="node12" class="node">
<title>8572843417456448460</title>
<ellipse fill="none" stroke="black" cx="257" cy="-306" rx="117.78" ry="18"/>
<text text-anchor="middle" x="257" y="-302.3" font-family="Helvetica,sans-Serif" font-size="14.00">out:nl&#45;t&#45;yv&#45;ya&#45;m&#45;nd&#45;c&#45;l&#45;h&#45;hd</text>
</g>
<!-- 8572843417456448460&#45;&gt;&#45;6394903026998932129 -->
<g id="edge12" class="edge">
<title>8572843417456448460&#45;&gt;&#45;6394903026998932129</title>
<path fill="none" stroke="black" d="M257,-324.3C257,-332.02 257,-341.29 257,-349.89"/>
<polygon fill="black" stroke="black" points="253.5,-349.9 257,-359.9 260.5,-349.9 253.5,-349.9"/>
</g>
<!-- &#45;651071606426208864 -->
<g id="node13" class="node">
<title>&#45;651071606426208864</title>
<polygon fill="none" stroke="black" points="284,-252 230,-252 230,-216 284,-216 284,-252"/>
<text text-anchor="middle" x="257" y="-230.3" font-family="Helvetica,sans-Serif" font-size="14.00">mul</text>
</g>
<!-- &#45;651071606426208864&#45;&gt;8572843417456448460 -->
<g id="edge13" class="edge">
<title>&#45;651071606426208864&#45;&gt;8572843417456448460</title>
<path fill="none" stroke="black" d="M257,-252.3C257,-260.02 257,-269.29 257,-277.89"/>
<polygon fill="black" stroke="black" points="253.5,-277.9 257,-287.9 260.5,-277.9 253.5,-277.9"/>
</g>
<!-- 8200418834264962315 -->
<g id="node14" class="node">
<title>8200418834264962315</title>
<ellipse fill="none" stroke="black" cx="141" cy="-162" rx="84.49" ry="18"/>
<text text-anchor="middle" x="141" y="-158.3" font-family="Helvetica,sans-Serif" font-size="14.00">ACT:nl&#45;t&#45;yv&#45;ya&#45;m&#45;h</text>
</g>
<!-- 8200418834264962315&#45;&gt;&#45;651071606426208864 -->
<g id="edge14" class="edge">
<title>8200418834264962315&#45;&gt;&#45;651071606426208864</title>
<path fill="none" stroke="black" d="M167.9,-179.24C183.75,-188.8 203.99,-201.01 221.17,-211.38"/>
<polygon fill="black" stroke="black" points="219.47,-214.44 229.84,-216.61 223.09,-208.45 219.47,-214.44"/>
</g>
<!-- 161173835671698427 -->
<g id="node15" class="node">
<title>161173835671698427</title>
<ellipse fill="none" stroke="black" cx="383" cy="-162" rx="129.98" ry="18"/>
<text text-anchor="middle" x="383" y="-158.3" font-family="Helvetica,sans-Serif" font-size="14.00">output:nl&#45;t&#45;yv&#45;ya&#45;m&#45;nd&#45;c&#45;l&#45;h&#45;hd</text>
</g>
<!-- 161173835671698427&#45;&gt;&#45;651071606426208864 -->
<g id="edge15" class="edge">
<title>161173835671698427&#45;&gt;&#45;651071606426208864</title>
<path fill="none" stroke="black" d="M353.14,-179.59C335.13,-189.6 312.06,-202.41 293.04,-212.98"/>
<polygon fill="black" stroke="black" points="291.11,-210.05 284.07,-217.96 294.51,-216.16 291.11,-210.05"/>
</g>
<!-- 4219789261171566965 -->
<g id="node16" class="node">
<title>4219789261171566965</title>
<polygon fill="none" stroke="black" points="529.5,-108 258.5,-108 258.5,-72 529.5,-72 529.5,-108"/>
<text text-anchor="middle" x="394" y="-86.3" font-family="Helvetica,sans-Serif" font-size="14.00">data_for_quantity(&#39;par&#39;, &#39;output&#39;, &#39;value&#39;, ...)</text>
</g>
<!-- 4219789261171566965&#45;&gt;161173835671698427 -->
<g id="edge16" class="edge">
<title>4219789261171566965&#45;&gt;161173835671698427</title>
<path fill="none" stroke="black" d="M391.28,-108.3C390.07,-116.02 388.61,-125.29 387.26,-133.89"/>
<polygon fill="black" stroke="black" points="383.78,-133.47 385.69,-143.9 390.7,-134.56 383.78,-133.47"/>
</g>
<!-- 4085636891495243672 -->
<g id="node17" class="node">
<title>4085636891495243672</title>
<ellipse fill="none" stroke="black" cx="208" cy="-18" rx="34.39" ry="18"/>
<text text-anchor="middle" x="208" y="-14.3" font-family="Helvetica,sans-Serif" font-size="14.00">config</text>
</g>
<!-- 4085636891495243672&#45;&gt;4219789261171566965 -->
<g id="edge17" class="edge">
<title>4085636891495243672&#45;&gt;4219789261171566965</title>
<path fill="none" stroke="black" d="M235.05,-29.18C262.21,-39.4 304.85,-55.45 339.13,-68.35"/>
<polygon fill="black" stroke="black" points="337.97,-71.65 348.56,-71.9 340.44,-65.1 337.97,-71.65"/>
</g>
<!-- 4814053752250260396 -->
<g id="node19" class="node">
<title>4814053752250260396</title>
<polygon fill="none" stroke="black" points="240,-108 0,-108 0,-72 240,-72 240,-108"/>
<text text-anchor="middle" x="120" y="-86.3" font-family="Helvetica,sans-Serif" font-size="14.00">data_for_quantity(&#39;var&#39;, &#39;ACT&#39;, &#39;lvl&#39;, ...)</text>
</g>
<!-- 4085636891495243672&#45;&gt;4814053752250260396 -->
<g id="edge20" class="edge">
<title>4085636891495243672&#45;&gt;4814053752250260396</title>
<path fill="none" stroke="black" d="M189.77,-33.5C178.18,-42.72 162.9,-54.87 149.6,-65.45"/>
<polygon fill="black" stroke="black" points="147.27,-62.83 141.63,-71.8 151.63,-68.31 147.27,-62.83"/>
</g>
<!-- 8137922235326851503 -->
<g id="node18" class="node">
<title>8137922235326851503</title>
<ellipse fill="none" stroke="black" cx="349" cy="-18" rx="44.39" ry="18"/>
<text text-anchor="middle" x="349" y="-14.3" font-family="Helvetica,sans-Serif" font-size="14.00">scenario</text>
</g>
<!-- 8137922235326851503&#45;&gt;4219789261171566965 -->
<g id="edge18" class="edge">
<title>8137922235326851503&#45;&gt;4219789261171566965</title>
<path fill="none" stroke="black" d="M359.66,-35.59C364.94,-43.8 371.44,-53.9 377.35,-63.1"/>
<polygon fill="black" stroke="black" points="374.43,-65.03 382.78,-71.55 380.32,-61.25 374.43,-65.03"/>
</g>
<!-- 8137922235326851503&#45;&gt;4814053752250260396 -->
<g id="edge21" class="edge">
<title>8137922235326851503&#45;&gt;4814053752250260396</title>
<path fill="none" stroke="black" d="M314.72,-29.48C280.68,-39.88 227.65,-56.09 185.52,-68.97"/>
<polygon fill="black" stroke="black" points="184.43,-65.65 175.89,-71.92 186.48,-72.34 184.43,-65.65"/>
</g>
<!-- 4814053752250260396&#45;&gt;8200418834264962315 -->
<g id="edge19" class="edge">
<title>4814053752250260396&#45;&gt;8200418834264962315</title>
<path fill="none" stroke="black" d="M125.19,-108.3C127.53,-116.1 130.35,-125.49 132.95,-134.17"/>
<polygon fill="black" stroke="black" points="129.64,-135.32 135.87,-143.9 136.35,-133.31 129.64,-135.32"/>
</g>
</g>
</svg>
